<ttFont>
    <TTGlyph name=".notdef" xMin="234" yMin="0" xMax="1074" yMax="1253">
      <contour>
        <pt x="1047" y="27" on="1"/>
        <pt x="1047" y="1226" on="1"/>
        <pt x="259" y="1226" on="1"/>
        <pt x="259" y="27" on="1"/>
      </contour>
      <contour>
        <pt x="234" y="1253" on="1"/>
        <pt x="1074" y="1253" on="1"/>
        <pt x="1074" y="0" on="1"/>
        <pt x="234" y="0" on="1"/>
      </contour>
    </TTGlyph>
    <TTGlyph name="A" xMin="-35" yMin="-12" xMax="1267" yMax="1458">
      <contour>
        <pt x="452" y="570" on="1"/>
        <pt x="479" y="566" on="0"/>
        <pt x="541" y="561" on="0"/>
        <pt x="604" y="559" on="0"/>
        <pt x="665" y="558" on="0"/>
        <pt x="691" y="558" on="1"/>
        <pt x="711" y="558" on="1"/>
        <pt x="726" y="558" on="0"/>
        <pt x="746" y="567" on="0"/>
        <pt x="746" y="585" on="1"/>
        <pt x="746" y="605" on="0"/>
        <pt x="727" y="643" on="0"/>
        <pt x="721" y="662" on="1"/>
        <pt x="710" y="700" on="0"/>
        <pt x="691" y="778" on="0"/>
        <pt x="677" y="813" on="1"/>
        <pt x="677" y="815" on="0"/>
        <pt x="665" y="836" on="0"/>
        <pt x="664" y="838" on="1"/>
        <pt x="663" y="841" on="0"/>
        <pt x="660" y="859" on="0"/>
        <pt x="656" y="881" on="0"/>
        <pt x="653" y="899" on="0"/>
        <pt x="652" y="902" on="1"/>
        <pt x="652" y="903" on="0"/>
        <pt x="646" y="918" on="0"/>
        <pt x="637" y="937" on="0"/>
        <pt x="629" y="957" on="0"/>
        <pt x="627" y="963" on="1"/>
        <pt x="627" y="963" on="0"/>
        <pt x="623" y="971" on="0"/>
        <pt x="619" y="980" on="0"/>
        <pt x="615" y="987" on="0"/>
        <pt x="615" y="988" on="1"/>
        <pt x="610" y="997" on="0"/>
        <pt x="606" y="1019" on="0"/>
        <pt x="601" y="1039" on="0"/>
        <pt x="593" y="1057" on="0"/>
        <pt x="585" y="1063" on="1"/>
        <pt x="580" y="1063" on="1"/>
        <pt x="566" y="1063" on="0"/>
        <pt x="547" y="1017" on="0"/>
        <pt x="533" y="959" on="0"/>
        <pt x="524" y="904" on="0"/>
        <pt x="521" y="895" on="1"/>
        <pt x="519" y="889" on="0"/>
        <pt x="511" y="861" on="0"/>
        <pt x="509" y="858" on="1"/>
        <pt x="498" y="815" on="0"/>
        <pt x="473" y="730" on="0"/>
        <pt x="464" y="687" on="1"/>
        <pt x="464" y="686" on="0"/>
        <pt x="463" y="673" on="0"/>
        <pt x="461" y="658" on="0"/>
        <pt x="459" y="645" on="0"/>
        <pt x="459" y="643" on="1"/>
        <pt x="456" y="635" on="0"/>
        <pt x="449" y="627" on="0"/>
        <pt x="443" y="618" on="0"/>
        <pt x="439" y="607" on="0"/>
        <pt x="439" y="598" on="1"/>
        <pt x="439" y="591" on="1"/>
        <pt x="439" y="583" on="0"/>
        <pt x="443" y="572" on="0"/>
      </contour>
      <contour>
        <pt x="-35" y="22" on="1"/>
        <pt x="-35" y="30" on="0"/>
        <pt x="-23" y="48" on="0"/>
        <pt x="-17" y="52" on="1"/>
        <pt x="-15" y="52" on="0"/>
        <pt x="11" y="55" on="0"/>
        <pt x="15" y="57" on="1"/>
        <pt x="39" y="64" on="0"/>
        <pt x="79" y="85" on="0"/>
        <pt x="101" y="96" on="1"/>
        <pt x="123" y="105" on="0"/>
        <pt x="155" y="115" on="0"/>
        <pt x="180" y="129" on="0"/>
        <pt x="203" y="153" on="0"/>
        <pt x="215" y="175" on="1"/>
        <pt x="222" y="188" on="0"/>
        <pt x="225" y="228" on="0"/>
        <pt x="227" y="239" on="1"/>
        <pt x="227" y="240" on="0"/>
        <pt x="234" y="249" on="0"/>
        <pt x="234" y="250" on="1"/>
        <pt x="235" y="254" on="0"/>
        <pt x="240" y="268" on="0"/>
        <pt x="240" y="270" on="1"/>
        <pt x="240" y="271" on="0"/>
        <pt x="241" y="283" on="0"/>
        <pt x="243" y="295" on="0"/>
        <pt x="245" y="306" on="0"/>
        <pt x="245" y="307" on="1"/>
        <pt x="246" y="309" on="0"/>
        <pt x="248" y="312" on="1"/>
        <pt x="249" y="314" on="0"/>
        <pt x="251" y="319" on="0"/>
        <pt x="252" y="321" on="1"/>
        <pt x="258" y="331" on="0"/>
        <pt x="273" y="363" on="0"/>
        <pt x="287" y="399" on="0"/>
        <pt x="299" y="432" on="0"/>
        <pt x="302" y="444" on="1"/>
        <pt x="309" y="474" on="0"/>
        <pt x="332" y="534" on="0"/>
        <pt x="341" y="564" on="1"/>
        <pt x="345" y="584" on="0"/>
        <pt x="353" y="630" on="0"/>
        <pt x="358" y="650" on="1"/>
        <pt x="360" y="653" on="0"/>
        <pt x="368" y="678" on="0"/>
        <pt x="370" y="682" on="1"/>
        <pt x="371" y="684" on="0"/>
        <pt x="383" y="699" on="0"/>
        <pt x="383" y="701" on="1"/>
        <pt x="384" y="702" on="0"/>
        <pt x="385" y="711" on="0"/>
        <pt x="387" y="722" on="0"/>
        <pt x="388" y="731" on="0"/>
        <pt x="388" y="732" on="1"/>
        <pt x="390" y="736" on="0"/>
        <pt x="395" y="753" on="0"/>
        <pt x="399" y="769" on="0"/>
        <pt x="402" y="782" on="0"/>
        <pt x="402" y="783" on="1"/>
        <pt x="402" y="784" on="0"/>
        <pt x="408" y="797" on="0"/>
        <pt x="414" y="812" on="0"/>
        <pt x="419" y="825" on="0"/>
        <pt x="420" y="827" on="1"/>
        <pt x="422" y="829" on="0"/>
        <pt x="430" y="851" on="0"/>
        <pt x="438" y="876" on="0"/>
        <pt x="445" y="899" on="0"/>
        <pt x="445" y="902" on="1"/>
        <pt x="449" y="912" on="0"/>
        <pt x="458" y="944" on="0"/>
        <pt x="470" y="977" on="0"/>
        <pt x="486" y="1006" on="0"/>
        <pt x="496" y="1013" on="1"/>
        <pt x="500" y="1038" on="0"/>
        <pt x="518" y="1083" on="0"/>
        <pt x="538" y="1126" on="0"/>
        <pt x="553" y="1171" on="0"/>
        <pt x="553" y="1196" on="1"/>
        <pt x="553" y="1217" on="0"/>
        <pt x="540" y="1241" on="0"/>
        <pt x="525" y="1256" on="0"/>
        <pt x="512" y="1270" on="0"/>
        <pt x="512" y="1282" on="1"/>
        <pt x="512" y="1284" on="0"/>
        <pt x="514" y="1293" on="0"/>
        <pt x="514" y="1295" on="1"/>
        <pt x="528" y="1303" on="0"/>
        <pt x="564" y="1315" on="0"/>
        <pt x="599" y="1330" on="0"/>
        <pt x="627" y="1353" on="0"/>
        <pt x="632" y="1371" on="1"/>
        <pt x="633" y="1373" on="0"/>
        <pt x="639" y="1391" on="0"/>
        <pt x="645" y="1411" on="0"/>
        <pt x="651" y="1429" on="0"/>
        <pt x="652" y="1431" on="1"/>
        <pt x="654" y="1440" on="0"/>
        <pt x="667" y="1458" on="0"/>
        <pt x="677" y="1458" on="1"/>
        <pt x="678" y="1458" on="0"/>
        <pt x="679" y="1457" on="0"/>
        <pt x="680" y="1457" on="1"/>
        <pt x="682" y="1457" on="1"/>
        <pt x="685" y="1455" on="0"/>
        <pt x="694" y="1446" on="0"/>
        <pt x="705" y="1436" on="0"/>
        <pt x="713" y="1427" on="0"/>
        <pt x="714" y="1425" on="1"/>
        <pt x="716" y="1425" on="0"/>
        <pt x="721" y="1412" on="0"/>
        <pt x="721" y="1408" on="1"/>
        <pt x="721" y="1404" on="0"/>
        <pt x="727" y="1378" on="0"/>
        <pt x="733" y="1349" on="0"/>
        <pt x="739" y="1323" on="0"/>
        <pt x="739" y="1320" on="1"/>
        <pt x="740" y="1316" on="0"/>
        <pt x="750" y="1286" on="0"/>
        <pt x="761" y="1253" on="0"/>
        <pt x="771" y="1224" on="0"/>
        <pt x="771" y="1220" on="1"/>
        <pt x="780" y="1188" on="0"/>
        <pt x="798" y="1114" on="0"/>
        <pt x="808" y="1082" on="1"/>
        <pt x="808" y="1081" on="0"/>
        <pt x="813" y="1070" on="0"/>
        <pt x="820" y="1057" on="0"/>
        <pt x="827" y="1046" on="0"/>
        <pt x="828" y="1045" on="1"/>
        <pt x="836" y="1026" on="0"/>
        <pt x="839" y="983" on="0"/>
        <pt x="847" y="963" on="1"/>
        <pt x="867" y="900" on="0"/>
        <pt x="909" y="782" on="0"/>
        <pt x="926" y="719" on="1"/>
        <pt x="927" y="716" on="0"/>
        <pt x="931" y="698" on="0"/>
        <pt x="935" y="677" on="0"/>
        <pt x="939" y="659" on="0"/>
        <pt x="939" y="657" on="1"/>
        <pt x="940" y="655" on="0"/>
        <pt x="946" y="642" on="0"/>
        <pt x="953" y="628" on="0"/>
        <pt x="958" y="616" on="0"/>
        <pt x="958" y="615" on="1"/>
        <pt x="958" y="613" on="0"/>
        <pt x="960" y="600" on="0"/>
        <pt x="962" y="585" on="0"/>
        <pt x="964" y="572" on="0"/>
        <pt x="964" y="570" on="1"/>
        <pt x="965" y="566" on="0"/>
        <pt x="972" y="538" on="0"/>
        <pt x="981" y="507" on="0"/>
        <pt x="989" y="479" on="0"/>
        <pt x="990" y="475" on="1"/>
        <pt x="1001" y="435" on="0"/>
        <pt x="1030" y="357" on="0"/>
        <pt x="1040" y="314" on="1"/>
        <pt x="1048" y="276" on="0"/>
        <pt x="1063" y="205" on="0"/>
        <pt x="1077" y="170" on="1"/>
        <pt x="1083" y="155" on="0"/>
        <pt x="1093" y="120" on="0"/>
        <pt x="1102" y="108" on="1"/>
        <pt x="1113" y="91" on="0"/>
        <pt x="1148" y="70" on="0"/>
        <pt x="1187" y="58" on="0"/>
        <pt x="1228" y="53" on="0"/>
        <pt x="1245" y="52" on="1"/>
        <pt x="1260" y="47" on="0"/>
        <pt x="1267" y="26" on="0"/>
        <pt x="1267" y="13" on="1"/>
        <pt x="1267" y="12" on="0"/>
        <pt x="1266" y="9" on="0"/>
        <pt x="1266" y="7" on="1"/>
        <pt x="1265" y="4" on="0"/>
        <pt x="1265" y="2" on="1"/>
        <pt x="1252" y="-5" on="1"/>
        <pt x="1220" y="-5" on="1"/>
        <pt x="1176" y="-5" on="1"/>
        <pt x="1174" y="-5" on="0"/>
        <pt x="1159" y="2" on="0"/>
        <pt x="1158" y="2" on="1"/>
        <pt x="1153" y="2" on="1"/>
        <pt x="1137" y="2" on="0"/>
        <pt x="1109" y="-5" on="0"/>
        <pt x="1092" y="-5" on="1"/>
        <pt x="1072" y="-5" on="0"/>
        <pt x="1031" y="2" on="0"/>
        <pt x="1010" y="2" on="1"/>
        <pt x="999" y="2" on="0"/>
        <pt x="979" y="-5" on="0"/>
        <pt x="968" y="-5" on="1"/>
        <pt x="941" y="-5" on="0"/>
        <pt x="888" y="2" on="0"/>
        <pt x="859" y="2" on="1"/>
        <pt x="817" y="2" on="0"/>
        <pt x="732" y="-12" on="0"/>
        <pt x="687" y="-12" on="1"/>
        <pt x="657" y="-12" on="1"/>
        <pt x="649" y="-5" on="0"/>
        <pt x="638" y="13" on="0"/>
        <pt x="638" y="24" on="1"/>
        <pt x="638" y="37" on="0"/>
        <pt x="667" y="51" on="0"/>
        <pt x="711" y="59" on="0"/>
        <pt x="766" y="64" on="0"/>
        <pt x="818" y="72" on="0"/>
        <pt x="861" y="88" on="0"/>
        <pt x="872" y="102" on="1"/>
        <pt x="872" y="123" on="1"/>
        <pt x="872" y="144" on="1"/>
        <pt x="871" y="145" on="0"/>
        <pt x="868" y="158" on="0"/>
        <pt x="864" y="175" on="0"/>
        <pt x="860" y="190" on="0"/>
        <pt x="859" y="195" on="1"/>
        <pt x="858" y="197" on="0"/>
        <pt x="852" y="213" on="0"/>
        <pt x="845" y="232" on="0"/>
        <pt x="840" y="248" on="0"/>
        <pt x="840" y="250" on="1"/>
        <pt x="839" y="253" on="0"/>
        <pt x="834" y="273" on="0"/>
        <pt x="828" y="297" on="0"/>
        <pt x="822" y="318" on="0"/>
        <pt x="822" y="321" on="1"/>
        <pt x="821" y="322" on="0"/>
        <pt x="816" y="338" on="0"/>
        <pt x="809" y="357" on="0"/>
        <pt x="804" y="374" on="0"/>
        <pt x="803" y="376" on="1"/>
        <pt x="800" y="387" on="0"/>
        <pt x="794" y="418" on="0"/>
        <pt x="785" y="450" on="0"/>
        <pt x="773" y="476" on="0"/>
        <pt x="764" y="482" on="1"/>
        <pt x="721" y="482" on="1"/>
        <pt x="677" y="482" on="1"/>
        <pt x="675" y="482" on="0"/>
        <pt x="659" y="475" on="0"/>
        <pt x="657" y="475" on="1"/>
        <pt x="655" y="475" on="1"/>
        <pt x="652" y="475" on="1"/>
        <pt x="651" y="475" on="0"/>
        <pt x="640" y="477" on="0"/>
        <pt x="627" y="480" on="0"/>
        <pt x="616" y="482" on="0"/>
        <pt x="615" y="482" on="1"/>
        <pt x="614" y="482" on="0"/>
        <pt x="604" y="480" on="0"/>
        <pt x="594" y="477" on="0"/>
        <pt x="585" y="475" on="0"/>
        <pt x="585" y="475" on="1"/>
        <pt x="470" y="475" on="1"/>
        <pt x="466" y="475" on="0"/>
        <pt x="447" y="474" on="0"/>
        <pt x="425" y="472" on="0"/>
        <pt x="406" y="470" on="0"/>
        <pt x="402" y="469" on="1"/>
        <pt x="400" y="468" on="0"/>
        <pt x="399" y="467" on="1"/>
        <pt x="397" y="466" on="0"/>
        <pt x="396" y="464" on="0"/>
        <pt x="395" y="464" on="1"/>
        <pt x="375" y="401" on="0"/>
        <pt x="338" y="271" on="0"/>
        <pt x="321" y="207" on="1"/>
        <pt x="317" y="191" on="0"/>
        <pt x="302" y="155" on="0"/>
        <pt x="302" y="138" on="1"/>
        <pt x="302" y="125" on="0"/>
        <pt x="315" y="99" on="0"/>
        <pt x="321" y="89" on="1"/>
        <pt x="324" y="89" on="0"/>
        <pt x="342" y="87" on="0"/>
        <pt x="362" y="84" on="0"/>
        <pt x="380" y="82" on="0"/>
        <pt x="383" y="82" on="1"/>
        <pt x="384" y="82" on="0"/>
        <pt x="395" y="78" on="0"/>
        <pt x="408" y="74" on="0"/>
        <pt x="419" y="71" on="0"/>
        <pt x="420" y="71" on="1"/>
        <pt x="433" y="68" on="0"/>
        <pt x="462" y="66" on="0"/>
        <pt x="486" y="60" on="0"/>
        <pt x="502" y="45" on="0"/>
        <pt x="502" y="29" on="1"/>
        <pt x="502" y="0" on="0"/>
        <pt x="477" y="-12" on="0"/>
        <pt x="455" y="-12" on="1"/>
        <pt x="442" y="-12" on="1"/>
        <pt x="402" y="-12" on="1"/>
        <pt x="400" y="-12" on="0"/>
        <pt x="387" y="-10" on="0"/>
        <pt x="373" y="-7" on="0"/>
        <pt x="360" y="-5" on="0"/>
        <pt x="358" y="-5" on="1"/>
        <pt x="240" y="-5" on="1"/>
        <pt x="238" y="-5" on="0"/>
        <pt x="225" y="-3" on="0"/>
        <pt x="210" y="0" on="0"/>
        <pt x="197" y="2" on="0"/>
        <pt x="195" y="2" on="1"/>
        <pt x="178" y="2" on="1"/>
        <pt x="169" y="2" on="0"/>
        <pt x="155" y="0" on="0"/>
        <pt x="145" y="-5" on="1"/>
        <pt x="40" y="-5" on="1"/>
        <pt x="36" y="-7" on="0"/>
        <pt x="24" y="-12" on="0"/>
        <pt x="22" y="-12" on="1"/>
        <pt x="17" y="-12" on="1"/>
        <pt x="12" y="-12" on="0"/>
        <pt x="-5" y="-6" on="0"/>
        <pt x="-22" y="3" on="0"/>
        <pt x="-35" y="16" on="0"/>
      </contour>
    </TTGlyph>
    <TTGlyph name="AE" xMin="-42" yMin="-18" xMax="2139" yMax="1490">
      <contour>
        <pt x="694" y="780" on="1"/>
        <pt x="698" y="774" on="0"/>
        <pt x="717" y="760" on="0"/>
        <pt x="740" y="749" on="0"/>
        <pt x="763" y="741" on="0"/>
        <pt x="770" y="741" on="1"/>
        <pt x="775" y="741" on="1"/>
        <pt x="777" y="743" on="0"/>
        <pt x="796" y="754" on="0"/>
        <pt x="800" y="756" on="1"/>
        <pt x="1025" y="756" on="1"/>
        <pt x="1030" y="766" on="1"/>
        <pt x="1028" y="785" on="0"/>
        <pt x="1034" y="820" on="0"/>
        <pt x="1042" y="854" on="0"/>
        <pt x="1050" y="888" on="0"/>
        <pt x="1050" y="906" on="1"/>
        <pt x="1050" y="918" on="0"/>
        <pt x="1049" y="935" on="0"/>
        <pt x="1044" y="948" on="1"/>
        <pt x="1045" y="1095" on="1"/>
        <pt x="1045" y="1114" on="1"/>
        <pt x="1050" y="1327" on="1"/>
        <pt x="1050" y="1330" on="0"/>
        <pt x="1038" y="1348" on="0"/>
        <pt x="1037" y="1352" on="1"/>
        <pt x="1030" y="1352" on="1"/>
        <pt x="1024" y="1352" on="0"/>
        <pt x="1021" y="1351" on="0"/>
        <pt x="1018" y="1346" on="1"/>
        <pt x="1015" y="1343" on="0"/>
        <pt x="1004" y="1330" on="0"/>
        <pt x="994" y="1318" on="0"/>
        <pt x="986" y="1309" on="0"/>
        <pt x="986" y="1309" on="1"/>
        <pt x="984" y="1306" on="0"/>
        <pt x="977" y="1295" on="0"/>
        <pt x="969" y="1283" on="0"/>
        <pt x="962" y="1273" on="0"/>
        <pt x="961" y="1270" on="1"/>
        <pt x="960" y="1268" on="0"/>
        <pt x="949" y="1247" on="0"/>
        <pt x="937" y="1222" on="0"/>
        <pt x="926" y="1199" on="0"/>
        <pt x="924" y="1196" on="1"/>
        <pt x="923" y="1196" on="0"/>
        <pt x="912" y="1185" on="0"/>
        <pt x="912" y="1183" on="1"/>
        <pt x="910" y="1181" on="0"/>
        <pt x="905" y="1171" on="0"/>
        <pt x="899" y="1159" on="0"/>
        <pt x="895" y="1148" on="0"/>
        <pt x="894" y="1146" on="1"/>
        <pt x="892" y="1144" on="0"/>
        <pt x="887" y="1125" on="0"/>
        <pt x="887" y="1121" on="1"/>
        <pt x="887" y="1119" on="0"/>
        <pt x="877" y="1107" on="0"/>
        <pt x="866" y="1093" on="0"/>
        <pt x="856" y="1080" on="0"/>
        <pt x="855" y="1077" on="1"/>
        <pt x="855" y="1076" on="0"/>
        <pt x="849" y="1068" on="0"/>
        <pt x="843" y="1057" on="0"/>
        <pt x="838" y="1049" on="0"/>
        <pt x="837" y="1048" on="1"/>
        <pt x="826" y="1031" on="0"/>
        <pt x="800" y="1009" on="0"/>
        <pt x="793" y="991" on="1"/>
        <pt x="793" y="990" on="0"/>
        <pt x="789" y="979" on="0"/>
        <pt x="785" y="966" on="0"/>
        <pt x="782" y="955" on="0"/>
        <pt x="781" y="954" on="1"/>
        <pt x="750" y="892" on="1"/>
        <pt x="741" y="876" on="0"/>
        <pt x="721" y="856" on="0"/>
        <pt x="705" y="838" on="0"/>
        <pt x="694" y="817" on="0"/>
        <pt x="694" y="800" on="1"/>
      </contour>
      <contour>
        <pt x="1579" y="-7" on="1"/>
        <pt x="1577" y="-7" on="0"/>
        <pt x="1562" y="-12" on="0"/>
        <pt x="1559" y="-12" on="1"/>
        <pt x="1559" y="-12" on="0"/>
        <pt x="1552" y="-10" on="0"/>
        <pt x="1543" y="-9" on="0"/>
        <pt x="1535" y="-7" on="0"/>
        <pt x="1534" y="-7" on="1"/>
        <pt x="1524" y="-7" on="1"/>
        <pt x="1518" y="-7" on="0"/>
        <pt x="1510" y="-8" on="0"/>
        <pt x="1504" y="-12" on="1"/>
        <pt x="1385" y="-12" on="1"/>
        <pt x="1382" y="-10" on="0"/>
        <pt x="1363" y="-2" on="0"/>
        <pt x="1359" y="0" on="1"/>
        <pt x="1354" y="0" on="1"/>
        <pt x="1344" y="0" on="0"/>
        <pt x="1325" y="-7" on="0"/>
        <pt x="1314" y="-7" on="1"/>
        <pt x="1297" y="-7" on="1"/>
        <pt x="1294" y="-7" on="0"/>
        <pt x="1273" y="-5" on="0"/>
        <pt x="1247" y="-2" on="0"/>
        <pt x="1225" y="0" on="0"/>
        <pt x="1222" y="0" on="1"/>
        <pt x="874" y="0" on="1"/>
        <pt x="863" y="0" on="0"/>
        <pt x="837" y="11" on="0"/>
        <pt x="837" y="25" on="1"/>
        <pt x="837" y="42" on="0"/>
        <pt x="856" y="50" on="0"/>
        <pt x="869" y="50" on="1"/>
        <pt x="894" y="50" on="1"/>
        <pt x="912" y="52" on="0"/>
        <pt x="948" y="62" on="0"/>
        <pt x="968" y="62" on="1"/>
        <pt x="978" y="62" on="0"/>
        <pt x="994" y="55" on="0"/>
        <pt x="1002" y="55" on="1"/>
        <pt x="1007" y="55" on="1"/>
        <pt x="1008" y="58" on="0"/>
        <pt x="1017" y="67" on="0"/>
        <pt x="1018" y="69" on="1"/>
        <pt x="1025" y="89" on="0"/>
        <pt x="1023" y="123" on="0"/>
        <pt x="1025" y="144" on="1"/>
        <pt x="1025" y="148" on="0"/>
        <pt x="1026" y="166" on="0"/>
        <pt x="1027" y="186" on="0"/>
        <pt x="1029" y="204" on="0"/>
        <pt x="1030" y="207" on="1"/>
        <pt x="1030" y="208" on="0"/>
        <pt x="1035" y="228" on="0"/>
        <pt x="1037" y="232" on="1"/>
        <pt x="1037" y="344" on="1"/>
        <pt x="1037" y="346" on="0"/>
        <pt x="1042" y="359" on="0"/>
        <pt x="1044" y="361" on="1"/>
        <pt x="1044" y="366" on="1"/>
        <pt x="1044" y="373" on="1"/>
        <pt x="1042" y="375" on="0"/>
        <pt x="1040" y="383" on="1"/>
        <pt x="1038" y="387" on="0"/>
        <pt x="1037" y="391" on="1"/>
        <pt x="1036" y="391" on="0"/>
        <pt x="1036" y="392" on="1"/>
        <pt x="1035" y="393" on="0"/>
        <pt x="1035" y="396" on="1"/>
        <pt x="1037" y="398" on="1"/>
        <pt x="1037" y="401" on="0"/>
        <pt x="1039" y="419" on="0"/>
        <pt x="1041" y="440" on="0"/>
        <pt x="1043" y="458" on="0"/>
        <pt x="1044" y="460" on="1"/>
        <pt x="1044" y="533" on="1"/>
        <pt x="1044" y="561" on="1"/>
        <pt x="1044" y="563" on="0"/>
        <pt x="1045" y="576" on="0"/>
        <pt x="1047" y="592" on="0"/>
        <pt x="1049" y="607" on="0"/>
        <pt x="1050" y="610" on="1"/>
        <pt x="1050" y="612" on="0"/>
        <pt x="1054" y="627" on="0"/>
        <pt x="1054" y="628" on="1"/>
        <pt x="1052" y="634" on="1"/>
        <pt x="1050" y="640" on="0"/>
        <pt x="1050" y="642" on="1"/>
        <pt x="1048" y="643" on="0"/>
        <pt x="1037" y="659" on="0"/>
        <pt x="1037" y="660" on="1"/>
        <pt x="1031" y="662" on="0"/>
        <pt x="1000" y="668" on="0"/>
        <pt x="966" y="674" on="0"/>
        <pt x="937" y="678" on="0"/>
        <pt x="931" y="679" on="1"/>
        <pt x="896" y="679" on="1"/>
        <pt x="872" y="679" on="0"/>
        <pt x="826" y="674" on="0"/>
        <pt x="802" y="674" on="1"/>
        <pt x="800" y="674" on="1"/>
        <pt x="796" y="674" on="0"/>
        <pt x="770" y="679" on="0"/>
        <pt x="768" y="679" on="1"/>
        <pt x="765" y="679" on="1"/>
        <pt x="761" y="679" on="1"/>
        <pt x="749" y="675" on="0"/>
        <pt x="715" y="671" on="0"/>
        <pt x="680" y="666" on="0"/>
        <pt x="648" y="660" on="0"/>
        <pt x="637" y="654" on="1"/>
        <pt x="628" y="649" on="0"/>
        <pt x="613" y="633" on="0"/>
        <pt x="599" y="615" on="0"/>
        <pt x="584" y="597" on="0"/>
        <pt x="575" y="591" on="1"/>
        <pt x="564" y="585" on="0"/>
        <pt x="560" y="563" on="0"/>
        <pt x="556" y="554" on="1"/>
        <pt x="555" y="554" on="0"/>
        <pt x="550" y="545" on="0"/>
        <pt x="544" y="535" on="0"/>
        <pt x="539" y="524" on="0"/>
        <pt x="538" y="522" on="1"/>
        <pt x="536" y="520" on="0"/>
        <pt x="532" y="501" on="0"/>
        <pt x="528" y="478" on="0"/>
        <pt x="525" y="457" on="0"/>
        <pt x="524" y="454" on="1"/>
        <pt x="524" y="452" on="0"/>
        <pt x="514" y="437" on="0"/>
        <pt x="513" y="435" on="1"/>
        <pt x="505" y="419" on="0"/>
        <pt x="494" y="390" on="0"/>
        <pt x="484" y="362" on="0"/>
        <pt x="471" y="334" on="0"/>
        <pt x="462" y="319" on="1"/>
        <pt x="454" y="306" on="0"/>
        <pt x="424" y="266" on="0"/>
        <pt x="396" y="223" on="0"/>
        <pt x="375" y="181" on="0"/>
        <pt x="375" y="166" on="1"/>
        <pt x="375" y="148" on="0"/>
        <pt x="414" y="118" on="0"/>
        <pt x="467" y="95" on="0"/>
        <pt x="522" y="79" on="0"/>
        <pt x="538" y="76" on="1"/>
        <pt x="542" y="74" on="0"/>
        <pt x="560" y="72" on="0"/>
        <pt x="580" y="70" on="0"/>
        <pt x="597" y="69" on="0"/>
        <pt x="600" y="69" on="1"/>
        <pt x="609" y="61" on="0"/>
        <pt x="630" y="39" on="0"/>
        <pt x="630" y="25" on="1"/>
        <pt x="630" y="17" on="0"/>
        <pt x="614" y="0" on="0"/>
        <pt x="605" y="0" on="1"/>
        <pt x="400" y="0" on="1"/>
        <pt x="385" y="8" on="0"/>
        <pt x="353" y="12" on="0"/>
        <pt x="336" y="12" on="1"/>
        <pt x="282" y="12" on="1"/>
        <pt x="280" y="12" on="0"/>
        <pt x="268" y="14" on="0"/>
        <pt x="253" y="16" on="0"/>
        <pt x="241" y="18" on="0"/>
        <pt x="239" y="18" on="1"/>
        <pt x="237" y="18" on="0"/>
        <pt x="222" y="12" on="0"/>
        <pt x="220" y="12" on="1"/>
        <pt x="201" y="9" on="0"/>
        <pt x="162" y="7" on="0"/>
        <pt x="143" y="7" on="1"/>
        <pt x="126" y="7" on="1"/>
        <pt x="126" y="7" on="0"/>
        <pt x="119" y="9" on="0"/>
        <pt x="110" y="10" on="0"/>
        <pt x="102" y="12" on="0"/>
        <pt x="101" y="12" on="1"/>
        <pt x="99" y="12" on="0"/>
        <pt x="84" y="7" on="0"/>
        <pt x="83" y="7" on="1"/>
        <pt x="66" y="7" on="1"/>
        <pt x="47" y="7" on="0"/>
        <pt x="14" y="12" on="0"/>
        <pt x="-6" y="12" on="1"/>
        <pt x="-23" y="12" on="1"/>
        <pt x="-27" y="14" on="0"/>
        <pt x="-40" y="28" on="0"/>
        <pt x="-42" y="32" on="1"/>
        <pt x="-42" y="40" on="1"/>
        <pt x="-42" y="54" on="0"/>
        <pt x="-27" y="73" on="0"/>
        <pt x="-4" y="85" on="0"/>
        <pt x="21" y="92" on="0"/>
        <pt x="32" y="94" on="1"/>
        <pt x="35" y="94" on="0"/>
        <pt x="56" y="95" on="0"/>
        <pt x="82" y="97" on="0"/>
        <pt x="105" y="99" on="0"/>
        <pt x="108" y="101" on="1"/>
        <pt x="144" y="108" on="0"/>
        <pt x="206" y="151" on="0"/>
        <pt x="260" y="213" on="0"/>
        <pt x="305" y="288" on="0"/>
        <pt x="346" y="363" on="0"/>
        <pt x="382" y="433" on="0"/>
        <pt x="400" y="460" on="1"/>
        <pt x="401" y="462" on="0"/>
        <pt x="410" y="473" on="0"/>
        <pt x="421" y="485" on="0"/>
        <pt x="430" y="496" on="0"/>
        <pt x="430" y="497" on="1"/>
        <pt x="433" y="500" on="0"/>
        <pt x="444" y="515" on="0"/>
        <pt x="444" y="517" on="1"/>
        <pt x="445" y="518" on="0"/>
        <pt x="462" y="534" on="0"/>
        <pt x="462" y="536" on="1"/>
        <pt x="463" y="537" on="0"/>
        <pt x="465" y="544" on="0"/>
        <pt x="467" y="552" on="0"/>
        <pt x="469" y="560" on="0"/>
        <pt x="469" y="561" on="1"/>
        <pt x="471" y="563" on="0"/>
        <pt x="487" y="577" on="0"/>
        <pt x="487" y="580" on="1"/>
        <pt x="488" y="581" on="0"/>
        <pt x="493" y="592" on="0"/>
        <pt x="500" y="604" on="0"/>
        <pt x="505" y="615" on="0"/>
        <pt x="506" y="617" on="1"/>
        <pt x="507" y="619" on="0"/>
        <pt x="514" y="630" on="0"/>
        <pt x="523" y="642" on="0"/>
        <pt x="530" y="652" on="0"/>
        <pt x="531" y="654" on="1"/>
        <pt x="535" y="661" on="0"/>
        <pt x="538" y="675" on="0"/>
        <pt x="538" y="688" on="0"/>
        <pt x="539" y="703" on="0"/>
        <pt x="543" y="711" on="1"/>
        <pt x="547" y="718" on="0"/>
        <pt x="562" y="739" on="0"/>
        <pt x="582" y="759" on="0"/>
        <pt x="603" y="773" on="0"/>
        <pt x="612" y="773" on="1"/>
        <pt x="612" y="776" on="0"/>
        <pt x="614" y="786" on="0"/>
        <pt x="616" y="798" on="0"/>
        <pt x="618" y="808" on="0"/>
        <pt x="618" y="810" on="1"/>
        <pt x="618" y="812" on="0"/>
        <pt x="625" y="822" on="0"/>
        <pt x="625" y="823" on="1"/>
        <pt x="626" y="824" on="0"/>
        <pt x="627" y="832" on="0"/>
        <pt x="629" y="843" on="0"/>
        <pt x="630" y="852" on="0"/>
        <pt x="630" y="853" on="1"/>
        <pt x="631" y="855" on="0"/>
        <pt x="641" y="866" on="0"/>
        <pt x="652" y="879" on="0"/>
        <pt x="661" y="890" on="0"/>
        <pt x="662" y="892" on="1"/>
        <pt x="668" y="899" on="0"/>
        <pt x="687" y="927" on="0"/>
        <pt x="706" y="959" on="0"/>
        <pt x="721" y="989" on="0"/>
        <pt x="724" y="998" on="1"/>
        <pt x="725" y="999" on="0"/>
        <pt x="727" y="1010" on="0"/>
        <pt x="728" y="1023" on="0"/>
        <pt x="730" y="1034" on="0"/>
        <pt x="731" y="1035" on="1"/>
        <pt x="744" y="1065" on="0"/>
        <pt x="782" y="1113" on="0"/>
        <pt x="800" y="1139" on="1"/>
        <pt x="801" y="1141" on="0"/>
        <pt x="806" y="1152" on="0"/>
        <pt x="812" y="1165" on="0"/>
        <pt x="818" y="1176" on="0"/>
        <pt x="818" y="1178" on="1"/>
        <pt x="819" y="1179" on="0"/>
        <pt x="825" y="1187" on="0"/>
        <pt x="833" y="1196" on="0"/>
        <pt x="841" y="1205" on="0"/>
        <pt x="844" y="1208" on="1"/>
        <pt x="845" y="1212" on="0"/>
        <pt x="866" y="1231" on="0"/>
        <pt x="869" y="1233" on="1"/>
        <pt x="873" y="1239" on="0"/>
        <pt x="894" y="1276" on="0"/>
        <pt x="915" y="1319" on="0"/>
        <pt x="931" y="1359" on="0"/>
        <pt x="931" y="1369" on="1"/>
        <pt x="931" y="1392" on="0"/>
        <pt x="894" y="1403" on="0"/>
        <pt x="869" y="1403" on="1"/>
        <pt x="844" y="1403" on="1"/>
        <pt x="817" y="1403" on="0"/>
        <pt x="775" y="1415" on="0"/>
        <pt x="775" y="1441" on="1"/>
        <pt x="775" y="1452" on="0"/>
        <pt x="787" y="1466" on="0"/>
        <pt x="793" y="1470" on="1"/>
        <pt x="797" y="1471" on="0"/>
        <pt x="822" y="1474" on="0"/>
        <pt x="849" y="1476" on="0"/>
        <pt x="875" y="1477" on="0"/>
        <pt x="881" y="1477" on="1"/>
        <pt x="897" y="1477" on="1"/>
        <pt x="917" y="1477" on="0"/>
        <pt x="955" y="1465" on="0"/>
        <pt x="975" y="1465" on="1"/>
        <pt x="977" y="1465" on="0"/>
        <pt x="997" y="1467" on="0"/>
        <pt x="1020" y="1468" on="0"/>
        <pt x="1041" y="1470" on="0"/>
        <pt x="1044" y="1470" on="1"/>
        <pt x="1045" y="1470" on="1"/>
        <pt x="1050" y="1470" on="1"/>
        <pt x="1051" y="1470" on="0"/>
        <pt x="1069" y="1468" on="0"/>
        <pt x="1090" y="1467" on="0"/>
        <pt x="1108" y="1465" on="0"/>
        <pt x="1111" y="1465" on="1"/>
        <pt x="1148" y="1465" on="1"/>
        <pt x="1149" y="1465" on="0"/>
        <pt x="1158" y="1463" on="0"/>
        <pt x="1169" y="1460" on="0"/>
        <pt x="1177" y="1458" on="0"/>
        <pt x="1178" y="1458" on="1"/>
        <pt x="1181" y="1458" on="0"/>
        <pt x="1186" y="1461" on="1"/>
        <pt x="1189" y="1463" on="0"/>
        <pt x="1191" y="1465" on="1"/>
        <pt x="1224" y="1473" on="0"/>
        <pt x="1293" y="1477" on="0"/>
        <pt x="1326" y="1477" on="1"/>
        <pt x="1336" y="1477" on="0"/>
        <pt x="1354" y="1470" on="0"/>
        <pt x="1364" y="1470" on="1"/>
        <pt x="1366" y="1470" on="1"/>
        <pt x="1367" y="1470" on="0"/>
        <pt x="1374" y="1474" on="0"/>
        <pt x="1383" y="1479" on="0"/>
        <pt x="1391" y="1483" on="0"/>
        <pt x="1391" y="1483" on="1"/>
        <pt x="1435" y="1483" on="1"/>
        <pt x="1437" y="1483" on="0"/>
        <pt x="1445" y="1488" on="0"/>
        <pt x="1447" y="1490" on="1"/>
        <pt x="1573" y="1490" on="1"/>
        <pt x="1584" y="1483" on="1"/>
        <pt x="1722" y="1483" on="1"/>
        <pt x="1740" y="1475" on="0"/>
        <pt x="1778" y="1474" on="0"/>
        <pt x="1794" y="1470" on="1"/>
        <pt x="1796" y="1470" on="0"/>
        <pt x="1800" y="1468" on="0"/>
        <pt x="1802" y="1467" on="1"/>
        <pt x="1808" y="1465" on="1"/>
        <pt x="1820" y="1465" on="1"/>
        <pt x="1844" y="1465" on="0"/>
        <pt x="1888" y="1477" on="0"/>
        <pt x="1912" y="1477" on="1"/>
        <pt x="1941" y="1477" on="0"/>
        <pt x="1972" y="1452" on="0"/>
        <pt x="1989" y="1426" on="1"/>
        <pt x="1989" y="1389" on="1"/>
        <pt x="1989" y="1361" on="0"/>
        <pt x="1983" y="1310" on="0"/>
        <pt x="1983" y="1282" on="1"/>
        <pt x="1983" y="1233" on="1"/>
        <pt x="1991" y="1218" on="0"/>
        <pt x="1996" y="1182" on="0"/>
        <pt x="1996" y="1164" on="1"/>
        <pt x="1996" y="1159" on="0"/>
        <pt x="1993" y="1145" on="0"/>
        <pt x="1988" y="1131" on="0"/>
        <pt x="1980" y="1121" on="0"/>
        <pt x="1974" y="1121" on="1"/>
        <pt x="1971" y="1121" on="1"/>
        <pt x="1950" y="1128" on="0"/>
        <pt x="1917" y="1158" on="0"/>
        <pt x="1892" y="1197" on="0"/>
        <pt x="1875" y="1239" on="0"/>
        <pt x="1870" y="1258" on="1"/>
        <pt x="1870" y="1259" on="0"/>
        <pt x="1869" y="1269" on="0"/>
        <pt x="1867" y="1280" on="0"/>
        <pt x="1864" y="1289" on="0"/>
        <pt x="1863" y="1290" on="1"/>
        <pt x="1863" y="1292" on="0"/>
        <pt x="1860" y="1300" on="0"/>
        <pt x="1858" y="1302" on="1"/>
        <pt x="1838" y="1330" on="0"/>
        <pt x="1801" y="1363" on="0"/>
        <pt x="1773" y="1383" on="1"/>
        <pt x="1771" y="1385" on="0"/>
        <pt x="1765" y="1387" on="1"/>
        <pt x="1759" y="1389" on="1"/>
        <pt x="1719" y="1401" on="0"/>
        <pt x="1643" y="1416" on="0"/>
        <pt x="1567" y="1423" on="0"/>
        <pt x="1489" y="1426" on="0"/>
        <pt x="1447" y="1426" on="1"/>
        <pt x="1385" y="1426" on="1"/>
        <pt x="1382" y="1426" on="0"/>
        <pt x="1361" y="1422" on="0"/>
        <pt x="1338" y="1416" on="0"/>
        <pt x="1316" y="1410" on="0"/>
        <pt x="1311" y="1408" on="1"/>
        <pt x="1302" y="1405" on="0"/>
        <pt x="1287" y="1393" on="0"/>
        <pt x="1285" y="1383" on="1"/>
        <pt x="1285" y="1379" on="0"/>
        <pt x="1287" y="1360" on="0"/>
        <pt x="1287" y="1349" on="1"/>
        <pt x="1287" y="1338" on="0"/>
        <pt x="1285" y="1318" on="0"/>
        <pt x="1285" y="1314" on="1"/>
        <pt x="1284" y="1305" on="0"/>
        <pt x="1280" y="1295" on="0"/>
        <pt x="1275" y="1287" on="0"/>
        <pt x="1272" y="1277" on="0"/>
        <pt x="1272" y="1268" on="1"/>
        <pt x="1272" y="1252" on="0"/>
        <pt x="1279" y="1217" on="0"/>
        <pt x="1279" y="1200" on="1"/>
        <pt x="1279" y="1177" on="0"/>
        <pt x="1272" y="1132" on="0"/>
        <pt x="1272" y="1109" on="1"/>
        <pt x="1272" y="1091" on="0"/>
        <pt x="1279" y="1070" on="0"/>
        <pt x="1279" y="1053" on="1"/>
        <pt x="1279" y="1037" on="0"/>
        <pt x="1272" y="1005" on="0"/>
        <pt x="1272" y="988" on="1"/>
        <pt x="1272" y="977" on="0"/>
        <pt x="1279" y="960" on="0"/>
        <pt x="1279" y="949" on="1"/>
        <pt x="1279" y="926" on="0"/>
        <pt x="1267" y="877" on="0"/>
        <pt x="1267" y="853" on="1"/>
        <pt x="1267" y="849" on="0"/>
        <pt x="1270" y="817" on="0"/>
        <pt x="1275" y="782" on="0"/>
        <pt x="1282" y="754" on="0"/>
        <pt x="1287" y="754" on="1"/>
        <pt x="1301" y="754" on="0"/>
        <pt x="1328" y="761" on="0"/>
        <pt x="1341" y="761" on="1"/>
        <pt x="1360" y="761" on="0"/>
        <pt x="1391" y="748" on="0"/>
        <pt x="1410" y="748" on="1"/>
        <pt x="1450" y="748" on="0"/>
        <pt x="1485" y="763" on="1"/>
        <pt x="1635" y="763" on="1"/>
        <pt x="1638" y="763" on="0"/>
        <pt x="1646" y="782" on="0"/>
        <pt x="1653" y="806" on="0"/>
        <pt x="1659" y="827" on="0"/>
        <pt x="1660" y="830" on="1"/>
        <pt x="1660" y="831" on="0"/>
        <pt x="1661" y="845" on="0"/>
        <pt x="1663" y="862" on="0"/>
        <pt x="1665" y="877" on="0"/>
        <pt x="1667" y="879" on="1"/>
        <pt x="1668" y="881" on="0"/>
        <pt x="1669" y="884" on="1"/>
        <pt x="1670" y="886" on="0"/>
        <pt x="1671" y="890" on="0"/>
        <pt x="1672" y="892" on="1"/>
        <pt x="1673" y="893" on="0"/>
        <pt x="1679" y="901" on="0"/>
        <pt x="1685" y="912" on="0"/>
        <pt x="1690" y="921" on="0"/>
        <pt x="1690" y="922" on="1"/>
        <pt x="1690" y="926" on="1"/>
        <pt x="1690" y="934" on="0"/>
        <pt x="1684" y="947" on="0"/>
        <pt x="1684" y="958" on="1"/>
        <pt x="1684" y="975" on="0"/>
        <pt x="1700" y="1005" on="0"/>
        <pt x="1719" y="1005" on="1"/>
        <pt x="1749" y="1005" on="0"/>
        <pt x="1774" y="971" on="0"/>
        <pt x="1783" y="948" on="1"/>
        <pt x="1784" y="948" on="0"/>
        <pt x="1784" y="944" on="1"/>
        <pt x="1784" y="912" on="0"/>
        <pt x="1771" y="851" on="0"/>
        <pt x="1771" y="818" on="1"/>
        <pt x="1771" y="788" on="0"/>
        <pt x="1779" y="728" on="0"/>
        <pt x="1779" y="696" on="1"/>
        <pt x="1779" y="661" on="0"/>
        <pt x="1771" y="595" on="0"/>
        <pt x="1771" y="561" on="1"/>
        <pt x="1771" y="529" on="0"/>
        <pt x="1784" y="469" on="0"/>
        <pt x="1784" y="437" on="1"/>
        <pt x="1784" y="428" on="0"/>
        <pt x="1781" y="411" on="0"/>
        <pt x="1773" y="405" on="1"/>
        <pt x="1747" y="405" on="1"/>
        <pt x="1711" y="405" on="0"/>
        <pt x="1686" y="434" on="0"/>
        <pt x="1679" y="467" on="1"/>
        <pt x="1678" y="468" on="0"/>
        <pt x="1676" y="478" on="0"/>
        <pt x="1674" y="490" on="0"/>
        <pt x="1672" y="501" on="0"/>
        <pt x="1672" y="504" on="1"/>
        <pt x="1672" y="512" on="1"/>
        <pt x="1672" y="520" on="0"/>
        <pt x="1685" y="532" on="0"/>
        <pt x="1685" y="541" on="1"/>
        <pt x="1685" y="548" on="1"/>
        <pt x="1684" y="549" on="0"/>
        <pt x="1672" y="564" on="0"/>
        <pt x="1672" y="566" on="1"/>
        <pt x="1667" y="579" on="0"/>
        <pt x="1663" y="606" on="0"/>
        <pt x="1656" y="631" on="0"/>
        <pt x="1645" y="656" on="0"/>
        <pt x="1635" y="667" on="1"/>
        <pt x="1575" y="665" on="0"/>
        <pt x="1463" y="674" on="0"/>
        <pt x="1406" y="674" on="1"/>
        <pt x="1329" y="674" on="1"/>
        <pt x="1319" y="674" on="0"/>
        <pt x="1280" y="666" on="0"/>
        <pt x="1272" y="654" on="1"/>
        <pt x="1272" y="651" on="0"/>
        <pt x="1271" y="633" on="0"/>
        <pt x="1269" y="613" on="0"/>
        <pt x="1268" y="595" on="0"/>
        <pt x="1267" y="591" on="1"/>
        <pt x="1265" y="589" on="0"/>
        <pt x="1263" y="586" on="1"/>
        <pt x="1261" y="582" on="0"/>
        <pt x="1261" y="582" on="1"/>
        <pt x="1260" y="581" on="0"/>
        <pt x="1260" y="580" on="1"/>
        <pt x="1260" y="576" on="1"/>
        <pt x="1260" y="537" on="0"/>
        <pt x="1267" y="459" on="0"/>
        <pt x="1267" y="420" on="1"/>
        <pt x="1267" y="331" on="1"/>
        <pt x="1261" y="311" on="0"/>
        <pt x="1261" y="267" on="0"/>
        <pt x="1258" y="224" on="0"/>
        <pt x="1246" y="184" on="0"/>
        <pt x="1228" y="168" on="1"/>
        <pt x="1236" y="166" on="0"/>
        <pt x="1247" y="158" on="0"/>
        <pt x="1247" y="150" on="1"/>
        <pt x="1247" y="141" on="0"/>
        <pt x="1242" y="125" on="0"/>
        <pt x="1242" y="114" on="1"/>
        <pt x="1242" y="92" on="0"/>
        <pt x="1260" y="73" on="0"/>
        <pt x="1287" y="64" on="0"/>
        <pt x="1317" y="58" on="0"/>
        <pt x="1329" y="50" on="1"/>
        <pt x="1385" y="50" on="1"/>
        <pt x="1430" y="50" on="0"/>
        <pt x="1521" y="48" on="0"/>
        <pt x="1566" y="44" on="1"/>
        <pt x="1568" y="44" on="0"/>
        <pt x="1590" y="37" on="0"/>
        <pt x="1591" y="37" on="1"/>
        <pt x="1593" y="37" on="0"/>
        <pt x="1608" y="44" on="0"/>
        <pt x="1610" y="44" on="1"/>
        <pt x="1644" y="48" on="0"/>
        <pt x="1717" y="50" on="0"/>
        <pt x="1754" y="50" on="1"/>
        <pt x="1794" y="50" on="1"/>
        <pt x="1801" y="45" on="0"/>
        <pt x="1810" y="44" on="0"/>
        <pt x="1816" y="44" on="1"/>
        <pt x="1820" y="44" on="1"/>
        <pt x="1824" y="44" on="0"/>
        <pt x="1843" y="55" on="0"/>
        <pt x="1845" y="55" on="1"/>
        <pt x="1870" y="55" on="1"/>
        <pt x="1896" y="63" on="0"/>
        <pt x="1928" y="85" on="0"/>
        <pt x="1950" y="112" on="0"/>
        <pt x="1969" y="145" on="0"/>
        <pt x="1983" y="163" on="1"/>
        <pt x="1983" y="164" on="0"/>
        <pt x="1991" y="172" on="0"/>
        <pt x="2000" y="183" on="0"/>
        <pt x="2007" y="192" on="0"/>
        <pt x="2008" y="193" on="1"/>
        <pt x="2010" y="196" on="0"/>
        <pt x="2015" y="210" on="0"/>
        <pt x="2015" y="212" on="1"/>
        <pt x="2021" y="220" on="0"/>
        <pt x="2042" y="238" on="0"/>
        <pt x="2045" y="250" on="1"/>
        <pt x="2046" y="251" on="0"/>
        <pt x="2049" y="264" on="0"/>
        <pt x="2051" y="279" on="0"/>
        <pt x="2052" y="292" on="0"/>
        <pt x="2052" y="294" on="1"/>
        <pt x="2053" y="300" on="0"/>
        <pt x="2065" y="318" on="0"/>
        <pt x="2082" y="333" on="0"/>
        <pt x="2100" y="344" on="0"/>
        <pt x="2107" y="344" on="1"/>
        <pt x="2113" y="344" on="0"/>
        <pt x="2130" y="328" on="0"/>
        <pt x="2132" y="324" on="1"/>
        <pt x="2132" y="319" on="0"/>
        <pt x="2134" y="296" on="0"/>
        <pt x="2137" y="270" on="0"/>
        <pt x="2139" y="248" on="0"/>
        <pt x="2139" y="244" on="1"/>
        <pt x="2139" y="240" on="1"/>
        <pt x="2139" y="237" on="1"/>
        <pt x="2139" y="235" on="0"/>
        <pt x="2129" y="220" on="0"/>
        <pt x="2127" y="218" on="1"/>
        <pt x="2124" y="215" on="0"/>
        <pt x="2122" y="211" on="1"/>
        <pt x="2120" y="207" on="1"/>
        <pt x="2107" y="25" on="1"/>
        <pt x="2107" y="14" on="0"/>
        <pt x="2085" y="-3" on="0"/>
        <pt x="2077" y="-7" on="1"/>
        <pt x="1976" y="-7" on="1"/>
        <pt x="1975" y="-7" on="0"/>
        <pt x="1964" y="-9" on="0"/>
        <pt x="1952" y="-10" on="0"/>
        <pt x="1941" y="-12" on="0"/>
        <pt x="1939" y="-12" on="1"/>
        <pt x="1820" y="-12" on="1"/>
        <pt x="1818" y="-12" on="0"/>
        <pt x="1804" y="-14" on="0"/>
        <pt x="1788" y="-16" on="0"/>
        <pt x="1774" y="-18" on="0"/>
        <pt x="1773" y="-18" on="1"/>
        <pt x="1694" y="-18" on="1"/>
        <pt x="1616" y="-18" on="1"/>
        <pt x="1611" y="-17" on="0"/>
        <pt x="1583" y="-7" on="0"/>
      </contour>
    </TTGlyph>
    <TTGlyph name="Aacute" xMin="-35" yMin="-12" xMax="1267" yMax="1904">
      <component glyphName="A" x="0" y="0" flags="0x204"/>
      <component glyphName="Acute" x="339" y="-19" flags="0x4"/>
    </TTGlyph>
    <TTGlyph name="Abreve" xMin="-35" yMin="-12" xMax="1267" yMax="1849">
      <component glyphName="A" x="0" y="0" flags="0x204"/>
      <component glyphName="Breve" x="270" y="-71" flags="0x4"/>
    </TTGlyph>
    <TTGlyph name="Acircumflex" xMin="-35" yMin="-12" xMax="1267" yMax="1901">
      <component glyphName="A" x="0" y="0" flags="0x204"/>
      <component glyphName="Circumflex" x="213" y="-19" flags="0x4"/>
    </TTGlyph>
    <TTGlyph name="Acute" xMin="305" yMin="1542" xMax="796" yMax="1923">
      <contour>
        <pt x="308" y="1583" on="1"/>
        <pt x="312" y="1599" on="0"/>
        <pt x="333" y="1628" on="0"/>
        <pt x="359" y="1653" on="0"/>
        <pt x="388" y="1674" on="0"/>
        <pt x="402" y="1684" on="1"/>
        <pt x="404" y="1686" on="0"/>
        <pt x="406" y="1686" on="0"/>
        <pt x="407" y="1688" on="1"/>
        <pt x="458" y="1724" on="0"/>
        <pt x="548" y="1798" on="0"/>
        <pt x="596" y="1834" on="1"/>
        <pt x="611" y="1845" on="0"/>
        <pt x="645" y="1878" on="0"/>
        <pt x="681" y="1907" on="0"/>
        <pt x="719" y="1923" on="0"/>
        <pt x="739" y="1917" on="1"/>
        <pt x="762" y="1910" on="0"/>
        <pt x="796" y="1862" on="0"/>
        <pt x="796" y="1836" on="1"/>
        <pt x="796" y="1831" on="0"/>
        <pt x="794" y="1821" on="1"/>
        <pt x="789" y="1803" on="0"/>
        <pt x="770" y="1783" on="0"/>
        <pt x="746" y="1769" on="0"/>
        <pt x="718" y="1756" on="0"/>
        <pt x="703" y="1747" on="1"/>
        <pt x="701" y="1746" on="0"/>
        <pt x="687" y="1737" on="0"/>
        <pt x="671" y="1727" on="0"/>
        <pt x="656" y="1718" on="0"/>
        <pt x="655" y="1717" on="1"/>
        <pt x="650" y="1714" on="0"/>
        <pt x="621" y="1698" on="0"/>
        <pt x="589" y="1680" on="0"/>
        <pt x="560" y="1664" on="0"/>
        <pt x="555" y="1661" on="1"/>
        <pt x="550" y="1651" on="0"/>
        <pt x="517" y="1638" on="0"/>
        <pt x="478" y="1623" on="0"/>
        <pt x="442" y="1604" on="0"/>
        <pt x="435" y="1588" on="1"/>
        <pt x="430" y="1586" on="0"/>
        <pt x="404" y="1573" on="0"/>
        <pt x="376" y="1559" on="0"/>
        <pt x="351" y="1547" on="0"/>
        <pt x="346" y="1544" on="1"/>
        <pt x="341" y="1542" on="0"/>
        <pt x="334" y="1542" on="1"/>
        <pt x="330" y="1542" on="0"/>
        <pt x="324" y="1543" on="0"/>
        <pt x="320" y="1544" on="1"/>
        <pt x="312" y="1546" on="0"/>
        <pt x="305" y="1560" on="0"/>
        <pt x="305" y="1568" on="1"/>
        <pt x="305" y="1575" on="0"/>
      </contour>
    </TTGlyph>
    <TTGlyph name="Adieresis" xMin="-35" yMin="-12" xMax="1267" yMax="1834">
      <component glyphName="A" x="0" y="0" flags="0x204"/>
      <component glyphName="Dieresis" x="150" y="0" flags="0x4"/>
    </TTGlyph>
    <TTGlyph name="Agrave" xMin="-35" yMin="-12" xMax="1267" yMax="1901">
      <component glyphName="A" x="0" y="0" flags="0x204"/>
      <component glyphName="Grave" x="145" y="-19" flags="0x4"/>
    </TTGlyph>
    <TTGlyph name="Amacron" xMin="-35" yMin="-12" xMax="1267" yMax="1734">
      <component glyphName="A" x="0" y="0" flags="0x204"/>
      <component glyphName="Macron" x="209" y="-29" flags="0x4"/>
    </TTGlyph>
    <TTGlyph name="Aogonek" xMin="-35" yMin="-482" xMax="1312" yMax="1458">
      <contour>
        <pt x="-35" y="22" on="1"/>
        <pt x="-35" y="30" on="0"/>
        <pt x="-23" y="48" on="0"/>
        <pt x="-17" y="52" on="1"/>
        <pt x="-15" y="52" on="0"/>
        <pt x="11" y="55" on="0"/>
        <pt x="15" y="57" on="1"/>
        <pt x="39" y="64" on="0"/>
        <pt x="79" y="85" on="0"/>
        <pt x="101" y="96" on="1"/>
        <pt x="123" y="105" on="0"/>
        <pt x="155" y="115" on="0"/>
        <pt x="180" y="129" on="0"/>
        <pt x="203" y="153" on="0"/>
        <pt x="215" y="175" on="1"/>
        <pt x="222" y="188" on="0"/>
        <pt x="225" y="228" on="0"/>
        <pt x="227" y="239" on="1"/>
        <pt x="227" y="240" on="0"/>
        <pt x="234" y="249" on="0"/>
        <pt x="234" y="250" on="1"/>
        <pt x="235" y="254" on="0"/>
        <pt x="240" y="268" on="0"/>
        <pt x="240" y="270" on="1"/>
        <pt x="240" y="271" on="0"/>
        <pt x="241" y="283" on="0"/>
        <pt x="243" y="295" on="0"/>
        <pt x="245" y="306" on="0"/>
        <pt x="245" y="307" on="1"/>
        <pt x="246" y="309" on="0"/>
        <pt x="248" y="312" on="1"/>
        <pt x="249" y="314" on="0"/>
        <pt x="251" y="319" on="0"/>
        <pt x="252" y="321" on="1"/>
        <pt x="258" y="331" on="0"/>
        <pt x="273" y="363" on="0"/>
        <pt x="287" y="399" on="0"/>
        <pt x="299" y="432" on="0"/>
        <pt x="302" y="444" on="1"/>
        <pt x="309" y="474" on="0"/>
        <pt x="332" y="534" on="0"/>
        <pt x="341" y="564" on="1"/>
        <pt x="345" y="584" on="0"/>
        <pt x="353" y="630" on="0"/>
        <pt x="358" y="650" on="1"/>
        <pt x="360" y="653" on="0"/>
        <pt x="368" y="678" on="0"/>
        <pt x="370" y="682" on="1"/>
        <pt x="371" y="684" on="0"/>
        <pt x="383" y="699" on="0"/>
        <pt x="383" y="701" on="1"/>
        <pt x="384" y="702" on="0"/>
        <pt x="385" y="711" on="0"/>
        <pt x="387" y="722" on="0"/>
        <pt x="388" y="731" on="0"/>
        <pt x="388" y="732" on="1"/>
        <pt x="390" y="736" on="0"/>
        <pt x="395" y="753" on="0"/>
        <pt x="399" y="769" on="0"/>
        <pt x="402" y="782" on="0"/>
        <pt x="402" y="783" on="1"/>
        <pt x="402" y="784" on="0"/>
        <pt x="408" y="797" on="0"/>
        <pt x="414" y="812" on="0"/>
        <pt x="419" y="825" on="0"/>
        <pt x="420" y="827" on="1"/>
        <pt x="422" y="829" on="0"/>
        <pt x="430" y="851" on="0"/>
        <pt x="438" y="876" on="0"/>
        <pt x="445" y="899" on="0"/>
        <pt x="445" y="902" on="1"/>
        <pt x="449" y="912" on="0"/>
        <pt x="458" y="944" on="0"/>
        <pt x="470" y="977" on="0"/>
        <pt x="486" y="1006" on="0"/>
        <pt x="496" y="1013" on="1"/>
        <pt x="500" y="1038" on="0"/>
        <pt x="518" y="1083" on="0"/>
        <pt x="538" y="1126" on="0"/>
        <pt x="553" y="1171" on="0"/>
        <pt x="553" y="1196" on="1"/>
        <pt x="553" y="1217" on="0"/>
        <pt x="540" y="1241" on="0"/>
        <pt x="525" y="1256" on="0"/>
        <pt x="512" y="1270" on="0"/>
        <pt x="512" y="1282" on="1"/>
        <pt x="512" y="1284" on="0"/>
        <pt x="514" y="1293" on="0"/>
        <pt x="514" y="1295" on="1"/>
        <pt x="528" y="1303" on="0"/>
        <pt x="564" y="1315" on="0"/>
        <pt x="599" y="1330" on="0"/>
        <pt x="627" y="1353" on="0"/>
        <pt x="632" y="1371" on="1"/>
        <pt x="633" y="1373" on="0"/>
        <pt x="639" y="1391" on="0"/>
        <pt x="645" y="1411" on="0"/>
        <pt x="651" y="1429" on="0"/>
        <pt x="652" y="1431" on="1"/>
        <pt x="654" y="1440" on="0"/>
        <pt x="667" y="1458" on="0"/>
        <pt x="677" y="1458" on="1"/>
        <pt x="678" y="1458" on="0"/>
        <pt x="679" y="1457" on="0"/>
        <pt x="680" y="1457" on="1"/>
        <pt x="682" y="1457" on="1"/>
        <pt x="685" y="1455" on="0"/>
        <pt x="694" y="1446" on="0"/>
        <pt x="705" y="1436" on="0"/>
        <pt x="713" y="1427" on="0"/>
        <pt x="714" y="1425" on="1"/>
        <pt x="716" y="1425" on="0"/>
        <pt x="721" y="1412" on="0"/>
        <pt x="721" y="1408" on="1"/>
        <pt x="721" y="1404" on="0"/>
        <pt x="727" y="1378" on="0"/>
        <pt x="733" y="1349" on="0"/>
        <pt x="739" y="1323" on="0"/>
        <pt x="739" y="1320" on="1"/>
        <pt x="740" y="1316" on="0"/>
        <pt x="750" y="1286" on="0"/>
        <pt x="761" y="1253" on="0"/>
        <pt x="771" y="1224" on="0"/>
        <pt x="771" y="1220" on="1"/>
        <pt x="780" y="1188" on="0"/>
        <pt x="798" y="1114" on="0"/>
        <pt x="808" y="1082" on="1"/>
        <pt x="808" y="1081" on="0"/>
        <pt x="813" y="1070" on="0"/>
        <pt x="820" y="1057" on="0"/>
        <pt x="827" y="1046" on="0"/>
        <pt x="828" y="1045" on="1"/>
        <pt x="836" y="1026" on="0"/>
        <pt x="839" y="983" on="0"/>
        <pt x="847" y="963" on="1"/>
        <pt x="867" y="900" on="0"/>
        <pt x="909" y="782" on="0"/>
        <pt x="926" y="719" on="1"/>
        <pt x="927" y="716" on="0"/>
        <pt x="931" y="698" on="0"/>
        <pt x="935" y="677" on="0"/>
        <pt x="939" y="659" on="0"/>
        <pt x="939" y="657" on="1"/>
        <pt x="940" y="655" on="0"/>
        <pt x="946" y="642" on="0"/>
        <pt x="953" y="628" on="0"/>
        <pt x="958" y="616" on="0"/>
        <pt x="958" y="615" on="1"/>
        <pt x="958" y="613" on="0"/>
        <pt x="960" y="600" on="0"/>
        <pt x="962" y="585" on="0"/>
        <pt x="964" y="572" on="0"/>
        <pt x="964" y="570" on="1"/>
        <pt x="965" y="566" on="0"/>
        <pt x="972" y="538" on="0"/>
        <pt x="981" y="507" on="0"/>
        <pt x="989" y="479" on="0"/>
        <pt x="990" y="475" on="1"/>
        <pt x="1001" y="435" on="0"/>
        <pt x="1030" y="357" on="0"/>
        <pt x="1040" y="314" on="1"/>
        <pt x="1048" y="276" on="0"/>
        <pt x="1063" y="205" on="0"/>
        <pt x="1077" y="170" on="1"/>
        <pt x="1083" y="155" on="0"/>
        <pt x="1093" y="120" on="0"/>
        <pt x="1102" y="108" on="1"/>
        <pt x="1113" y="91" on="0"/>
        <pt x="1148" y="70" on="0"/>
        <pt x="1187" y="58" on="0"/>
        <pt x="1228" y="53" on="0"/>
        <pt x="1245" y="52" on="1"/>
        <pt x="1260" y="47" on="0"/>
        <pt x="1267" y="26" on="0"/>
        <pt x="1267" y="13" on="1"/>
        <pt x="1267" y="12" on="0"/>
        <pt x="1266" y="9" on="0"/>
        <pt x="1266" y="7" on="1"/>
        <pt x="1265" y="4" on="0"/>
        <pt x="1265" y="2" on="1"/>
        <pt x="1252" y="-5" on="1"/>
        <pt x="1176" y="-5" on="1"/>
        <pt x="1174" y="-5" on="0"/>
        <pt x="1159" y="2" on="0"/>
        <pt x="1158" y="2" on="1"/>
        <pt x="1153" y="2" on="1"/>
        <pt x="1137" y="2" on="0"/>
        <pt x="1109" y="-5" on="0"/>
        <pt x="1092" y="-5" on="1"/>
        <pt x="1085" y="-5" on="0"/>
        <pt x="1072" y="-4" on="0"/>
        <pt x="1065" y="-3" on="1"/>
        <pt x="1049" y="-43" on="0"/>
        <pt x="1019" y="-129" on="0"/>
        <pt x="1019" y="-171" on="1"/>
        <pt x="1019" y="-179" on="0"/>
        <pt x="1022" y="-200" on="0"/>
        <pt x="1026" y="-223" on="0"/>
        <pt x="1030" y="-245" on="0"/>
        <pt x="1031" y="-252" on="1"/>
        <pt x="1033" y="-267" on="0"/>
        <pt x="1040" y="-287" on="0"/>
        <pt x="1052" y="-298" on="1"/>
        <pt x="1065" y="-308" on="0"/>
        <pt x="1088" y="-325" on="0"/>
        <pt x="1099" y="-336" on="1"/>
        <pt x="1100" y="-337" on="0"/>
        <pt x="1102" y="-337" on="0"/>
        <pt x="1103" y="-338" on="1"/>
        <pt x="1115" y="-345" on="0"/>
        <pt x="1139" y="-357" on="0"/>
        <pt x="1153" y="-357" on="1"/>
        <pt x="1169" y="-357" on="0"/>
        <pt x="1185" y="-366" on="0"/>
        <pt x="1195" y="-366" on="1"/>
        <pt x="1203" y="-366" on="0"/>
        <pt x="1221" y="-361" on="0"/>
        <pt x="1232" y="-360" on="1"/>
        <pt x="1261" y="-357" on="0"/>
        <pt x="1286" y="-343" on="1"/>
        <pt x="1291" y="-343" on="1"/>
        <pt x="1300" y="-343" on="0"/>
        <pt x="1312" y="-352" on="0"/>
        <pt x="1312" y="-363" on="1"/>
        <pt x="1312" y="-374" on="0"/>
        <pt x="1304" y="-382" on="1"/>
        <pt x="1280" y="-414" on="0"/>
        <pt x="1214" y="-454" on="0"/>
        <pt x="1177" y="-465" on="1"/>
        <pt x="1149" y="-478" on="1"/>
        <pt x="1138" y="-480" on="0"/>
        <pt x="1108" y="-482" on="0"/>
        <pt x="1095" y="-482" on="1"/>
        <pt x="1081" y="-482" on="0"/>
        <pt x="1038" y="-476" on="0"/>
        <pt x="1022" y="-472" on="1"/>
        <pt x="1007" y="-462" on="0"/>
        <pt x="981" y="-446" on="0"/>
        <pt x="959" y="-444" on="1"/>
        <pt x="940" y="-434" on="1"/>
        <pt x="926" y="-415" on="1"/>
        <pt x="922" y="-402" on="0"/>
        <pt x="908" y="-379" on="0"/>
        <pt x="894" y="-355" on="0"/>
        <pt x="884" y="-331" on="0"/>
        <pt x="884" y="-316" on="1"/>
        <pt x="884" y="-290" on="0"/>
        <pt x="896" y="-232" on="0"/>
        <pt x="895" y="-203" on="1"/>
        <pt x="905" y="-183" on="1"/>
        <pt x="915" y="-152" on="1"/>
        <pt x="918" y="-135" on="1"/>
        <pt x="938" y="-103" on="0"/>
        <pt x="983" y="-29" on="0"/>
        <pt x="1008" y="2" on="1"/>
        <pt x="998" y="1" on="0"/>
        <pt x="979" y="-5" on="0"/>
        <pt x="968" y="-5" on="1"/>
        <pt x="941" y="-5" on="0"/>
        <pt x="888" y="2" on="0"/>
        <pt x="859" y="2" on="1"/>
        <pt x="817" y="2" on="0"/>
        <pt x="732" y="-12" on="0"/>
        <pt x="687" y="-12" on="1"/>
        <pt x="657" y="-12" on="1"/>
        <pt x="649" y="-5" on="0"/>
        <pt x="638" y="13" on="0"/>
        <pt x="638" y="24" on="1"/>
        <pt x="638" y="37" on="0"/>
        <pt x="667" y="51" on="0"/>
        <pt x="711" y="59" on="0"/>
        <pt x="766" y="64" on="0"/>
        <pt x="818" y="72" on="0"/>
        <pt x="861" y="88" on="0"/>
        <pt x="872" y="102" on="1"/>
        <pt x="872" y="144" on="1"/>
        <pt x="871" y="145" on="0"/>
        <pt x="868" y="158" on="0"/>
        <pt x="864" y="175" on="0"/>
        <pt x="860" y="190" on="0"/>
        <pt x="859" y="195" on="1"/>
        <pt x="858" y="197" on="0"/>
        <pt x="852" y="213" on="0"/>
        <pt x="845" y="232" on="0"/>
        <pt x="840" y="248" on="0"/>
        <pt x="840" y="250" on="1"/>
        <pt x="839" y="253" on="0"/>
        <pt x="834" y="273" on="0"/>
        <pt x="828" y="297" on="0"/>
        <pt x="822" y="318" on="0"/>
        <pt x="822" y="321" on="1"/>
        <pt x="821" y="322" on="0"/>
        <pt x="816" y="338" on="0"/>
        <pt x="809" y="357" on="0"/>
        <pt x="804" y="374" on="0"/>
        <pt x="803" y="376" on="1"/>
        <pt x="800" y="387" on="0"/>
        <pt x="794" y="418" on="0"/>
        <pt x="785" y="450" on="0"/>
        <pt x="773" y="476" on="0"/>
        <pt x="764" y="482" on="1"/>
        <pt x="677" y="482" on="1"/>
        <pt x="675" y="482" on="0"/>
        <pt x="659" y="475" on="0"/>
        <pt x="657" y="475" on="1"/>
        <pt x="652" y="475" on="1"/>
        <pt x="651" y="475" on="0"/>
        <pt x="640" y="477" on="0"/>
        <pt x="627" y="480" on="0"/>
        <pt x="616" y="482" on="0"/>
        <pt x="615" y="482" on="1"/>
        <pt x="614" y="482" on="0"/>
        <pt x="604" y="480" on="0"/>
        <pt x="594" y="477" on="0"/>
        <pt x="585" y="475" on="0"/>
        <pt x="585" y="475" on="1"/>
        <pt x="470" y="475" on="1"/>
        <pt x="466" y="475" on="0"/>
        <pt x="447" y="474" on="0"/>
        <pt x="425" y="472" on="0"/>
        <pt x="406" y="470" on="0"/>
        <pt x="402" y="469" on="1"/>
        <pt x="400" y="468" on="0"/>
        <pt x="399" y="467" on="1"/>
        <pt x="397" y="466" on="0"/>
        <pt x="396" y="464" on="0"/>
        <pt x="395" y="464" on="1"/>
        <pt x="375" y="401" on="0"/>
        <pt x="338" y="271" on="0"/>
        <pt x="321" y="207" on="1"/>
        <pt x="317" y="191" on="0"/>
        <pt x="302" y="155" on="0"/>
        <pt x="302" y="138" on="1"/>
        <pt x="302" y="125" on="0"/>
        <pt x="315" y="99" on="0"/>
        <pt x="321" y="89" on="1"/>
        <pt x="324" y="89" on="0"/>
        <pt x="342" y="87" on="0"/>
        <pt x="362" y="84" on="0"/>
        <pt x="380" y="82" on="0"/>
        <pt x="383" y="82" on="1"/>
        <pt x="384" y="82" on="0"/>
        <pt x="395" y="78" on="0"/>
        <pt x="408" y="74" on="0"/>
        <pt x="419" y="71" on="0"/>
        <pt x="420" y="71" on="1"/>
        <pt x="433" y="68" on="0"/>
        <pt x="462" y="66" on="0"/>
        <pt x="486" y="60" on="0"/>
        <pt x="502" y="45" on="0"/>
        <pt x="502" y="29" on="1"/>
        <pt x="502" y="0" on="0"/>
        <pt x="477" y="-12" on="0"/>
        <pt x="455" y="-12" on="1"/>
        <pt x="402" y="-12" on="1"/>
        <pt x="400" y="-12" on="0"/>
        <pt x="387" y="-10" on="0"/>
        <pt x="373" y="-7" on="0"/>
        <pt x="360" y="-5" on="0"/>
        <pt x="358" y="-5" on="1"/>
        <pt x="240" y="-5" on="1"/>
        <pt x="238" y="-5" on="0"/>
        <pt x="225" y="-3" on="0"/>
        <pt x="210" y="0" on="0"/>
        <pt x="197" y="2" on="0"/>
        <pt x="195" y="2" on="1"/>
        <pt x="178" y="2" on="1"/>
        <pt x="169" y="2" on="0"/>
        <pt x="155" y="0" on="0"/>
        <pt x="145" y="-5" on="1"/>
        <pt x="40" y="-5" on="1"/>
        <pt x="36" y="-7" on="0"/>
        <pt x="24" y="-12" on="0"/>
        <pt x="22" y="-12" on="1"/>
        <pt x="17" y="-12" on="1"/>
        <pt x="12" y="-12" on="0"/>
        <pt x="-5" y="-6" on="0"/>
        <pt x="-22" y="3" on="0"/>
        <pt x="-35" y="16" on="0"/>
      </contour>
      <contour>
        <pt x="452" y="570" on="1"/>
        <pt x="479" y="566" on="0"/>
        <pt x="541" y="561" on="0"/>
        <pt x="604" y="559" on="0"/>
        <pt x="665" y="558" on="0"/>
        <pt x="691" y="558" on="1"/>
        <pt x="711" y="558" on="1"/>
        <pt x="726" y="558" on="0"/>
        <pt x="746" y="567" on="0"/>
        <pt x="746" y="585" on="1"/>
        <pt x="746" y="605" on="0"/>
        <pt x="727" y="643" on="0"/>
        <pt x="721" y="662" on="1"/>
        <pt x="710" y="700" on="0"/>
        <pt x="691" y="778" on="0"/>
        <pt x="677" y="813" on="1"/>
        <pt x="677" y="815" on="0"/>
        <pt x="665" y="836" on="0"/>
        <pt x="664" y="838" on="1"/>
        <pt x="663" y="841" on="0"/>
        <pt x="660" y="859" on="0"/>
        <pt x="656" y="881" on="0"/>
        <pt x="653" y="899" on="0"/>
        <pt x="652" y="902" on="1"/>
        <pt x="652" y="903" on="0"/>
        <pt x="646" y="918" on="0"/>
        <pt x="637" y="937" on="0"/>
        <pt x="629" y="957" on="0"/>
        <pt x="627" y="963" on="1"/>
        <pt x="627" y="963" on="0"/>
        <pt x="623" y="971" on="0"/>
        <pt x="619" y="980" on="0"/>
        <pt x="615" y="987" on="0"/>
        <pt x="615" y="988" on="1"/>
        <pt x="610" y="997" on="0"/>
        <pt x="606" y="1019" on="0"/>
        <pt x="601" y="1039" on="0"/>
        <pt x="593" y="1057" on="0"/>
        <pt x="585" y="1063" on="1"/>
        <pt x="580" y="1063" on="1"/>
        <pt x="566" y="1063" on="0"/>
        <pt x="547" y="1017" on="0"/>
        <pt x="533" y="959" on="0"/>
        <pt x="524" y="904" on="0"/>
        <pt x="521" y="895" on="1"/>
        <pt x="519" y="889" on="0"/>
        <pt x="511" y="861" on="0"/>
        <pt x="509" y="858" on="1"/>
        <pt x="498" y="815" on="0"/>
        <pt x="473" y="730" on="0"/>
        <pt x="464" y="687" on="1"/>
        <pt x="464" y="686" on="0"/>
        <pt x="463" y="673" on="0"/>
        <pt x="461" y="658" on="0"/>
        <pt x="459" y="645" on="0"/>
        <pt x="459" y="643" on="1"/>
        <pt x="456" y="635" on="0"/>
        <pt x="449" y="627" on="0"/>
        <pt x="443" y="618" on="0"/>
        <pt x="439" y="607" on="0"/>
        <pt x="439" y="598" on="1"/>
        <pt x="439" y="591" on="1"/>
        <pt x="439" y="583" on="0"/>
        <pt x="443" y="572" on="0"/>
      </contour>
    </TTGlyph>
    <TTGlyph name="Aring" xMin="-35" yMin="-12" xMax="1267" yMax="1920">
      <component glyphName="A" x="0" y="0" flags="0x204"/>
      <component glyphName="Ring" x="82" y="0" flags="0x4"/>
    </TTGlyph>
    <TTGlyph name="Atilde" xMin="-35" yMin="-12" xMax="1267" yMax="1882">
      <component glyphName="A" x="0" y="0" flags="0x204"/>
      <component glyphName="Tilde" x="177" y="0" flags="0x4"/>
    </TTGlyph>
    <TTGlyph name="B" xMin="71" yMin="-18" xMax="1213" yMax="1504">
      <contour>
        <pt x="526" y="991" on="1"/>
        <pt x="526" y="937" on="1"/>
        <pt x="526" y="903" on="0"/>
        <pt x="528" y="837" on="0"/>
        <pt x="533" y="805" on="1"/>
        <pt x="534" y="794" on="0"/>
        <pt x="555" y="780" on="0"/>
        <pt x="566" y="780" on="1"/>
        <pt x="592" y="780" on="0"/>
        <pt x="634" y="798" on="0"/>
        <pt x="657" y="805" on="1"/>
        <pt x="705" y="821" on="0"/>
        <pt x="768" y="849" on="0"/>
        <pt x="816" y="885" on="0"/>
        <pt x="859" y="936" on="0"/>
        <pt x="887" y="974" on="1"/>
        <pt x="898" y="986" on="0"/>
        <pt x="917" y="1014" on="0"/>
        <pt x="919" y="1028" on="1"/>
        <pt x="919" y="1047" on="1"/>
        <pt x="919" y="1092" on="1"/>
        <pt x="919" y="1094" on="0"/>
        <pt x="926" y="1116" on="0"/>
        <pt x="926" y="1117" on="1"/>
        <pt x="926" y="1121" on="1"/>
        <pt x="926" y="1124" on="1"/>
        <pt x="921" y="1144" on="0"/>
        <pt x="912" y="1191" on="0"/>
        <pt x="906" y="1211" on="1"/>
        <pt x="903" y="1223" on="0"/>
        <pt x="885" y="1261" on="0"/>
        <pt x="863" y="1299" on="0"/>
        <pt x="841" y="1331" on="0"/>
        <pt x="833" y="1336" on="1"/>
        <pt x="831" y="1337" on="0"/>
        <pt x="813" y="1340" on="0"/>
        <pt x="813" y="1342" on="1"/>
        <pt x="812" y="1344" on="0"/>
        <pt x="802" y="1365" on="0"/>
        <pt x="802" y="1368" on="1"/>
        <pt x="801" y="1368" on="0"/>
        <pt x="798" y="1371" on="1"/>
        <pt x="796" y="1372" on="0"/>
        <pt x="795" y="1373" on="1"/>
        <pt x="769" y="1385" on="0"/>
        <pt x="715" y="1409" on="0"/>
        <pt x="687" y="1423" on="1"/>
        <pt x="682" y="1424" on="0"/>
        <pt x="654" y="1428" on="0"/>
        <pt x="623" y="1432" on="0"/>
        <pt x="595" y="1436" on="0"/>
        <pt x="590" y="1436" on="1"/>
        <pt x="585" y="1436" on="1"/>
        <pt x="559" y="1436" on="0"/>
        <pt x="531" y="1401" on="0"/>
        <pt x="533" y="1373" on="1"/>
        <pt x="534" y="1276" on="0"/>
        <pt x="526" y="1088" on="0"/>
      </contour>
      <contour>
        <pt x="514" y="153" on="1"/>
        <pt x="514" y="121" on="0"/>
        <pt x="528" y="83" on="0"/>
        <pt x="544" y="57" on="1"/>
        <pt x="544" y="55" on="0"/>
        <pt x="551" y="45" on="0"/>
        <pt x="551" y="44" on="1"/>
        <pt x="553" y="44" on="0"/>
        <pt x="571" y="42" on="0"/>
        <pt x="573" y="42" on="1"/>
        <pt x="593" y="42" on="0"/>
        <pt x="624" y="60" on="0"/>
        <pt x="644" y="62" on="1"/>
        <pt x="662" y="63" on="0"/>
        <pt x="693" y="64" on="0"/>
        <pt x="723" y="66" on="0"/>
        <pt x="753" y="73" on="0"/>
        <pt x="770" y="82" on="1"/>
        <pt x="772" y="83" on="0"/>
        <pt x="783" y="90" on="0"/>
        <pt x="795" y="98" on="0"/>
        <pt x="806" y="104" on="0"/>
        <pt x="808" y="104" on="1"/>
        <pt x="809" y="105" on="0"/>
        <pt x="820" y="110" on="0"/>
        <pt x="833" y="115" on="0"/>
        <pt x="844" y="118" on="0"/>
        <pt x="845" y="118" on="1"/>
        <pt x="849" y="119" on="0"/>
        <pt x="868" y="134" on="0"/>
        <pt x="870" y="136" on="1"/>
        <pt x="872" y="139" on="0"/>
        <pt x="888" y="158" on="0"/>
        <pt x="908" y="182" on="0"/>
        <pt x="926" y="206" on="0"/>
        <pt x="931" y="212" on="1"/>
        <pt x="935" y="216" on="0"/>
        <pt x="944" y="228" on="0"/>
        <pt x="944" y="230" on="1"/>
        <pt x="953" y="249" on="0"/>
        <pt x="962" y="292" on="0"/>
        <pt x="970" y="312" on="1"/>
        <pt x="970" y="405" on="1"/>
        <pt x="965" y="410" on="0"/>
        <pt x="961" y="424" on="0"/>
        <pt x="961" y="430" on="1"/>
        <pt x="961" y="436" on="0"/>
        <pt x="963" y="448" on="0"/>
        <pt x="963" y="452" on="1"/>
        <pt x="963" y="455" on="1"/>
        <pt x="961" y="470" on="0"/>
        <pt x="943" y="499" on="0"/>
        <pt x="943" y="516" on="1"/>
        <pt x="943" y="518" on="0"/>
        <pt x="944" y="522" on="0"/>
        <pt x="944" y="524" on="1"/>
        <pt x="941" y="528" on="0"/>
        <pt x="924" y="550" on="0"/>
        <pt x="903" y="574" on="0"/>
        <pt x="884" y="594" on="0"/>
        <pt x="880" y="598" on="1"/>
        <pt x="880" y="600" on="0"/>
        <pt x="864" y="615" on="0"/>
        <pt x="864" y="617" on="1"/>
        <pt x="862" y="619" on="0"/>
        <pt x="859" y="634" on="0"/>
        <pt x="859" y="637" on="1"/>
        <pt x="856" y="638" on="0"/>
        <pt x="847" y="647" on="0"/>
        <pt x="845" y="648" on="1"/>
        <pt x="822" y="666" on="0"/>
        <pt x="769" y="692" on="0"/>
        <pt x="713" y="710" on="0"/>
        <pt x="655" y="724" on="0"/>
        <pt x="627" y="731" on="1"/>
        <pt x="625" y="731" on="0"/>
        <pt x="614" y="734" on="0"/>
        <pt x="602" y="738" on="0"/>
        <pt x="591" y="742" on="0"/>
        <pt x="590" y="743" on="1"/>
        <pt x="581" y="744" on="0"/>
        <pt x="559" y="734" on="0"/>
        <pt x="539" y="718" on="0"/>
        <pt x="526" y="699" on="0"/>
        <pt x="526" y="692" on="1"/>
        <pt x="526" y="544" on="1"/>
        <pt x="528" y="540" on="0"/>
        <pt x="533" y="521" on="0"/>
        <pt x="533" y="519" on="1"/>
        <pt x="533" y="514" on="1"/>
        <pt x="533" y="512" on="1"/>
        <pt x="533" y="511" on="0"/>
        <pt x="528" y="501" on="0"/>
        <pt x="526" y="499" on="1"/>
        <pt x="526" y="482" on="0"/>
        <pt x="528" y="454" on="0"/>
        <pt x="528" y="440" on="1"/>
        <pt x="528" y="425" on="0"/>
        <pt x="524" y="397" on="0"/>
        <pt x="519" y="380" on="1"/>
        <pt x="517" y="378" on="0"/>
        <pt x="516" y="375" on="1"/>
        <pt x="514" y="369" on="0"/>
        <pt x="514" y="368" on="1"/>
        <pt x="514" y="365" on="1"/>
        <pt x="514" y="356" on="0"/>
        <pt x="519" y="340" on="0"/>
        <pt x="519" y="329" on="1"/>
        <pt x="519" y="319" on="1"/>
        <pt x="519" y="318" on="0"/>
        <pt x="514" y="302" on="0"/>
        <pt x="514" y="301" on="1"/>
        <pt x="514" y="298" on="0"/>
        <pt x="519" y="283" on="0"/>
        <pt x="519" y="281" on="1"/>
        <pt x="519" y="260" on="1"/>
        <pt x="519" y="234" on="0"/>
        <pt x="514" y="179" on="0"/>
      </contour>
      <contour>
        <pt x="71" y="12" on="1"/>
        <pt x="71" y="23" on="0"/>
        <pt x="84" y="41" on="0"/>
        <pt x="103" y="55" on="0"/>
        <pt x="125" y="65" on="0"/>
        <pt x="133" y="69" on="1"/>
        <pt x="166" y="66" on="0"/>
        <pt x="202" y="66" on="1"/>
        <pt x="221" y="66" on="0"/>
        <pt x="257" y="71" on="0"/>
        <pt x="285" y="88" on="0"/>
        <pt x="301" y="118" on="0"/>
        <pt x="301" y="143" on="1"/>
        <pt x="301" y="380" on="1"/>
        <pt x="299" y="384" on="0"/>
        <pt x="296" y="408" on="0"/>
        <pt x="296" y="412" on="1"/>
        <pt x="296" y="418" on="1"/>
        <pt x="296" y="423" on="1"/>
        <pt x="296" y="426" on="0"/>
        <pt x="298" y="446" on="0"/>
        <pt x="299" y="470" on="0"/>
        <pt x="301" y="491" on="0"/>
        <pt x="301" y="494" on="1"/>
        <pt x="301" y="502" on="0"/>
        <pt x="302" y="548" on="0"/>
        <pt x="303" y="599" on="0"/>
        <pt x="304" y="646" on="0"/>
        <pt x="304" y="655" on="1"/>
        <pt x="304" y="687" on="1"/>
        <pt x="305" y="696" on="0"/>
        <pt x="306" y="746" on="0"/>
        <pt x="307" y="801" on="0"/>
        <pt x="308" y="851" on="0"/>
        <pt x="308" y="860" on="1"/>
        <pt x="308" y="862" on="0"/>
        <pt x="306" y="873" on="0"/>
        <pt x="303" y="886" on="0"/>
        <pt x="301" y="897" on="0"/>
        <pt x="301" y="899" on="1"/>
        <pt x="301" y="906" on="1"/>
        <pt x="301" y="911" on="1"/>
        <pt x="301" y="913" on="0"/>
        <pt x="303" y="926" on="0"/>
        <pt x="305" y="940" on="0"/>
        <pt x="307" y="953" on="0"/>
        <pt x="308" y="956" on="1"/>
        <pt x="308" y="1243" on="1"/>
        <pt x="308" y="1269" on="0"/>
        <pt x="321" y="1314" on="0"/>
        <pt x="321" y="1342" on="1"/>
        <pt x="321" y="1369" on="0"/>
        <pt x="306" y="1406" on="0"/>
        <pt x="282" y="1423" on="1"/>
        <pt x="276" y="1421" on="0"/>
        <pt x="245" y="1421" on="0"/>
        <pt x="229" y="1421" on="1"/>
        <pt x="212" y="1421" on="0"/>
        <pt x="183" y="1421" on="0"/>
        <pt x="178" y="1423" on="1"/>
        <pt x="169" y="1423" on="0"/>
        <pt x="142" y="1433" on="0"/>
        <pt x="115" y="1446" on="0"/>
        <pt x="93" y="1462" on="0"/>
        <pt x="89" y="1468" on="1"/>
        <pt x="102" y="1488" on="0"/>
        <pt x="132" y="1497" on="0"/>
        <pt x="150" y="1497" on="1"/>
        <pt x="188" y="1497" on="1"/>
        <pt x="191" y="1497" on="0"/>
        <pt x="212" y="1504" on="0"/>
        <pt x="214" y="1504" on="1"/>
        <pt x="215" y="1504" on="0"/>
        <pt x="223" y="1502" on="0"/>
        <pt x="231" y="1499" on="0"/>
        <pt x="238" y="1497" on="0"/>
        <pt x="239" y="1497" on="1"/>
        <pt x="346" y="1497" on="1"/>
        <pt x="353" y="1493" on="0"/>
        <pt x="371" y="1490" on="0"/>
        <pt x="380" y="1490" on="1"/>
        <pt x="403" y="1490" on="1"/>
        <pt x="415" y="1490" on="1"/>
        <pt x="423" y="1488" on="1"/>
        <pt x="431" y="1486" on="0"/>
        <pt x="432" y="1485" on="1"/>
        <pt x="496" y="1485" on="1"/>
        <pt x="519" y="1485" on="1"/>
        <pt x="522" y="1485" on="0"/>
        <pt x="539" y="1483" on="0"/>
        <pt x="557" y="1481" on="0"/>
        <pt x="573" y="1479" on="0"/>
        <pt x="576" y="1478" on="1"/>
        <pt x="590" y="1485" on="1"/>
        <pt x="694" y="1485" on="1"/>
        <pt x="698" y="1487" on="0"/>
        <pt x="724" y="1490" on="0"/>
        <pt x="726" y="1490" on="1"/>
        <pt x="730" y="1492" on="1"/>
        <pt x="734" y="1494" on="0"/>
        <pt x="734" y="1494" on="1"/>
        <pt x="823" y="1494" on="0"/>
        <pt x="906" y="1468" on="1"/>
        <pt x="912" y="1462" on="1"/>
        <pt x="938" y="1444" on="0"/>
        <pt x="994" y="1418" on="0"/>
        <pt x="1020" y="1404" on="1"/>
        <pt x="1022" y="1402" on="1"/>
        <pt x="1025" y="1399" on="0"/>
        <pt x="1027" y="1398" on="1"/>
        <pt x="1027" y="1396" on="0"/>
        <pt x="1037" y="1381" on="0"/>
        <pt x="1038" y="1379" on="1"/>
        <pt x="1039" y="1377" on="0"/>
        <pt x="1041" y="1376" on="1"/>
        <pt x="1042" y="1373" on="0"/>
        <pt x="1045" y="1373" on="1"/>
        <pt x="1068" y="1344" on="0"/>
        <pt x="1106" y="1288" on="0"/>
        <pt x="1134" y="1228" on="0"/>
        <pt x="1149" y="1162" on="0"/>
        <pt x="1149" y="1124" on="1"/>
        <pt x="1149" y="1117" on="1"/>
        <pt x="1149" y="1115" on="0"/>
        <pt x="1147" y="1101" on="0"/>
        <pt x="1146" y="1084" on="0"/>
        <pt x="1144" y="1070" on="0"/>
        <pt x="1144" y="1067" on="1"/>
        <pt x="1144" y="1040" on="1"/>
        <pt x="1144" y="1028" on="1"/>
        <pt x="1141" y="1019" on="0"/>
        <pt x="1137" y="1011" on="1"/>
        <pt x="1134" y="1004" on="0"/>
        <pt x="1126" y="991" on="0"/>
        <pt x="1124" y="986" on="1"/>
        <pt x="1115" y="963" on="0"/>
        <pt x="1094" y="905" on="0"/>
        <pt x="1077" y="885" on="1"/>
        <pt x="1075" y="884" on="0"/>
        <pt x="1057" y="882" on="0"/>
        <pt x="1057" y="880" on="1"/>
        <pt x="1055" y="878" on="0"/>
        <pt x="1040" y="863" on="0"/>
        <pt x="1038" y="860" on="1"/>
        <pt x="1037" y="859" on="0"/>
        <pt x="1022" y="853" on="0"/>
        <pt x="1005" y="845" on="0"/>
        <pt x="990" y="837" on="0"/>
        <pt x="988" y="835" on="1"/>
        <pt x="984" y="832" on="0"/>
        <pt x="966" y="815" on="0"/>
        <pt x="946" y="796" on="0"/>
        <pt x="929" y="778" on="0"/>
        <pt x="926" y="774" on="1"/>
        <pt x="927" y="770" on="0"/>
        <pt x="939" y="766" on="0"/>
        <pt x="953" y="765" on="0"/>
        <pt x="967" y="764" on="0"/>
        <pt x="970" y="763" on="1"/>
        <pt x="971" y="760" on="0"/>
        <pt x="991" y="747" on="0"/>
        <pt x="995" y="743" on="1"/>
        <pt x="996" y="741" on="0"/>
        <pt x="1012" y="726" on="0"/>
        <pt x="1013" y="724" on="1"/>
        <pt x="1014" y="723" on="0"/>
        <pt x="1023" y="718" on="0"/>
        <pt x="1033" y="712" on="0"/>
        <pt x="1043" y="706" on="0"/>
        <pt x="1045" y="706" on="1"/>
        <pt x="1075" y="682" on="0"/>
        <pt x="1123" y="618" on="0"/>
        <pt x="1144" y="586" on="1"/>
        <pt x="1145" y="585" on="0"/>
        <pt x="1152" y="576" on="0"/>
        <pt x="1160" y="565" on="0"/>
        <pt x="1168" y="555" on="0"/>
        <pt x="1169" y="554" on="1"/>
        <pt x="1177" y="541" on="0"/>
        <pt x="1193" y="491" on="0"/>
        <pt x="1205" y="437" on="0"/>
        <pt x="1213" y="386" on="0"/>
        <pt x="1213" y="371" on="1"/>
        <pt x="1213" y="357" on="0"/>
        <pt x="1204" y="325" on="0"/>
        <pt x="1200" y="312" on="1"/>
        <pt x="1198" y="306" on="0"/>
        <pt x="1195" y="283" on="0"/>
        <pt x="1195" y="281" on="1"/>
        <pt x="1195" y="250" on="1"/>
        <pt x="1192" y="238" on="0"/>
        <pt x="1176" y="204" on="0"/>
        <pt x="1169" y="193" on="1"/>
        <pt x="1161" y="179" on="0"/>
        <pt x="1141" y="145" on="0"/>
        <pt x="1117" y="113" on="0"/>
        <pt x="1091" y="85" on="0"/>
        <pt x="1077" y="76" on="1"/>
        <pt x="1074" y="74" on="0"/>
        <pt x="1056" y="64" on="0"/>
        <pt x="1034" y="53" on="0"/>
        <pt x="1016" y="44" on="0"/>
        <pt x="1013" y="44" on="1"/>
        <pt x="1004" y="39" on="0"/>
        <pt x="993" y="32" on="0"/>
        <pt x="981" y="26" on="0"/>
        <pt x="967" y="20" on="0"/>
        <pt x="956" y="18" on="1"/>
        <pt x="945" y="16" on="0"/>
        <pt x="913" y="10" on="0"/>
        <pt x="897" y="7" on="1"/>
        <pt x="879" y="3" on="0"/>
        <pt x="859" y="0" on="1"/>
        <pt x="514" y="0" on="1"/>
        <pt x="512" y="-1" on="0"/>
        <pt x="499" y="-3" on="0"/>
        <pt x="485" y="-5" on="0"/>
        <pt x="472" y="-7" on="0"/>
        <pt x="469" y="-7" on="1"/>
        <pt x="282" y="-7" on="1"/>
        <pt x="268" y="-11" on="0"/>
        <pt x="243" y="-13" on="0"/>
        <pt x="230" y="-13" on="1"/>
        <pt x="188" y="-13" on="1"/>
        <pt x="165" y="-13" on="1"/>
        <pt x="163" y="-13" on="0"/>
        <pt x="148" y="-18" on="0"/>
        <pt x="146" y="-18" on="1"/>
        <pt x="130" y="-18" on="1"/>
        <pt x="124" y="-18" on="0"/>
        <pt x="104" y="-16" on="0"/>
        <pt x="85" y="-9" on="0"/>
        <pt x="71" y="3" on="0"/>
      </contour>
    </TTGlyph>
    <TTGlyph name="Breve" xMin="103" yMin="1638" xMax="636" yMax="1920">
      <contour>
        <pt x="352" y="1638" on="1"/>
        <pt x="342" y="1638" on="0"/>
        <pt x="322" y="1639" on="0"/>
        <pt x="314" y="1641" on="1"/>
        <pt x="314" y="1641" on="0"/>
        <pt x="297" y="1645" on="0"/>
        <pt x="278" y="1650" on="0"/>
        <pt x="263" y="1654" on="0"/>
        <pt x="263" y="1654" on="1"/>
        <pt x="260" y="1655" on="1"/>
        <pt x="246" y="1656" on="1"/>
        <pt x="229" y="1658" on="0"/>
        <pt x="208" y="1677" on="0"/>
        <pt x="198" y="1681" on="1"/>
        <pt x="178" y="1690" on="1"/>
        <pt x="166" y="1699" on="0"/>
        <pt x="151" y="1722" on="0"/>
        <pt x="139" y="1746" on="0"/>
        <pt x="125" y="1771" on="0"/>
        <pt x="115" y="1782" on="1"/>
        <pt x="114" y="1797" on="1"/>
        <pt x="107" y="1807" on="1"/>
        <pt x="105" y="1813" on="0"/>
        <pt x="105" y="1820" on="1"/>
        <pt x="106" y="1832" on="1"/>
        <pt x="106" y="1870" on="1"/>
        <pt x="106" y="1878" on="0"/>
        <pt x="104" y="1897" on="0"/>
        <pt x="103" y="1906" on="1"/>
        <pt x="108" y="1912" on="0"/>
        <pt x="120" y="1920" on="0"/>
        <pt x="131" y="1920" on="1"/>
        <pt x="149" y="1920" on="0"/>
        <pt x="158" y="1906" on="1"/>
        <pt x="158" y="1889" on="0"/>
        <pt x="180" y="1865" on="0"/>
        <pt x="191" y="1851" on="1"/>
        <pt x="195" y="1845" on="0"/>
        <pt x="200" y="1831" on="0"/>
        <pt x="206" y="1818" on="0"/>
        <pt x="215" y="1806" on="0"/>
        <pt x="223" y="1800" on="1"/>
        <pt x="232" y="1793" on="0"/>
        <pt x="269" y="1775" on="0"/>
        <pt x="283" y="1770" on="1"/>
        <pt x="301" y="1763" on="0"/>
        <pt x="336" y="1757" on="0"/>
        <pt x="356" y="1756" on="1"/>
        <pt x="366" y="1754" on="0"/>
        <pt x="389" y="1752" on="0"/>
        <pt x="403" y="1752" on="1"/>
        <pt x="409" y="1752" on="0"/>
        <pt x="420" y="1754" on="0"/>
        <pt x="425" y="1756" on="1"/>
        <pt x="488" y="1782" on="1"/>
        <pt x="513" y="1802" on="1"/>
        <pt x="527" y="1810" on="1"/>
        <pt x="530" y="1813" on="0"/>
        <pt x="530" y="1815" on="1"/>
        <pt x="534" y="1818" on="1"/>
        <pt x="542" y="1824" on="0"/>
        <pt x="551" y="1852" on="0"/>
        <pt x="562" y="1862" on="1"/>
        <pt x="566" y="1866" on="1"/>
        <pt x="568" y="1874" on="1"/>
        <pt x="580" y="1906" on="1"/>
        <pt x="590" y="1920" on="0"/>
        <pt x="607" y="1920" on="1"/>
        <pt x="617" y="1920" on="0"/>
        <pt x="631" y="1911" on="0"/>
        <pt x="636" y="1906" on="1"/>
        <pt x="636" y="1873" on="1"/>
        <pt x="636" y="1820" on="0"/>
        <pt x="602" y="1737" on="0"/>
        <pt x="556" y="1692" on="1"/>
        <pt x="536" y="1672" on="0"/>
        <pt x="490" y="1660" on="0"/>
        <pt x="463" y="1649" on="1"/>
        <pt x="445" y="1641" on="0"/>
        <pt x="390" y="1639" on="0"/>
        <pt x="368" y="1638" on="1"/>
      </contour>
    </TTGlyph>
    <TTGlyph name="C" xMin="109" yMin="-18" xMax="1371" yMax="1482">
      <contour>
        <pt x="564" y="20" on="1"/>
        <pt x="539" y="34" on="0"/>
        <pt x="486" y="54" on="0"/>
        <pt x="460" y="71" on="1"/>
        <pt x="458" y="71" on="0"/>
        <pt x="448" y="78" on="0"/>
        <pt x="438" y="86" on="0"/>
        <pt x="429" y="94" on="0"/>
        <pt x="428" y="96" on="1"/>
        <pt x="415" y="104" on="0"/>
        <pt x="389" y="116" on="0"/>
        <pt x="378" y="124" on="1"/>
        <pt x="314" y="188" on="1"/>
        <pt x="312" y="190" on="0"/>
        <pt x="297" y="200" on="0"/>
        <pt x="296" y="200" on="1"/>
        <pt x="296" y="207" on="0"/>
        <pt x="289" y="207" on="1"/>
        <pt x="275" y="227" on="0"/>
        <pt x="242" y="266" on="0"/>
        <pt x="228" y="289" on="1"/>
        <pt x="227" y="289" on="0"/>
        <pt x="218" y="309" on="0"/>
        <pt x="217" y="314" on="1"/>
        <pt x="170" y="406" on="0"/>
        <pt x="134" y="501" on="1"/>
        <pt x="133" y="502" on="0"/>
        <pt x="121" y="524" on="0"/>
        <pt x="121" y="526" on="1"/>
        <pt x="121" y="564" on="1"/>
        <pt x="118" y="596" on="0"/>
        <pt x="109" y="655" on="0"/>
        <pt x="109" y="687" on="1"/>
        <pt x="109" y="719" on="1"/>
        <pt x="110" y="729" on="0"/>
        <pt x="113" y="780" on="0"/>
        <pt x="117" y="838" on="0"/>
        <pt x="120" y="889" on="0"/>
        <pt x="121" y="900" on="1"/>
        <pt x="123" y="928" on="0"/>
        <pt x="144" y="976" on="0"/>
        <pt x="153" y="1001" on="1"/>
        <pt x="153" y="1002" on="0"/>
        <pt x="155" y="1010" on="0"/>
        <pt x="157" y="1021" on="0"/>
        <pt x="159" y="1030" on="0"/>
        <pt x="159" y="1032" on="1"/>
        <pt x="160" y="1034" on="0"/>
        <pt x="165" y="1049" on="0"/>
        <pt x="172" y="1065" on="0"/>
        <pt x="177" y="1080" on="0"/>
        <pt x="178" y="1082" on="1"/>
        <pt x="178" y="1083" on="0"/>
        <pt x="180" y="1092" on="0"/>
        <pt x="182" y="1103" on="0"/>
        <pt x="184" y="1112" on="0"/>
        <pt x="185" y="1114" on="1"/>
        <pt x="185" y="1115" on="0"/>
        <pt x="194" y="1123" on="0"/>
        <pt x="205" y="1134" on="0"/>
        <pt x="215" y="1143" on="0"/>
        <pt x="217" y="1144" on="1"/>
        <pt x="240" y="1172" on="0"/>
        <pt x="283" y="1230" on="0"/>
        <pt x="309" y="1257" on="1"/>
        <pt x="357" y="1309" on="0"/>
        <pt x="459" y="1395" on="0"/>
        <pt x="527" y="1418" on="1"/>
        <pt x="534" y="1421" on="0"/>
        <pt x="553" y="1431" on="0"/>
        <pt x="573" y="1441" on="0"/>
        <pt x="594" y="1449" on="0"/>
        <pt x="603" y="1450" on="1"/>
        <pt x="628" y="1450" on="1"/>
        <pt x="630" y="1450" on="0"/>
        <pt x="648" y="1455" on="0"/>
        <pt x="653" y="1457" on="1"/>
        <pt x="657" y="1458" on="0"/>
        <pt x="678" y="1465" on="0"/>
        <pt x="702" y="1473" on="0"/>
        <pt x="724" y="1480" on="0"/>
        <pt x="729" y="1482" on="1"/>
        <pt x="852" y="1482" on="1"/>
        <pt x="882" y="1482" on="0"/>
        <pt x="920" y="1480" on="0"/>
        <pt x="944" y="1478" on="0"/>
        <pt x="956" y="1476" on="0"/>
        <pt x="959" y="1475" on="1"/>
        <pt x="964" y="1474" on="0"/>
        <pt x="1006" y="1463" on="0"/>
        <pt x="1054" y="1450" on="0"/>
        <pt x="1096" y="1439" on="0"/>
        <pt x="1102" y="1438" on="1"/>
        <pt x="1106" y="1438" on="0"/>
        <pt x="1132" y="1433" on="0"/>
        <pt x="1134" y="1431" on="1"/>
        <pt x="1135" y="1431" on="0"/>
        <pt x="1146" y="1423" on="0"/>
        <pt x="1158" y="1414" on="0"/>
        <pt x="1169" y="1407" on="0"/>
        <pt x="1171" y="1406" on="1"/>
        <pt x="1173" y="1406" on="0"/>
        <pt x="1194" y="1400" on="0"/>
        <pt x="1196" y="1399" on="1"/>
        <pt x="1204" y="1393" on="0"/>
        <pt x="1218" y="1376" on="0"/>
        <pt x="1233" y="1360" on="0"/>
        <pt x="1250" y="1349" on="0"/>
        <pt x="1262" y="1349" on="1"/>
        <pt x="1274" y="1349" on="0"/>
        <pt x="1291" y="1383" on="0"/>
        <pt x="1307" y="1423" on="0"/>
        <pt x="1325" y="1457" on="0"/>
        <pt x="1339" y="1457" on="1"/>
        <pt x="1349" y="1457" on="0"/>
        <pt x="1362" y="1436" on="0"/>
        <pt x="1369" y="1408" on="0"/>
        <pt x="1371" y="1380" on="0"/>
        <pt x="1371" y="1374" on="1"/>
        <pt x="1371" y="1365" on="0"/>
        <pt x="1369" y="1354" on="0"/>
        <pt x="1364" y="1346" on="1"/>
        <pt x="1364" y="1057" on="1"/>
        <pt x="1364" y="1037" on="0"/>
        <pt x="1349" y="1004" on="0"/>
        <pt x="1327" y="1001" on="1"/>
        <pt x="1322" y="1000" on="0"/>
        <pt x="1312" y="1008" on="0"/>
        <pt x="1304" y="1019" on="0"/>
        <pt x="1297" y="1030" on="0"/>
        <pt x="1295" y="1032" on="1"/>
        <pt x="1295" y="1034" on="0"/>
        <pt x="1278" y="1049" on="0"/>
        <pt x="1277" y="1052" on="1"/>
        <pt x="1274" y="1056" on="0"/>
        <pt x="1261" y="1074" on="0"/>
        <pt x="1248" y="1093" on="0"/>
        <pt x="1236" y="1111" on="0"/>
        <pt x="1235" y="1114" on="1"/>
        <pt x="1222" y="1133" on="0"/>
        <pt x="1211" y="1180" on="0"/>
        <pt x="1196" y="1200" on="1"/>
        <pt x="1179" y="1223" on="0"/>
        <pt x="1146" y="1253" on="0"/>
        <pt x="1127" y="1270" on="1"/>
        <pt x="1105" y="1289" on="0"/>
        <pt x="1073" y="1320" on="0"/>
        <pt x="1041" y="1344" on="0"/>
        <pt x="1002" y="1363" on="0"/>
        <pt x="973" y="1371" on="1"/>
        <pt x="935" y="1380" on="0"/>
        <pt x="854" y="1396" on="0"/>
        <pt x="816" y="1396" on="1"/>
        <pt x="796" y="1396" on="0"/>
        <pt x="759" y="1382" on="0"/>
        <pt x="723" y="1361" on="0"/>
        <pt x="688" y="1336" on="0"/>
        <pt x="672" y="1326" on="1"/>
        <pt x="658" y="1317" on="0"/>
        <pt x="628" y="1311" on="0"/>
        <pt x="615" y="1300" on="1"/>
        <pt x="588" y="1277" on="0"/>
        <pt x="543" y="1221" on="0"/>
        <pt x="514" y="1200" on="1"/>
        <pt x="512" y="1198" on="0"/>
        <pt x="504" y="1189" on="0"/>
        <pt x="502" y="1188" on="1"/>
        <pt x="502" y="1186" on="0"/>
        <pt x="490" y="1160" on="0"/>
        <pt x="489" y="1156" on="1"/>
        <pt x="485" y="1149" on="0"/>
        <pt x="470" y="1130" on="0"/>
        <pt x="455" y="1111" on="0"/>
        <pt x="442" y="1091" on="0"/>
        <pt x="440" y="1082" on="1"/>
        <pt x="434" y="1056" on="0"/>
        <pt x="430" y="1007" on="0"/>
        <pt x="422" y="981" on="1"/>
        <pt x="414" y="960" on="0"/>
        <pt x="400" y="919" on="0"/>
        <pt x="396" y="894" on="1"/>
        <pt x="394" y="881" on="0"/>
        <pt x="393" y="841" on="0"/>
        <pt x="385" y="827" on="1"/>
        <pt x="383" y="820" on="0"/>
        <pt x="381" y="786" on="0"/>
        <pt x="379" y="748" on="0"/>
        <pt x="378" y="714" on="0"/>
        <pt x="378" y="707" on="1"/>
        <pt x="378" y="677" on="0"/>
        <pt x="389" y="611" on="0"/>
        <pt x="406" y="543" on="0"/>
        <pt x="426" y="478" on="0"/>
        <pt x="435" y="450" on="1"/>
        <pt x="435" y="449" on="0"/>
        <pt x="438" y="435" on="0"/>
        <pt x="442" y="418" on="0"/>
        <pt x="446" y="403" on="0"/>
        <pt x="447" y="400" on="1"/>
        <pt x="447" y="397" on="0"/>
        <pt x="458" y="381" on="0"/>
        <pt x="471" y="362" on="0"/>
        <pt x="483" y="347" on="0"/>
        <pt x="485" y="346" on="1"/>
        <pt x="486" y="344" on="0"/>
        <pt x="493" y="331" on="0"/>
        <pt x="500" y="316" on="0"/>
        <pt x="507" y="303" on="0"/>
        <pt x="507" y="301" on="1"/>
        <pt x="521" y="284" on="0"/>
        <pt x="547" y="258" on="0"/>
        <pt x="574" y="236" on="0"/>
        <pt x="603" y="214" on="0"/>
        <pt x="621" y="200" on="1"/>
        <pt x="640" y="181" on="1"/>
        <pt x="657" y="173" on="0"/>
        <pt x="708" y="146" on="0"/>
        <pt x="722" y="124" on="1"/>
        <pt x="768" y="120" on="0"/>
        <pt x="855" y="99" on="0"/>
        <pt x="902" y="99" on="1"/>
        <pt x="922" y="99" on="1"/>
        <pt x="936" y="99" on="0"/>
        <pt x="962" y="101" on="0"/>
        <pt x="978" y="108" on="1"/>
        <pt x="979" y="108" on="0"/>
        <pt x="986" y="111" on="0"/>
        <pt x="994" y="116" on="0"/>
        <pt x="1000" y="119" on="0"/>
        <pt x="1001" y="119" on="1"/>
        <pt x="1004" y="120" on="0"/>
        <pt x="1027" y="126" on="0"/>
        <pt x="1052" y="132" on="0"/>
        <pt x="1074" y="137" on="0"/>
        <pt x="1077" y="138" on="1"/>
        <pt x="1078" y="138" on="0"/>
        <pt x="1093" y="148" on="0"/>
        <pt x="1095" y="150" on="1"/>
        <pt x="1096" y="151" on="0"/>
        <pt x="1104" y="158" on="0"/>
        <pt x="1113" y="165" on="0"/>
        <pt x="1120" y="170" on="0"/>
        <pt x="1120" y="170" on="1"/>
        <pt x="1123" y="171" on="0"/>
        <pt x="1138" y="175" on="0"/>
        <pt x="1141" y="175" on="1"/>
        <pt x="1142" y="177" on="0"/>
        <pt x="1143" y="178" on="1"/>
        <pt x="1146" y="181" on="1"/>
        <pt x="1150" y="186" on="0"/>
        <pt x="1165" y="206" on="0"/>
        <pt x="1181" y="226" on="0"/>
        <pt x="1194" y="243" on="0"/>
        <pt x="1196" y="245" on="1"/>
        <pt x="1197" y="246" on="0"/>
        <pt x="1207" y="259" on="0"/>
        <pt x="1217" y="274" on="0"/>
        <pt x="1227" y="287" on="0"/>
        <pt x="1228" y="289" on="1"/>
        <pt x="1229" y="290" on="0"/>
        <pt x="1236" y="296" on="0"/>
        <pt x="1244" y="304" on="0"/>
        <pt x="1251" y="312" on="0"/>
        <pt x="1251" y="314" on="1"/>
        <pt x="1253" y="314" on="0"/>
        <pt x="1258" y="331" on="0"/>
        <pt x="1258" y="333" on="1"/>
        <pt x="1259" y="335" on="0"/>
        <pt x="1267" y="351" on="0"/>
        <pt x="1275" y="370" on="0"/>
        <pt x="1282" y="386" on="0"/>
        <pt x="1283" y="388" on="1"/>
        <pt x="1284" y="390" on="0"/>
        <pt x="1288" y="405" on="0"/>
        <pt x="1292" y="421" on="0"/>
        <pt x="1295" y="436" on="0"/>
        <pt x="1295" y="438" on="1"/>
        <pt x="1297" y="442" on="0"/>
        <pt x="1303" y="455" on="0"/>
        <pt x="1310" y="467" on="0"/>
        <pt x="1321" y="475" on="0"/>
        <pt x="1327" y="475" on="1"/>
        <pt x="1332" y="475" on="0"/>
        <pt x="1343" y="474" on="0"/>
        <pt x="1346" y="469" on="1"/>
        <pt x="1348" y="466" on="0"/>
        <pt x="1354" y="454" on="0"/>
        <pt x="1360" y="442" on="0"/>
        <pt x="1364" y="433" on="0"/>
        <pt x="1364" y="432" on="1"/>
        <pt x="1364" y="430" on="0"/>
        <pt x="1361" y="414" on="0"/>
        <pt x="1357" y="394" on="0"/>
        <pt x="1353" y="377" on="0"/>
        <pt x="1352" y="375" on="1"/>
        <pt x="1349" y="358" on="0"/>
        <pt x="1341" y="313" on="0"/>
        <pt x="1334" y="265" on="0"/>
        <pt x="1328" y="218" on="0"/>
        <pt x="1327" y="200" on="1"/>
        <pt x="1327" y="156" on="1"/>
        <pt x="1327" y="138" on="1"/>
        <pt x="1325" y="131" on="0"/>
        <pt x="1322" y="126" on="1"/>
        <pt x="1320" y="121" on="0"/>
        <pt x="1316" y="111" on="0"/>
        <pt x="1314" y="108" on="1"/>
        <pt x="1311" y="99" on="0"/>
        <pt x="1310" y="94" on="0"/>
        <pt x="1302" y="94" on="1"/>
        <pt x="1293" y="94" on="0"/>
        <pt x="1282" y="116" on="0"/>
        <pt x="1271" y="143" on="0"/>
        <pt x="1256" y="165" on="0"/>
        <pt x="1243" y="165" on="1"/>
        <pt x="1233" y="165" on="0"/>
        <pt x="1234" y="163" on="0"/>
        <pt x="1228" y="156" on="1"/>
        <pt x="1187" y="122" on="0"/>
        <pt x="1101" y="69" on="0"/>
        <pt x="1052" y="52" on="1"/>
        <pt x="1030" y="42" on="0"/>
        <pt x="990" y="18" on="0"/>
        <pt x="966" y="13" on="1"/>
        <pt x="949" y="11" on="0"/>
        <pt x="913" y="8" on="0"/>
        <pt x="902" y="-5" on="1"/>
        <pt x="758" y="-18" on="1"/>
        <pt x="712" y="-1" on="0"/>
        <pt x="612" y="14" on="0"/>
      </contour>
    </TTGlyph>
    <TTGlyph name="Cacute" xMin="109" yMin="-18" xMax="1371" yMax="1923">
      <component glyphName="C" x="0" y="0" flags="0x204"/>
      <component glyphName="Acute" x="526" y="0" flags="0x4"/>
    </TTGlyph>
    <TTGlyph name="Caron" xMin="202" yMin="1533" xMax="677" yMax="1920">
      <contour>
        <pt x="433" y="1533" on="1"/>
        <pt x="420" y="1533" on="0"/>
        <pt x="393" y="1559" on="0"/>
        <pt x="382" y="1576" on="1"/>
        <pt x="364" y="1598" on="0"/>
        <pt x="329" y="1651" on="0"/>
        <pt x="320" y="1680" on="1"/>
        <pt x="317" y="1683" on="0"/>
        <pt x="305" y="1700" on="0"/>
        <pt x="291" y="1720" on="0"/>
        <pt x="279" y="1739" on="0"/>
        <pt x="275" y="1744" on="1"/>
        <pt x="263" y="1760" on="0"/>
        <pt x="245" y="1786" on="0"/>
        <pt x="230" y="1812" on="0"/>
        <pt x="215" y="1841" on="0"/>
        <pt x="206" y="1861" on="1"/>
        <pt x="203" y="1866" on="0"/>
        <pt x="202" y="1884" on="0"/>
        <pt x="202" y="1892" on="1"/>
        <pt x="202" y="1897" on="0"/>
        <pt x="204" y="1911" on="0"/>
        <pt x="211" y="1920" on="1"/>
        <pt x="233" y="1920" on="1"/>
        <pt x="241" y="1915" on="0"/>
        <pt x="248" y="1906" on="0"/>
        <pt x="258" y="1892" on="0"/>
        <pt x="277" y="1871" on="0"/>
        <pt x="297" y="1855" on="1"/>
        <pt x="302" y="1850" on="0"/>
        <pt x="318" y="1828" on="0"/>
        <pt x="335" y="1808" on="1"/>
        <pt x="350" y="1799" on="0"/>
        <pt x="371" y="1775" on="0"/>
        <pt x="392" y="1750" on="0"/>
        <pt x="414" y="1726" on="0"/>
        <pt x="431" y="1716" on="1"/>
        <pt x="435" y="1722" on="0"/>
        <pt x="450" y="1732" on="0"/>
        <pt x="465" y="1744" on="0"/>
        <pt x="478" y="1758" on="0"/>
        <pt x="479" y="1766" on="1"/>
        <pt x="502" y="1776" on="0"/>
        <pt x="533" y="1806" on="0"/>
        <pt x="559" y="1840" on="0"/>
        <pt x="586" y="1875" on="0"/>
        <pt x="606" y="1892" on="1"/>
        <pt x="614" y="1892" on="0"/>
        <pt x="644" y="1904" on="0"/>
        <pt x="648" y="1904" on="1"/>
        <pt x="655" y="1904" on="1"/>
        <pt x="669" y="1904" on="0"/>
        <pt x="677" y="1894" on="0"/>
        <pt x="677" y="1885" on="1"/>
        <pt x="677" y="1875" on="0"/>
        <pt x="666" y="1852" on="0"/>
        <pt x="662" y="1843" on="1"/>
        <pt x="661" y="1840" on="0"/>
        <pt x="641" y="1810" on="0"/>
        <pt x="617" y="1775" on="0"/>
        <pt x="595" y="1744" on="0"/>
        <pt x="592" y="1740" on="1"/>
        <pt x="592" y="1734" on="0"/>
        <pt x="579" y="1718" on="0"/>
        <pt x="560" y="1696" on="0"/>
        <pt x="536" y="1669" on="0"/>
        <pt x="526" y="1651" on="1"/>
        <pt x="515" y="1632" on="0"/>
        <pt x="496" y="1596" on="0"/>
        <pt x="476" y="1570" on="1"/>
        <pt x="466" y="1557" on="0"/>
        <pt x="444" y="1533" on="0"/>
      </contour>
    </TTGlyph>
    <TTGlyph name="Ccaron" xMin="109" yMin="-18" xMax="1371" yMax="1920">
      <component glyphName="C" x="0" y="0" flags="0x204"/>
      <component glyphName="Caron" x="399" y="0" flags="0x4"/>
    </TTGlyph>
    <TTGlyph name="Ccedilla" xMin="109" yMin="-524" xMax="1371" yMax="1482">
      <contour>
        <pt x="663" y="-487" on="1"/>
        <pt x="665" y="-485" on="0"/>
        <pt x="666" y="-479" on="0"/>
        <pt x="668" y="-477" on="1"/>
        <pt x="686" y="-472" on="0"/>
        <pt x="717" y="-467" on="0"/>
        <pt x="732" y="-459" on="1"/>
        <pt x="735" y="-457" on="0"/>
        <pt x="753" y="-447" on="0"/>
        <pt x="772" y="-436" on="0"/>
        <pt x="787" y="-428" on="0"/>
        <pt x="788" y="-428" on="1"/>
        <pt x="793" y="-423" on="0"/>
        <pt x="798" y="-417" on="1"/>
        <pt x="803" y="-412" on="0"/>
        <pt x="813" y="-401" on="0"/>
        <pt x="818" y="-396" on="1"/>
        <pt x="820" y="-396" on="0"/>
        <pt x="838" y="-378" on="0"/>
        <pt x="840" y="-378" on="1"/>
        <pt x="846" y="-370" on="0"/>
        <pt x="863" y="-346" on="0"/>
        <pt x="865" y="-344" on="1"/>
        <pt x="865" y="-328" on="1"/>
        <pt x="864" y="-324" on="0"/>
        <pt x="862" y="-303" on="0"/>
        <pt x="857" y="-278" on="0"/>
        <pt x="851" y="-255" on="0"/>
        <pt x="847" y="-249" on="1"/>
        <pt x="844" y="-245" on="0"/>
        <pt x="826" y="-229" on="0"/>
        <pt x="821" y="-227" on="1"/>
        <pt x="821" y="-226" on="0"/>
        <pt x="808" y="-220" on="0"/>
        <pt x="791" y="-212" on="0"/>
        <pt x="776" y="-205" on="0"/>
        <pt x="773" y="-203" on="1"/>
        <pt x="769" y="-202" on="0"/>
        <pt x="749" y="-200" on="0"/>
        <pt x="747" y="-200" on="1"/>
        <pt x="731" y="-200" on="1"/>
        <pt x="715" y="-202" on="0"/>
        <pt x="690" y="-212" on="0"/>
        <pt x="677" y="-218" on="1"/>
        <pt x="658" y="-227" on="0"/>
        <pt x="622" y="-258" on="0"/>
        <pt x="605" y="-267" on="1"/>
        <pt x="603" y="-267" on="0"/>
        <pt x="601" y="-269" on="0"/>
        <pt x="600" y="-269" on="1"/>
        <pt x="596" y="-269" on="0"/>
        <pt x="585" y="-261" on="0"/>
        <pt x="583" y="-259" on="1"/>
        <pt x="583" y="-245" on="0"/>
        <pt x="587" y="-229" on="0"/>
        <pt x="595" y="-218" on="1"/>
        <pt x="599" y="-213" on="0"/>
        <pt x="616" y="-191" on="0"/>
        <pt x="634" y="-166" on="0"/>
        <pt x="650" y="-145" on="0"/>
        <pt x="653" y="-141" on="1"/>
        <pt x="654" y="-140" on="0"/>
        <pt x="665" y="-130" on="0"/>
        <pt x="676" y="-119" on="0"/>
        <pt x="686" y="-109" on="0"/>
        <pt x="687" y="-108" on="1"/>
        <pt x="691" y="-104" on="0"/>
        <pt x="707" y="-85" on="0"/>
        <pt x="722" y="-66" on="0"/>
        <pt x="735" y="-50" on="0"/>
        <pt x="737" y="-47" on="1"/>
        <pt x="744" y="-41" on="0"/>
        <pt x="747" y="-30" on="0"/>
        <pt x="747" y="-22" on="1"/>
        <pt x="747" y="-15" on="1"/>
        <pt x="747" y="-14" on="0"/>
        <pt x="748" y="-14" on="1"/>
        <pt x="703" y="1" on="0"/>
        <pt x="609" y="14" on="0"/>
        <pt x="564" y="20" on="1"/>
        <pt x="539" y="34" on="0"/>
        <pt x="486" y="54" on="0"/>
        <pt x="460" y="71" on="1"/>
        <pt x="458" y="71" on="0"/>
        <pt x="448" y="78" on="0"/>
        <pt x="438" y="86" on="0"/>
        <pt x="429" y="94" on="0"/>
        <pt x="428" y="96" on="1"/>
        <pt x="415" y="104" on="0"/>
        <pt x="389" y="116" on="0"/>
        <pt x="378" y="124" on="1"/>
        <pt x="314" y="188" on="1"/>
        <pt x="312" y="190" on="0"/>
        <pt x="297" y="200" on="0"/>
        <pt x="296" y="200" on="1"/>
        <pt x="296" y="207" on="0"/>
        <pt x="289" y="207" on="1"/>
        <pt x="275" y="227" on="0"/>
        <pt x="242" y="266" on="0"/>
        <pt x="228" y="289" on="1"/>
        <pt x="227" y="289" on="0"/>
        <pt x="218" y="309" on="0"/>
        <pt x="217" y="314" on="1"/>
        <pt x="170" y="406" on="0"/>
        <pt x="134" y="501" on="1"/>
        <pt x="133" y="502" on="0"/>
        <pt x="121" y="524" on="0"/>
        <pt x="121" y="526" on="1"/>
        <pt x="121" y="564" on="1"/>
        <pt x="118" y="596" on="0"/>
        <pt x="109" y="655" on="0"/>
        <pt x="109" y="687" on="1"/>
        <pt x="109" y="719" on="1"/>
        <pt x="110" y="729" on="0"/>
        <pt x="113" y="780" on="0"/>
        <pt x="117" y="838" on="0"/>
        <pt x="120" y="889" on="0"/>
        <pt x="121" y="900" on="1"/>
        <pt x="123" y="928" on="0"/>
        <pt x="144" y="976" on="0"/>
        <pt x="153" y="1001" on="1"/>
        <pt x="153" y="1002" on="0"/>
        <pt x="155" y="1010" on="0"/>
        <pt x="157" y="1021" on="0"/>
        <pt x="159" y="1030" on="0"/>
        <pt x="159" y="1032" on="1"/>
        <pt x="160" y="1034" on="0"/>
        <pt x="165" y="1049" on="0"/>
        <pt x="172" y="1065" on="0"/>
        <pt x="177" y="1080" on="0"/>
        <pt x="178" y="1082" on="1"/>
        <pt x="178" y="1083" on="0"/>
        <pt x="180" y="1092" on="0"/>
        <pt x="182" y="1103" on="0"/>
        <pt x="184" y="1112" on="0"/>
        <pt x="185" y="1114" on="1"/>
        <pt x="185" y="1115" on="0"/>
        <pt x="194" y="1123" on="0"/>
        <pt x="205" y="1134" on="0"/>
        <pt x="215" y="1143" on="0"/>
        <pt x="217" y="1144" on="1"/>
        <pt x="240" y="1172" on="0"/>
        <pt x="283" y="1230" on="0"/>
        <pt x="309" y="1257" on="1"/>
        <pt x="357" y="1309" on="0"/>
        <pt x="459" y="1395" on="0"/>
        <pt x="527" y="1418" on="1"/>
        <pt x="534" y="1421" on="0"/>
        <pt x="553" y="1431" on="0"/>
        <pt x="573" y="1441" on="0"/>
        <pt x="594" y="1449" on="0"/>
        <pt x="603" y="1450" on="1"/>
        <pt x="628" y="1450" on="1"/>
        <pt x="630" y="1450" on="0"/>
        <pt x="648" y="1455" on="0"/>
        <pt x="653" y="1457" on="1"/>
        <pt x="657" y="1458" on="0"/>
        <pt x="678" y="1465" on="0"/>
        <pt x="702" y="1473" on="0"/>
        <pt x="724" y="1480" on="0"/>
        <pt x="729" y="1482" on="1"/>
        <pt x="852" y="1482" on="1"/>
        <pt x="882" y="1482" on="0"/>
        <pt x="920" y="1480" on="0"/>
        <pt x="944" y="1478" on="0"/>
        <pt x="956" y="1476" on="0"/>
        <pt x="959" y="1475" on="1"/>
        <pt x="964" y="1474" on="0"/>
        <pt x="1006" y="1463" on="0"/>
        <pt x="1054" y="1450" on="0"/>
        <pt x="1096" y="1439" on="0"/>
        <pt x="1102" y="1438" on="1"/>
        <pt x="1106" y="1438" on="0"/>
        <pt x="1132" y="1433" on="0"/>
        <pt x="1134" y="1431" on="1"/>
        <pt x="1135" y="1431" on="0"/>
        <pt x="1146" y="1423" on="0"/>
        <pt x="1158" y="1414" on="0"/>
        <pt x="1169" y="1407" on="0"/>
        <pt x="1171" y="1406" on="1"/>
        <pt x="1173" y="1406" on="0"/>
        <pt x="1194" y="1400" on="0"/>
        <pt x="1196" y="1399" on="1"/>
        <pt x="1204" y="1393" on="0"/>
        <pt x="1218" y="1376" on="0"/>
        <pt x="1233" y="1360" on="0"/>
        <pt x="1250" y="1349" on="0"/>
        <pt x="1262" y="1349" on="1"/>
        <pt x="1274" y="1349" on="0"/>
        <pt x="1291" y="1383" on="0"/>
        <pt x="1307" y="1423" on="0"/>
        <pt x="1325" y="1457" on="0"/>
        <pt x="1339" y="1457" on="1"/>
        <pt x="1349" y="1457" on="0"/>
        <pt x="1362" y="1436" on="0"/>
        <pt x="1369" y="1408" on="0"/>
        <pt x="1371" y="1380" on="0"/>
        <pt x="1371" y="1374" on="1"/>
        <pt x="1371" y="1365" on="0"/>
        <pt x="1369" y="1354" on="0"/>
        <pt x="1364" y="1346" on="1"/>
        <pt x="1364" y="1057" on="1"/>
        <pt x="1364" y="1037" on="0"/>
        <pt x="1349" y="1004" on="0"/>
        <pt x="1327" y="1001" on="1"/>
        <pt x="1322" y="1000" on="0"/>
        <pt x="1312" y="1008" on="0"/>
        <pt x="1304" y="1019" on="0"/>
        <pt x="1297" y="1030" on="0"/>
        <pt x="1295" y="1032" on="1"/>
        <pt x="1295" y="1034" on="0"/>
        <pt x="1278" y="1049" on="0"/>
        <pt x="1277" y="1052" on="1"/>
        <pt x="1274" y="1056" on="0"/>
        <pt x="1261" y="1074" on="0"/>
        <pt x="1248" y="1093" on="0"/>
        <pt x="1236" y="1111" on="0"/>
        <pt x="1235" y="1114" on="1"/>
        <pt x="1222" y="1133" on="0"/>
        <pt x="1211" y="1180" on="0"/>
        <pt x="1196" y="1200" on="1"/>
        <pt x="1179" y="1223" on="0"/>
        <pt x="1146" y="1253" on="0"/>
        <pt x="1127" y="1270" on="1"/>
        <pt x="1105" y="1289" on="0"/>
        <pt x="1073" y="1320" on="0"/>
        <pt x="1041" y="1344" on="0"/>
        <pt x="1002" y="1363" on="0"/>
        <pt x="973" y="1371" on="1"/>
        <pt x="935" y="1380" on="0"/>
        <pt x="854" y="1396" on="0"/>
        <pt x="816" y="1396" on="1"/>
        <pt x="796" y="1396" on="0"/>
        <pt x="759" y="1382" on="0"/>
        <pt x="723" y="1361" on="0"/>
        <pt x="688" y="1336" on="0"/>
        <pt x="672" y="1326" on="1"/>
        <pt x="658" y="1317" on="0"/>
        <pt x="628" y="1311" on="0"/>
        <pt x="615" y="1300" on="1"/>
        <pt x="588" y="1277" on="0"/>
        <pt x="543" y="1221" on="0"/>
        <pt x="514" y="1200" on="1"/>
        <pt x="512" y="1198" on="0"/>
        <pt x="504" y="1189" on="0"/>
        <pt x="502" y="1188" on="1"/>
        <pt x="502" y="1186" on="0"/>
        <pt x="490" y="1160" on="0"/>
        <pt x="489" y="1156" on="1"/>
        <pt x="485" y="1149" on="0"/>
        <pt x="470" y="1130" on="0"/>
        <pt x="455" y="1111" on="0"/>
        <pt x="442" y="1091" on="0"/>
        <pt x="440" y="1082" on="1"/>
        <pt x="434" y="1056" on="0"/>
        <pt x="430" y="1007" on="0"/>
        <pt x="422" y="981" on="1"/>
        <pt x="414" y="960" on="0"/>
        <pt x="400" y="919" on="0"/>
        <pt x="396" y="894" on="1"/>
        <pt x="394" y="881" on="0"/>
        <pt x="393" y="841" on="0"/>
        <pt x="385" y="827" on="1"/>
        <pt x="383" y="820" on="0"/>
        <pt x="381" y="786" on="0"/>
        <pt x="379" y="748" on="0"/>
        <pt x="378" y="714" on="0"/>
        <pt x="378" y="707" on="1"/>
        <pt x="378" y="677" on="0"/>
        <pt x="389" y="611" on="0"/>
        <pt x="406" y="543" on="0"/>
        <pt x="426" y="478" on="0"/>
        <pt x="435" y="450" on="1"/>
        <pt x="435" y="449" on="0"/>
        <pt x="438" y="435" on="0"/>
        <pt x="442" y="418" on="0"/>
        <pt x="446" y="403" on="0"/>
        <pt x="447" y="400" on="1"/>
        <pt x="447" y="397" on="0"/>
        <pt x="458" y="381" on="0"/>
        <pt x="471" y="362" on="0"/>
        <pt x="483" y="347" on="0"/>
        <pt x="485" y="346" on="1"/>
        <pt x="486" y="344" on="0"/>
        <pt x="493" y="331" on="0"/>
        <pt x="500" y="316" on="0"/>
        <pt x="507" y="303" on="0"/>
        <pt x="507" y="301" on="1"/>
        <pt x="521" y="284" on="0"/>
        <pt x="547" y="258" on="0"/>
        <pt x="574" y="236" on="0"/>
        <pt x="603" y="214" on="0"/>
        <pt x="621" y="200" on="1"/>
        <pt x="640" y="181" on="1"/>
        <pt x="657" y="173" on="0"/>
        <pt x="708" y="146" on="0"/>
        <pt x="722" y="124" on="1"/>
        <pt x="768" y="120" on="0"/>
        <pt x="855" y="99" on="0"/>
        <pt x="902" y="99" on="1"/>
        <pt x="922" y="99" on="1"/>
        <pt x="936" y="99" on="0"/>
        <pt x="962" y="101" on="0"/>
        <pt x="978" y="108" on="1"/>
        <pt x="979" y="108" on="0"/>
        <pt x="986" y="111" on="0"/>
        <pt x="994" y="116" on="0"/>
        <pt x="1000" y="119" on="0"/>
        <pt x="1001" y="119" on="1"/>
        <pt x="1004" y="120" on="0"/>
        <pt x="1027" y="126" on="0"/>
        <pt x="1052" y="132" on="0"/>
        <pt x="1074" y="137" on="0"/>
        <pt x="1077" y="138" on="1"/>
        <pt x="1078" y="138" on="0"/>
        <pt x="1093" y="148" on="0"/>
        <pt x="1095" y="150" on="1"/>
        <pt x="1096" y="151" on="0"/>
        <pt x="1104" y="158" on="0"/>
        <pt x="1113" y="165" on="0"/>
        <pt x="1120" y="170" on="0"/>
        <pt x="1120" y="170" on="1"/>
        <pt x="1123" y="171" on="0"/>
        <pt x="1138" y="175" on="0"/>
        <pt x="1141" y="175" on="1"/>
        <pt x="1142" y="177" on="0"/>
        <pt x="1143" y="178" on="1"/>
        <pt x="1146" y="181" on="1"/>
        <pt x="1150" y="186" on="0"/>
        <pt x="1165" y="206" on="0"/>
        <pt x="1181" y="226" on="0"/>
        <pt x="1194" y="243" on="0"/>
        <pt x="1196" y="245" on="1"/>
        <pt x="1197" y="246" on="0"/>
        <pt x="1207" y="259" on="0"/>
        <pt x="1217" y="274" on="0"/>
        <pt x="1227" y="287" on="0"/>
        <pt x="1228" y="289" on="1"/>
        <pt x="1229" y="290" on="0"/>
        <pt x="1236" y="296" on="0"/>
        <pt x="1244" y="304" on="0"/>
        <pt x="1251" y="312" on="0"/>
        <pt x="1251" y="314" on="1"/>
        <pt x="1253" y="314" on="0"/>
        <pt x="1258" y="331" on="0"/>
        <pt x="1258" y="333" on="1"/>
        <pt x="1259" y="335" on="0"/>
        <pt x="1267" y="351" on="0"/>
        <pt x="1275" y="370" on="0"/>
        <pt x="1282" y="386" on="0"/>
        <pt x="1283" y="388" on="1"/>
        <pt x="1284" y="390" on="0"/>
        <pt x="1288" y="405" on="0"/>
        <pt x="1292" y="421" on="0"/>
        <pt x="1295" y="436" on="0"/>
        <pt x="1295" y="438" on="1"/>
        <pt x="1297" y="442" on="0"/>
        <pt x="1303" y="455" on="0"/>
        <pt x="1310" y="467" on="0"/>
        <pt x="1321" y="475" on="0"/>
        <pt x="1327" y="475" on="1"/>
        <pt x="1332" y="475" on="0"/>
        <pt x="1343" y="474" on="0"/>
        <pt x="1346" y="469" on="1"/>
        <pt x="1348" y="466" on="0"/>
        <pt x="1354" y="454" on="0"/>
        <pt x="1360" y="442" on="0"/>
        <pt x="1364" y="433" on="0"/>
        <pt x="1364" y="432" on="1"/>
        <pt x="1364" y="430" on="0"/>
        <pt x="1361" y="414" on="0"/>
        <pt x="1357" y="394" on="0"/>
        <pt x="1353" y="377" on="0"/>
        <pt x="1352" y="375" on="1"/>
        <pt x="1349" y="358" on="0"/>
        <pt x="1341" y="313" on="0"/>
        <pt x="1334" y="265" on="0"/>
        <pt x="1328" y="218" on="0"/>
        <pt x="1327" y="200" on="1"/>
        <pt x="1327" y="138" on="1"/>
        <pt x="1325" y="131" on="0"/>
        <pt x="1322" y="126" on="1"/>
        <pt x="1320" y="121" on="0"/>
        <pt x="1316" y="111" on="0"/>
        <pt x="1314" y="108" on="1"/>
        <pt x="1311" y="99" on="0"/>
        <pt x="1310" y="94" on="0"/>
        <pt x="1302" y="94" on="1"/>
        <pt x="1293" y="94" on="0"/>
        <pt x="1282" y="116" on="0"/>
        <pt x="1271" y="143" on="0"/>
        <pt x="1256" y="165" on="0"/>
        <pt x="1243" y="165" on="1"/>
        <pt x="1233" y="165" on="0"/>
        <pt x="1234" y="163" on="0"/>
        <pt x="1228" y="156" on="1"/>
        <pt x="1187" y="122" on="0"/>
        <pt x="1101" y="69" on="0"/>
        <pt x="1052" y="52" on="1"/>
        <pt x="1030" y="42" on="0"/>
        <pt x="990" y="18" on="0"/>
        <pt x="966" y="13" on="1"/>
        <pt x="949" y="11" on="0"/>
        <pt x="913" y="8" on="0"/>
        <pt x="902" y="-5" on="1"/>
        <pt x="856" y="-9" on="1"/>
        <pt x="847" y="-26" on="0"/>
        <pt x="823" y="-54" on="0"/>
        <pt x="823" y="-74" on="1"/>
        <pt x="823" y="-82" on="1"/>
        <pt x="824" y="-84" on="0"/>
        <pt x="826" y="-86" on="1"/>
        <pt x="830" y="-90" on="0"/>
        <pt x="833" y="-91" on="1"/>
        <pt x="836" y="-93" on="0"/>
        <pt x="846" y="-101" on="0"/>
        <pt x="856" y="-109" on="0"/>
        <pt x="864" y="-115" on="0"/>
        <pt x="865" y="-116" on="1"/>
        <pt x="866" y="-117" on="0"/>
        <pt x="879" y="-122" on="0"/>
        <pt x="894" y="-127" on="0"/>
        <pt x="907" y="-132" on="0"/>
        <pt x="909" y="-133" on="1"/>
        <pt x="938" y="-146" on="0"/>
        <pt x="963" y="-190" on="0"/>
        <pt x="976" y="-218" on="1"/>
        <pt x="986" y="-240" on="0"/>
        <pt x="994" y="-289" on="0"/>
        <pt x="994" y="-314" on="1"/>
        <pt x="994" y="-316" on="0"/>
        <pt x="993" y="-323" on="0"/>
        <pt x="993" y="-327" on="1"/>
        <pt x="993" y="-336" on="1"/>
        <pt x="992" y="-340" on="0"/>
        <pt x="984" y="-359" on="0"/>
        <pt x="973" y="-381" on="0"/>
        <pt x="962" y="-401" on="0"/>
        <pt x="959" y="-405" on="1"/>
        <pt x="956" y="-408" on="0"/>
        <pt x="940" y="-424" on="0"/>
        <pt x="921" y="-442" on="0"/>
        <pt x="904" y="-459" on="0"/>
        <pt x="900" y="-462" on="1"/>
        <pt x="898" y="-464" on="0"/>
        <pt x="888" y="-470" on="0"/>
        <pt x="876" y="-475" on="0"/>
        <pt x="866" y="-480" on="0"/>
        <pt x="865" y="-480" on="1"/>
        <pt x="864" y="-480" on="0"/>
        <pt x="857" y="-485" on="0"/>
        <pt x="849" y="-491" on="0"/>
        <pt x="841" y="-497" on="0"/>
        <pt x="840" y="-497" on="1"/>
        <pt x="835" y="-500" on="0"/>
        <pt x="819" y="-508" on="0"/>
        <pt x="803" y="-516" on="0"/>
        <pt x="790" y="-522" on="0"/>
        <pt x="789" y="-522" on="1"/>
        <pt x="781" y="-523" on="0"/>
        <pt x="775" y="-523" on="1"/>
        <pt x="769" y="-524" on="0"/>
        <pt x="758" y="-524" on="0"/>
        <pt x="754" y="-524" on="1"/>
        <pt x="746" y="-524" on="0"/>
        <pt x="714" y="-522" on="0"/>
        <pt x="712" y="-522" on="1"/>
        <pt x="704" y="-521" on="0"/>
        <pt x="678" y="-509" on="0"/>
        <pt x="673" y="-504" on="1"/>
        <pt x="672" y="-502" on="0"/>
        <pt x="665" y="-490" on="0"/>
      </contour>
    </TTGlyph>
    <TTGlyph name="Circumflex" xMin="202" yMin="1533" xMax="677" yMax="1920">
      <contour>
        <pt x="446" y="1920" on="1"/>
        <pt x="459" y="1920" on="0"/>
        <pt x="486" y="1894" on="0"/>
        <pt x="497" y="1877" on="1"/>
        <pt x="515" y="1855" on="0"/>
        <pt x="550" y="1802" on="0"/>
        <pt x="559" y="1773" on="1"/>
        <pt x="562" y="1770" on="0"/>
        <pt x="574" y="1753" on="0"/>
        <pt x="587" y="1733" on="0"/>
        <pt x="600" y="1714" on="0"/>
        <pt x="604" y="1709" on="1"/>
        <pt x="616" y="1693" on="0"/>
        <pt x="634" y="1667" on="0"/>
        <pt x="649" y="1641" on="0"/>
        <pt x="664" y="1611" on="0"/>
        <pt x="673" y="1592" on="1"/>
        <pt x="676" y="1587" on="0"/>
        <pt x="677" y="1569" on="0"/>
        <pt x="677" y="1561" on="1"/>
        <pt x="677" y="1556" on="0"/>
        <pt x="675" y="1542" on="0"/>
        <pt x="668" y="1533" on="1"/>
        <pt x="646" y="1533" on="1"/>
        <pt x="638" y="1537" on="0"/>
        <pt x="631" y="1547" on="0"/>
        <pt x="621" y="1561" on="0"/>
        <pt x="602" y="1582" on="0"/>
        <pt x="582" y="1598" on="1"/>
        <pt x="577" y="1603" on="0"/>
        <pt x="561" y="1625" on="0"/>
        <pt x="544" y="1645" on="1"/>
        <pt x="529" y="1654" on="0"/>
        <pt x="508" y="1678" on="0"/>
        <pt x="487" y="1703" on="0"/>
        <pt x="464" y="1727" on="0"/>
        <pt x="448" y="1737" on="1"/>
        <pt x="444" y="1731" on="0"/>
        <pt x="429" y="1721" on="0"/>
        <pt x="414" y="1709" on="0"/>
        <pt x="401" y="1695" on="0"/>
        <pt x="400" y="1687" on="1"/>
        <pt x="377" y="1677" on="0"/>
        <pt x="346" y="1647" on="0"/>
        <pt x="320" y="1613" on="0"/>
        <pt x="292" y="1577" on="0"/>
        <pt x="273" y="1561" on="1"/>
        <pt x="265" y="1561" on="0"/>
        <pt x="235" y="1549" on="0"/>
        <pt x="231" y="1549" on="1"/>
        <pt x="224" y="1549" on="1"/>
        <pt x="210" y="1549" on="0"/>
        <pt x="202" y="1559" on="0"/>
        <pt x="202" y="1568" on="1"/>
        <pt x="202" y="1578" on="0"/>
        <pt x="213" y="1601" on="0"/>
        <pt x="217" y="1610" on="1"/>
        <pt x="218" y="1613" on="0"/>
        <pt x="238" y="1643" on="0"/>
        <pt x="262" y="1678" on="0"/>
        <pt x="284" y="1709" on="0"/>
        <pt x="287" y="1713" on="1"/>
        <pt x="287" y="1719" on="0"/>
        <pt x="300" y="1735" on="0"/>
        <pt x="319" y="1757" on="0"/>
        <pt x="342" y="1784" on="0"/>
        <pt x="353" y="1802" on="1"/>
        <pt x="364" y="1821" on="0"/>
        <pt x="383" y="1857" on="0"/>
        <pt x="403" y="1883" on="1"/>
        <pt x="413" y="1896" on="0"/>
        <pt x="435" y="1920" on="0"/>
      </contour>
    </TTGlyph>
    <TTGlyph name="D" xMin="70" yMin="-13" xMax="1564" yMax="1505">
      <contour>
        <pt x="526" y="570" on="1"/>
        <pt x="526" y="108" on="1"/>
        <pt x="526" y="100" on="0"/>
        <pt x="547" y="85" on="0"/>
        <pt x="575" y="74" on="0"/>
        <pt x="601" y="67" on="0"/>
        <pt x="606" y="67" on="1"/>
        <pt x="635" y="67" on="0"/>
        <pt x="697" y="78" on="0"/>
        <pt x="726" y="82" on="1"/>
        <pt x="727" y="82" on="0"/>
        <pt x="749" y="81" on="0"/>
        <pt x="757" y="81" on="1"/>
        <pt x="768" y="81" on="0"/>
        <pt x="769" y="82" on="1"/>
        <pt x="772" y="82" on="0"/>
        <pt x="785" y="83" on="0"/>
        <pt x="799" y="85" on="0"/>
        <pt x="811" y="87" on="0"/>
        <pt x="813" y="87" on="1"/>
        <pt x="836" y="91" on="0"/>
        <pt x="875" y="116" on="0"/>
        <pt x="895" y="124" on="1"/>
        <pt x="911" y="130" on="0"/>
        <pt x="947" y="141" on="0"/>
        <pt x="984" y="154" on="0"/>
        <pt x="1018" y="169" on="0"/>
        <pt x="1031" y="180" on="1"/>
        <pt x="1035" y="183" on="0"/>
        <pt x="1055" y="202" on="0"/>
        <pt x="1077" y="224" on="0"/>
        <pt x="1097" y="245" on="0"/>
        <pt x="1102" y="250" on="1"/>
        <pt x="1103" y="251" on="0"/>
        <pt x="1108" y="259" on="0"/>
        <pt x="1114" y="270" on="0"/>
        <pt x="1120" y="279" on="0"/>
        <pt x="1120" y="281" on="1"/>
        <pt x="1140" y="309" on="0"/>
        <pt x="1183" y="356" on="0"/>
        <pt x="1194" y="386" on="1"/>
        <pt x="1196" y="390" on="0"/>
        <pt x="1197" y="393" on="1"/>
        <pt x="1198" y="395" on="0"/>
        <pt x="1199" y="398" on="1"/>
        <pt x="1231" y="446" on="0"/>
        <pt x="1282" y="556" on="0"/>
        <pt x="1288" y="612" on="1"/>
        <pt x="1289" y="624" on="0"/>
        <pt x="1295" y="679" on="0"/>
        <pt x="1301" y="738" on="0"/>
        <pt x="1306" y="790" on="0"/>
        <pt x="1307" y="800" on="1"/>
        <pt x="1307" y="815" on="1"/>
        <pt x="1307" y="839" on="0"/>
        <pt x="1295" y="876" on="0"/>
        <pt x="1288" y="899" on="1"/>
        <pt x="1282" y="923" on="0"/>
        <pt x="1272" y="973" on="0"/>
        <pt x="1259" y="1021" on="0"/>
        <pt x="1240" y="1067" on="0"/>
        <pt x="1225" y="1087" on="1"/>
        <pt x="1224" y="1089" on="0"/>
        <pt x="1223" y="1092" on="1"/>
        <pt x="1222" y="1094" on="0"/>
        <pt x="1220" y="1098" on="0"/>
        <pt x="1219" y="1100" on="1"/>
        <pt x="1219" y="1101" on="0"/>
        <pt x="1215" y="1114" on="0"/>
        <pt x="1211" y="1128" on="0"/>
        <pt x="1207" y="1140" on="0"/>
        <pt x="1206" y="1142" on="1"/>
        <pt x="1206" y="1143" on="0"/>
        <pt x="1201" y="1151" on="0"/>
        <pt x="1194" y="1160" on="0"/>
        <pt x="1189" y="1167" on="0"/>
        <pt x="1189" y="1168" on="1"/>
        <pt x="1163" y="1204" on="0"/>
        <pt x="1121" y="1259" on="0"/>
        <pt x="1088" y="1287" on="1"/>
        <pt x="1067" y="1304" on="0"/>
        <pt x="1021" y="1350" on="0"/>
        <pt x="994" y="1361" on="1"/>
        <pt x="993" y="1362" on="0"/>
        <pt x="966" y="1368" on="0"/>
        <pt x="962" y="1368" on="1"/>
        <pt x="961" y="1369" on="0"/>
        <pt x="946" y="1386" on="0"/>
        <pt x="944" y="1386" on="1"/>
        <pt x="944" y="1388" on="0"/>
        <pt x="936" y="1393" on="0"/>
        <pt x="934" y="1393" on="1"/>
        <pt x="932" y="1393" on="0"/>
        <pt x="927" y="1395" on="0"/>
        <pt x="923" y="1396" on="1"/>
        <pt x="919" y="1397" on="0"/>
        <pt x="914" y="1398" on="1"/>
        <pt x="901" y="1404" on="0"/>
        <pt x="884" y="1412" on="0"/>
        <pt x="868" y="1418" on="0"/>
        <pt x="851" y="1422" on="0"/>
        <pt x="838" y="1423" on="1"/>
        <pt x="837" y="1423" on="0"/>
        <pt x="827" y="1425" on="0"/>
        <pt x="815" y="1428" on="0"/>
        <pt x="804" y="1430" on="0"/>
        <pt x="801" y="1430" on="1"/>
        <pt x="775" y="1436" on="0"/>
        <pt x="720" y="1448" on="0"/>
        <pt x="692" y="1448" on="1"/>
        <pt x="670" y="1448" on="1"/>
        <pt x="663" y="1447" on="0"/>
        <pt x="629" y="1443" on="0"/>
        <pt x="591" y="1437" on="0"/>
        <pt x="557" y="1432" on="0"/>
        <pt x="551" y="1430" on="1"/>
        <pt x="543" y="1425" on="0"/>
        <pt x="532" y="1395" on="0"/>
        <pt x="532" y="1386" on="1"/>
        <pt x="532" y="1057" on="1"/>
        <pt x="535" y="1044" on="0"/>
        <pt x="537" y="1025" on="0"/>
        <pt x="539" y="1009" on="0"/>
        <pt x="539" y="992" on="0"/>
        <pt x="539" y="981" on="1"/>
        <pt x="539" y="956" on="1"/>
        <pt x="539" y="954" on="0"/>
        <pt x="537" y="939" on="0"/>
        <pt x="534" y="923" on="0"/>
        <pt x="532" y="908" on="0"/>
        <pt x="532" y="906" on="1"/>
        <pt x="532" y="896" on="0"/>
        <pt x="530" y="847" on="0"/>
        <pt x="528" y="791" on="0"/>
        <pt x="526" y="741" on="0"/>
        <pt x="526" y="731" on="1"/>
        <pt x="521" y="720" on="0"/>
        <pt x="519" y="692" on="0"/>
        <pt x="519" y="680" on="1"/>
        <pt x="519" y="664" on="1"/>
        <pt x="519" y="637" on="0"/>
        <pt x="521" y="596" on="0"/>
      </contour>
      <contour>
        <pt x="70" y="20" on="1"/>
        <pt x="70" y="29" on="0"/>
        <pt x="82" y="44" on="0"/>
        <pt x="100" y="54" on="0"/>
        <pt x="119" y="61" on="0"/>
        <pt x="127" y="62" on="1"/>
        <pt x="147" y="65" on="0"/>
        <pt x="197" y="64" on="0"/>
        <pt x="247" y="67" on="0"/>
        <pt x="289" y="82" on="0"/>
        <pt x="301" y="101" on="1"/>
        <pt x="301" y="134" on="1"/>
        <pt x="301" y="152" on="0"/>
        <pt x="295" y="181" on="0"/>
        <pt x="295" y="197" on="1"/>
        <pt x="295" y="200" on="1"/>
        <pt x="295" y="202" on="0"/>
        <pt x="297" y="217" on="0"/>
        <pt x="299" y="233" on="0"/>
        <pt x="301" y="248" on="0"/>
        <pt x="301" y="250" on="1"/>
        <pt x="301" y="259" on="1"/>
        <pt x="301" y="280" on="0"/>
        <pt x="295" y="321" on="0"/>
        <pt x="295" y="344" on="1"/>
        <pt x="295" y="356" on="1"/>
        <pt x="295" y="357" on="0"/>
        <pt x="297" y="369" on="0"/>
        <pt x="299" y="381" on="0"/>
        <pt x="301" y="392" on="0"/>
        <pt x="301" y="393" on="1"/>
        <pt x="301" y="482" on="1"/>
        <pt x="301" y="544" on="0"/>
        <pt x="295" y="665" on="0"/>
        <pt x="295" y="726" on="1"/>
        <pt x="295" y="813" on="1"/>
        <pt x="295" y="816" on="0"/>
        <pt x="297" y="844" on="0"/>
        <pt x="299" y="875" on="0"/>
        <pt x="301" y="903" on="0"/>
        <pt x="301" y="906" on="1"/>
        <pt x="301" y="1082" on="1"/>
        <pt x="301" y="1084" on="0"/>
        <pt x="303" y="1095" on="0"/>
        <pt x="305" y="1109" on="0"/>
        <pt x="307" y="1121" on="0"/>
        <pt x="307" y="1124" on="1"/>
        <pt x="307" y="1373" on="1"/>
        <pt x="307" y="1378" on="0"/>
        <pt x="298" y="1399" on="0"/>
        <pt x="295" y="1404" on="1"/>
        <pt x="293" y="1409" on="0"/>
        <pt x="284" y="1421" on="0"/>
        <pt x="282" y="1423" on="1"/>
        <pt x="277" y="1430" on="0"/>
        <pt x="245" y="1440" on="0"/>
        <pt x="202" y="1446" on="0"/>
        <pt x="154" y="1452" on="0"/>
        <pt x="115" y="1459" on="0"/>
        <pt x="89" y="1471" on="0"/>
        <pt x="89" y="1480" on="1"/>
        <pt x="89" y="1494" on="0"/>
        <pt x="116" y="1505" on="0"/>
        <pt x="127" y="1505" on="1"/>
        <pt x="173" y="1505" on="1"/>
        <pt x="220" y="1505" on="1"/>
        <pt x="228" y="1500" on="0"/>
        <pt x="252" y="1497" on="0"/>
        <pt x="264" y="1497" on="1"/>
        <pt x="274" y="1497" on="0"/>
        <pt x="290" y="1499" on="0"/>
        <pt x="295" y="1499" on="1"/>
        <pt x="355" y="1496" on="0"/>
        <pt x="472" y="1487" on="0"/>
        <pt x="532" y="1487" on="1"/>
        <pt x="544" y="1487" on="1"/>
        <pt x="546" y="1487" on="0"/>
        <pt x="562" y="1494" on="0"/>
        <pt x="564" y="1494" on="1"/>
        <pt x="623" y="1498" on="0"/>
        <pt x="740" y="1499" on="0"/>
        <pt x="799" y="1499" on="1"/>
        <pt x="845" y="1499" on="1"/>
        <pt x="873" y="1497" on="0"/>
        <pt x="925" y="1486" on="0"/>
        <pt x="976" y="1472" on="0"/>
        <pt x="1028" y="1459" on="0"/>
        <pt x="1057" y="1455" on="1"/>
        <pt x="1072" y="1442" on="0"/>
        <pt x="1110" y="1432" on="0"/>
        <pt x="1127" y="1423" on="1"/>
        <pt x="1168" y="1404" on="0"/>
        <pt x="1256" y="1366" on="0"/>
        <pt x="1288" y="1337" on="1"/>
        <pt x="1358" y="1275" on="0"/>
        <pt x="1462" y="1149" on="0"/>
        <pt x="1530" y="1012" on="0"/>
        <pt x="1564" y="856" on="0"/>
        <pt x="1564" y="764" on="1"/>
        <pt x="1564" y="669" on="0"/>
        <pt x="1530" y="509" on="0"/>
        <pt x="1460" y="368" on="0"/>
        <pt x="1354" y="239" on="0"/>
        <pt x="1282" y="175" on="1"/>
        <pt x="1266" y="164" on="0"/>
        <pt x="1225" y="154" on="0"/>
        <pt x="1206" y="143" on="1"/>
        <pt x="1186" y="130" on="0"/>
        <pt x="1144" y="96" on="0"/>
        <pt x="1120" y="87" on="1"/>
        <pt x="1060" y="67" on="0"/>
        <pt x="939" y="31" on="0"/>
        <pt x="877" y="18" on="1"/>
        <pt x="863" y="18" on="1"/>
        <pt x="823" y="16" on="0"/>
        <pt x="741" y="0" on="0"/>
        <pt x="702" y="0" on="1"/>
        <pt x="682" y="0" on="0"/>
        <pt x="657" y="2" on="0"/>
        <pt x="633" y="7" on="1"/>
        <pt x="631" y="7" on="0"/>
        <pt x="616" y="5" on="0"/>
        <pt x="615" y="5" on="1"/>
        <pt x="608" y="5" on="1"/>
        <pt x="601" y="5" on="1"/>
        <pt x="600" y="4" on="0"/>
        <pt x="591" y="3" on="0"/>
        <pt x="580" y="2" on="0"/>
        <pt x="571" y="1" on="0"/>
        <pt x="569" y="0" on="1"/>
        <pt x="358" y="0" on="1"/>
        <pt x="306" y="-2" on="0"/>
        <pt x="200" y="-13" on="0"/>
        <pt x="148" y="-13" on="1"/>
        <pt x="138" y="-13" on="0"/>
        <pt x="111" y="-13" on="0"/>
        <pt x="87" y="-7" on="0"/>
        <pt x="70" y="7" on="0"/>
      </contour>
    </TTGlyph>
    <TTGlyph name="Dcaron" xMin="70" yMin="-13" xMax="1564" yMax="1920">
      <component glyphName="D" x="0" y="0" flags="0x204"/>
      <component glyphName="Caron" x="407" y="0" flags="0x4"/>
    </TTGlyph>
    <TTGlyph name="Dcroat" xMin="70" yMin="-13" xMax="1564" yMax="1505">
      <component glyphName="Eth" x="0" y="0" flags="0x204"/>
    </TTGlyph>
    <TTGlyph name="Dieresis" xMin="195" yMin="1656" xMax="773" yMax="1834">
      <contour>
        <pt x="583" y="1743" on="1"/>
        <pt x="585" y="1781" on="0"/>
        <pt x="638" y="1834" on="0"/>
        <pt x="672" y="1834" on="1"/>
        <pt x="699" y="1834" on="0"/>
        <pt x="724" y="1826" on="0"/>
        <pt x="739" y="1817" on="1"/>
        <pt x="751" y="1811" on="0"/>
        <pt x="773" y="1770" on="0"/>
        <pt x="773" y="1755" on="1"/>
        <pt x="773" y="1740" on="0"/>
        <pt x="760" y="1707" on="0"/>
        <pt x="750" y="1694" on="1"/>
        <pt x="733" y="1674" on="0"/>
        <pt x="709" y="1658" on="0"/>
        <pt x="686" y="1658" on="1"/>
        <pt x="681" y="1658" on="1"/>
        <pt x="669" y="1658" on="0"/>
        <pt x="635" y="1668" on="0"/>
        <pt x="605" y="1689" on="0"/>
        <pt x="583" y="1721" on="0"/>
      </contour>
      <contour>
        <pt x="375" y="1747" on="1"/>
        <pt x="375" y="1707" on="0"/>
        <pt x="335" y="1665" on="0"/>
        <pt x="301" y="1656" on="1"/>
        <pt x="284" y="1656" on="1"/>
        <pt x="267" y="1656" on="0"/>
        <pt x="231" y="1667" on="0"/>
        <pt x="219" y="1678" on="1"/>
        <pt x="206" y="1689" on="0"/>
        <pt x="197" y="1715" on="0"/>
        <pt x="195" y="1731" on="1"/>
        <pt x="195" y="1743" on="0"/>
        <pt x="201" y="1777" on="0"/>
        <pt x="207" y="1784" on="1"/>
        <pt x="224" y="1807" on="0"/>
        <pt x="258" y="1832" on="0"/>
        <pt x="284" y="1832" on="1"/>
        <pt x="326" y="1832" on="0"/>
        <pt x="375" y="1791" on="0"/>
      </contour>
    </TTGlyph>
    <TTGlyph name="Dotaccent" xMin="244" yMin="1624" xMax="505" yMax="1885">
      <contour>
        <pt x="244" y="1750" on="1"/>
        <pt x="244" y="1781" on="0"/>
        <pt x="272" y="1832" on="0"/>
        <pt x="317" y="1866" on="0"/>
        <pt x="373" y="1885" on="0"/>
        <pt x="402" y="1885" on="1"/>
        <pt x="405" y="1885" on="0"/>
        <pt x="422" y="1879" on="0"/>
        <pt x="440" y="1872" on="0"/>
        <pt x="457" y="1866" on="0"/>
        <pt x="461" y="1865" on="1"/>
        <pt x="480" y="1836" on="0"/>
        <pt x="505" y="1791" on="0"/>
        <pt x="505" y="1756" on="1"/>
        <pt x="505" y="1718" on="0"/>
        <pt x="479" y="1657" on="0"/>
        <pt x="441" y="1643" on="1"/>
        <pt x="439" y="1642" on="0"/>
        <pt x="427" y="1636" on="0"/>
        <pt x="413" y="1629" on="0"/>
        <pt x="400" y="1624" on="0"/>
        <pt x="397" y="1624" on="1"/>
        <pt x="387" y="1624" on="1"/>
        <pt x="359" y="1624" on="0"/>
        <pt x="308" y="1641" on="0"/>
        <pt x="268" y="1674" on="0"/>
        <pt x="244" y="1721" on="0"/>
      </contour>
    </TTGlyph>
    <TTGlyph name="E" xMin="66" yMin="-25" xMax="1408" yMax="1498">
      <contour>
        <pt x="110" y="17" on="1"/>
        <pt x="110" y="25" on="1"/>
        <pt x="122" y="46" on="0"/>
        <pt x="161" y="61" on="0"/>
        <pt x="205" y="64" on="0"/>
        <pt x="251" y="63" on="0"/>
        <pt x="287" y="75" on="0"/>
        <pt x="310" y="108" on="0"/>
        <pt x="310" y="143" on="1"/>
        <pt x="310" y="321" on="1"/>
        <pt x="310" y="499" on="1"/>
        <pt x="310" y="502" on="0"/>
        <pt x="308" y="523" on="0"/>
        <pt x="305" y="549" on="0"/>
        <pt x="303" y="570" on="0"/>
        <pt x="303" y="573" on="1"/>
        <pt x="303" y="591" on="1"/>
        <pt x="303" y="605" on="0"/>
        <pt x="304" y="628" on="0"/>
        <pt x="305" y="650" on="0"/>
        <pt x="308" y="675" on="0"/>
        <pt x="310" y="692" on="1"/>
        <pt x="310" y="695" on="0"/>
        <pt x="316" y="704" on="0"/>
        <pt x="316" y="706" on="1"/>
        <pt x="316" y="707" on="1"/>
        <pt x="316" y="712" on="1"/>
        <pt x="316" y="715" on="0"/>
        <pt x="310" y="739" on="0"/>
        <pt x="310" y="743" on="1"/>
        <pt x="310" y="961" on="1"/>
        <pt x="310" y="964" on="0"/>
        <pt x="308" y="991" on="0"/>
        <pt x="305" y="1023" on="0"/>
        <pt x="303" y="1050" on="0"/>
        <pt x="303" y="1053" on="1"/>
        <pt x="303" y="1085" on="1"/>
        <pt x="303" y="1117" on="1"/>
        <pt x="303" y="1121" on="0"/>
        <pt x="305" y="1142" on="0"/>
        <pt x="307" y="1166" on="0"/>
        <pt x="309" y="1188" on="0"/>
        <pt x="310" y="1193" on="1"/>
        <pt x="310" y="1194" on="0"/>
        <pt x="316" y="1214" on="0"/>
        <pt x="316" y="1216" on="1"/>
        <pt x="316" y="1221" on="1"/>
        <pt x="316" y="1228" on="1"/>
        <pt x="314" y="1243" on="0"/>
        <pt x="309" y="1280" on="0"/>
        <pt x="304" y="1318" on="0"/>
        <pt x="299" y="1354" on="0"/>
        <pt x="296" y="1368" on="1"/>
        <pt x="292" y="1386" on="0"/>
        <pt x="265" y="1401" on="0"/>
        <pt x="231" y="1407" on="0"/>
        <pt x="196" y="1408" on="0"/>
        <pt x="184" y="1411" on="1"/>
        <pt x="183" y="1411" on="0"/>
        <pt x="161" y="1417" on="0"/>
        <pt x="131" y="1424" on="0"/>
        <pt x="100" y="1433" on="0"/>
        <pt x="91" y="1436" on="1"/>
        <pt x="74" y="1441" on="0"/>
        <pt x="66" y="1454" on="0"/>
        <pt x="66" y="1472" on="1"/>
        <pt x="66" y="1485" on="1"/>
        <pt x="68" y="1489" on="0"/>
        <pt x="93" y="1498" on="0"/>
        <pt x="98" y="1497" on="1"/>
        <pt x="143" y="1497" on="1"/>
        <pt x="200" y="1497" on="0"/>
        <pt x="321" y="1489" on="0"/>
        <pt x="378" y="1485" on="1"/>
        <pt x="380" y="1485" on="0"/>
        <pt x="401" y="1480" on="0"/>
        <pt x="404" y="1478" on="1"/>
        <pt x="405" y="1478" on="1"/>
        <pt x="409" y="1478" on="1"/>
        <pt x="411" y="1480" on="0"/>
        <pt x="432" y="1485" on="0"/>
        <pt x="434" y="1485" on="1"/>
        <pt x="435" y="1485" on="0"/>
        <pt x="441" y="1481" on="1"/>
        <pt x="444" y="1479" on="0"/>
        <pt x="446" y="1478" on="1"/>
        <pt x="452" y="1478" on="1"/>
        <pt x="459" y="1478" on="1"/>
        <pt x="460" y="1479" on="0"/>
        <pt x="471" y="1483" on="0"/>
        <pt x="484" y="1487" on="0"/>
        <pt x="495" y="1490" on="0"/>
        <pt x="496" y="1490" on="1"/>
        <pt x="499" y="1490" on="0"/>
        <pt x="510" y="1487" on="0"/>
        <pt x="522" y="1484" on="0"/>
        <pt x="533" y="1479" on="0"/>
        <pt x="535" y="1478" on="1"/>
        <pt x="629" y="1478" on="1"/>
        <pt x="685" y="1478" on="0"/>
        <pt x="793" y="1485" on="0"/>
        <pt x="849" y="1485" on="1"/>
        <pt x="864" y="1485" on="1"/>
        <pt x="870" y="1485" on="0"/>
        <pt x="896" y="1483" on="0"/>
        <pt x="926" y="1481" on="0"/>
        <pt x="952" y="1479" on="0"/>
        <pt x="958" y="1478" on="1"/>
        <pt x="960" y="1480" on="0"/>
        <pt x="975" y="1485" on="0"/>
        <pt x="977" y="1485" on="1"/>
        <pt x="980" y="1485" on="1"/>
        <pt x="994" y="1485" on="0"/>
        <pt x="1015" y="1478" on="0"/>
        <pt x="1035" y="1478" on="1"/>
        <pt x="1059" y="1478" on="0"/>
        <pt x="1109" y="1485" on="0"/>
        <pt x="1133" y="1485" on="1"/>
        <pt x="1158" y="1485" on="1"/>
        <pt x="1177" y="1485" on="0"/>
        <pt x="1222" y="1480" on="0"/>
        <pt x="1234" y="1472" on="1"/>
        <pt x="1235" y="1472" on="0"/>
        <pt x="1240" y="1462" on="0"/>
        <pt x="1240" y="1460" on="1"/>
        <pt x="1240" y="1426" on="1"/>
        <pt x="1240" y="1383" on="0"/>
        <pt x="1227" y="1300" on="0"/>
        <pt x="1227" y="1258" on="1"/>
        <pt x="1227" y="1235" on="0"/>
        <pt x="1234" y="1192" on="0"/>
        <pt x="1234" y="1168" on="1"/>
        <pt x="1234" y="1154" on="1"/>
        <pt x="1234" y="1144" on="0"/>
        <pt x="1228" y="1127" on="0"/>
        <pt x="1215" y="1127" on="1"/>
        <pt x="1199" y="1127" on="0"/>
        <pt x="1176" y="1155" on="0"/>
        <pt x="1158" y="1192" on="0"/>
        <pt x="1145" y="1231" on="0"/>
        <pt x="1140" y="1242" on="1"/>
        <pt x="1138" y="1243" on="0"/>
        <pt x="1131" y="1254" on="0"/>
        <pt x="1122" y="1266" on="0"/>
        <pt x="1115" y="1277" on="0"/>
        <pt x="1114" y="1278" on="1"/>
        <pt x="1102" y="1300" on="0"/>
        <pt x="1076" y="1345" on="0"/>
        <pt x="1043" y="1383" on="0"/>
        <pt x="1001" y="1408" on="0"/>
        <pt x="972" y="1411" on="1"/>
        <pt x="959" y="1410" on="0"/>
        <pt x="898" y="1410" on="0"/>
        <pt x="864" y="1410" on="1"/>
        <pt x="830" y="1410" on="0"/>
        <pt x="769" y="1410" on="0"/>
        <pt x="758" y="1411" on="1"/>
        <pt x="755" y="1411" on="0"/>
        <pt x="733" y="1413" on="0"/>
        <pt x="708" y="1416" on="0"/>
        <pt x="686" y="1418" on="0"/>
        <pt x="683" y="1418" on="1"/>
        <pt x="681" y="1418" on="0"/>
        <pt x="669" y="1416" on="0"/>
        <pt x="655" y="1413" on="0"/>
        <pt x="642" y="1411" on="0"/>
        <pt x="639" y="1411" on="1"/>
        <pt x="620" y="1411" on="1"/>
        <pt x="612" y="1411" on="0"/>
        <pt x="595" y="1413" on="0"/>
        <pt x="587" y="1413" on="1"/>
        <pt x="568" y="1413" on="0"/>
        <pt x="538" y="1399" on="0"/>
        <pt x="528" y="1373" on="1"/>
        <pt x="528" y="1272" on="1"/>
        <pt x="528" y="1271" on="0"/>
        <pt x="526" y="1263" on="0"/>
        <pt x="523" y="1252" on="0"/>
        <pt x="521" y="1243" on="0"/>
        <pt x="521" y="1242" on="1"/>
        <pt x="521" y="1235" on="1"/>
        <pt x="521" y="1228" on="1"/>
        <pt x="521" y="1226" on="0"/>
        <pt x="526" y="1207" on="0"/>
        <pt x="528" y="1205" on="1"/>
        <pt x="528" y="855" on="1"/>
        <pt x="528" y="852" on="0"/>
        <pt x="529" y="836" on="0"/>
        <pt x="531" y="816" on="0"/>
        <pt x="533" y="796" on="0"/>
        <pt x="535" y="791" on="1"/>
        <pt x="536" y="777" on="0"/>
        <pt x="545" y="766" on="0"/>
        <pt x="560" y="766" on="1"/>
        <pt x="578" y="766" on="1"/>
        <pt x="587" y="766" on="0"/>
        <pt x="625" y="768" on="0"/>
        <pt x="672" y="769" on="0"/>
        <pt x="725" y="771" on="0"/>
        <pt x="774" y="772" on="0"/>
        <pt x="812" y="773" on="0"/>
        <pt x="822" y="773" on="1"/>
        <pt x="835" y="776" on="0"/>
        <pt x="862" y="780" on="0"/>
        <pt x="889" y="787" on="0"/>
        <pt x="912" y="799" on="0"/>
        <pt x="921" y="810" on="1"/>
        <pt x="922" y="813" on="0"/>
        <pt x="923" y="829" on="0"/>
        <pt x="925" y="847" on="0"/>
        <pt x="926" y="864" on="0"/>
        <pt x="926" y="867" on="1"/>
        <pt x="926" y="1003" on="1"/>
        <pt x="926" y="1026" on="0"/>
        <pt x="964" y="1053" on="0"/>
        <pt x="983" y="1053" on="1"/>
        <pt x="1002" y="1053" on="0"/>
        <pt x="1021" y="1020" on="0"/>
        <pt x="1027" y="1003" on="1"/>
        <pt x="1025" y="992" on="0"/>
        <pt x="1025" y="935" on="0"/>
        <pt x="1025" y="902" on="1"/>
        <pt x="1025" y="869" on="0"/>
        <pt x="1025" y="809" on="0"/>
        <pt x="1027" y="798" on="1"/>
        <pt x="1027" y="792" on="0"/>
        <pt x="1029" y="758" on="0"/>
        <pt x="1031" y="720" on="0"/>
        <pt x="1033" y="686" on="0"/>
        <pt x="1034" y="680" on="1"/>
        <pt x="1035" y="655" on="0"/>
        <pt x="1047" y="606" on="0"/>
        <pt x="1047" y="580" on="1"/>
        <pt x="1047" y="573" on="1"/>
        <pt x="1046" y="564" on="0"/>
        <pt x="1043" y="534" on="0"/>
        <pt x="1041" y="505" on="0"/>
        <pt x="1040" y="482" on="0"/>
        <pt x="1040" y="480" on="1"/>
        <pt x="1036" y="463" on="0"/>
        <pt x="1019" y="444" on="0"/>
        <pt x="1002" y="444" on="1"/>
        <pt x="976" y="444" on="0"/>
        <pt x="948" y="462" on="0"/>
        <pt x="940" y="487" on="1"/>
        <pt x="940" y="591" on="1"/>
        <pt x="940" y="594" on="0"/>
        <pt x="933" y="615" on="0"/>
        <pt x="933" y="617" on="1"/>
        <pt x="933" y="620" on="0"/>
        <pt x="931" y="636" on="0"/>
        <pt x="928" y="654" on="0"/>
        <pt x="926" y="671" on="0"/>
        <pt x="926" y="674" on="1"/>
        <pt x="925" y="676" on="0"/>
        <pt x="917" y="683" on="0"/>
        <pt x="907" y="691" on="0"/>
        <pt x="898" y="698" on="0"/>
        <pt x="896" y="699" on="1"/>
        <pt x="893" y="699" on="1"/>
        <pt x="889" y="699" on="1"/>
        <pt x="832" y="692" on="0"/>
        <pt x="717" y="685" on="0"/>
        <pt x="659" y="685" on="1"/>
        <pt x="639" y="685" on="0"/>
        <pt x="598" y="685" on="0"/>
        <pt x="578" y="687" on="1"/>
        <pt x="557" y="682" on="0"/>
        <pt x="537" y="675" on="0"/>
        <pt x="530" y="663" on="0"/>
        <pt x="529" y="641" on="0"/>
        <pt x="528" y="623" on="1"/>
        <pt x="528" y="622" on="0"/>
        <pt x="521" y="606" on="0"/>
        <pt x="521" y="605" on="1"/>
        <pt x="521" y="603" on="1"/>
        <pt x="521" y="598" on="1"/>
        <pt x="521" y="597" on="0"/>
        <pt x="523" y="586" on="0"/>
        <pt x="526" y="573" on="0"/>
        <pt x="528" y="562" on="0"/>
        <pt x="528" y="561" on="1"/>
        <pt x="528" y="554" on="1"/>
        <pt x="528" y="548" on="1"/>
        <pt x="528" y="546" on="0"/>
        <pt x="521" y="521" on="0"/>
        <pt x="521" y="519" on="1"/>
        <pt x="521" y="514" on="1"/>
        <pt x="521" y="512" on="1"/>
        <pt x="521" y="509" on="0"/>
        <pt x="523" y="487" on="0"/>
        <pt x="526" y="461" on="0"/>
        <pt x="528" y="440" on="0"/>
        <pt x="528" y="437" on="1"/>
        <pt x="528" y="250" on="1"/>
        <pt x="528" y="248" on="0"/>
        <pt x="530" y="227" on="0"/>
        <pt x="533" y="203" on="0"/>
        <pt x="535" y="182" on="0"/>
        <pt x="535" y="180" on="1"/>
        <pt x="535" y="92" on="1"/>
        <pt x="540" y="70" on="0"/>
        <pt x="560" y="57" on="1"/>
        <pt x="566" y="56" on="0"/>
        <pt x="598" y="52" on="0"/>
        <pt x="633" y="47" on="0"/>
        <pt x="665" y="44" on="0"/>
        <pt x="671" y="44" on="1"/>
        <pt x="689" y="44" on="1"/>
        <pt x="731" y="44" on="0"/>
        <pt x="812" y="50" on="0"/>
        <pt x="856" y="50" on="1"/>
        <pt x="901" y="50" on="1"/>
        <pt x="903" y="49" on="0"/>
        <pt x="919" y="44" on="0"/>
        <pt x="921" y="44" on="1"/>
        <pt x="922" y="44" on="0"/>
        <pt x="935" y="46" on="0"/>
        <pt x="950" y="48" on="0"/>
        <pt x="963" y="50" on="0"/>
        <pt x="965" y="50" on="1"/>
        <pt x="1024" y="50" on="1"/>
        <pt x="1082" y="50" on="1"/>
        <pt x="1089" y="45" on="0"/>
        <pt x="1096" y="44" on="0"/>
        <pt x="1101" y="44" on="1"/>
        <pt x="1108" y="44" on="1"/>
        <pt x="1116" y="44" on="0"/>
        <pt x="1143" y="49" on="0"/>
        <pt x="1145" y="50" on="1"/>
        <pt x="1166" y="57" on="0"/>
        <pt x="1179" y="84" on="0"/>
        <pt x="1190" y="99" on="1"/>
        <pt x="1191" y="100" on="0"/>
        <pt x="1198" y="107" on="0"/>
        <pt x="1206" y="116" on="0"/>
        <pt x="1214" y="123" on="0"/>
        <pt x="1215" y="124" on="1"/>
        <pt x="1228" y="139" on="0"/>
        <pt x="1246" y="176" on="0"/>
        <pt x="1259" y="193" on="1"/>
        <pt x="1259" y="195" on="0"/>
        <pt x="1276" y="210" on="0"/>
        <pt x="1277" y="212" on="1"/>
        <pt x="1282" y="218" on="0"/>
        <pt x="1298" y="250" on="0"/>
        <pt x="1317" y="291" on="0"/>
        <pt x="1338" y="335" on="0"/>
        <pt x="1360" y="371" on="0"/>
        <pt x="1382" y="395" on="0"/>
        <pt x="1393" y="395" on="1"/>
        <pt x="1404" y="395" on="0"/>
        <pt x="1408" y="375" on="0"/>
        <pt x="1408" y="365" on="1"/>
        <pt x="1408" y="353" on="1"/>
        <pt x="1408" y="341" on="1"/>
        <pt x="1408" y="333" on="0"/>
        <pt x="1407" y="320" on="0"/>
        <pt x="1402" y="312" on="1"/>
        <pt x="1370" y="87" on="1"/>
        <pt x="1370" y="82" on="1"/>
        <pt x="1370" y="76" on="1"/>
        <pt x="1370" y="72" on="0"/>
        <pt x="1376" y="45" on="0"/>
        <pt x="1376" y="44" on="1"/>
        <pt x="1376" y="30" on="0"/>
        <pt x="1364" y="6" on="0"/>
        <pt x="1351" y="0" on="1"/>
        <pt x="1176" y="0" on="1"/>
        <pt x="1172" y="0" on="0"/>
        <pt x="1137" y="-4" on="0"/>
        <pt x="1097" y="-9" on="0"/>
        <pt x="1063" y="-13" on="0"/>
        <pt x="1059" y="-13" on="1"/>
        <pt x="1040" y="-13" on="1"/>
        <pt x="1036" y="-13" on="0"/>
        <pt x="1018" y="-17" on="0"/>
        <pt x="1015" y="-18" on="1"/>
        <pt x="849" y="-18" on="1"/>
        <pt x="683" y="-18" on="1"/>
        <pt x="617" y="-17" on="0"/>
        <pt x="482" y="0" on="0"/>
        <pt x="414" y="0" on="1"/>
        <pt x="385" y="0" on="0"/>
        <pt x="328" y="-8" on="0"/>
        <pt x="271" y="-17" on="0"/>
        <pt x="214" y="-25" on="0"/>
        <pt x="184" y="-25" on="1"/>
        <pt x="135" y="-25" on="1"/>
        <pt x="124" y="-16" on="0"/>
        <pt x="110" y="3" on="0"/>
      </contour>
    </TTGlyph>
    <TTGlyph name="Eacute" xMin="66" yMin="-25" xMax="1408" yMax="1923">
      <component glyphName="E" x="0" y="0" flags="0x204"/>
      <component glyphName="Acute" x="435" y="0" flags="0x4"/>
    </TTGlyph>
    <TTGlyph name="Ecaron" xMin="66" yMin="-25" xMax="1408" yMax="1920">
      <component glyphName="E" x="0" y="0" flags="0x204"/>
      <component glyphName="Caron" x="346" y="0" flags="0x4"/>
    </TTGlyph>
    <TTGlyph name="Ecircumflex" xMin="66" yMin="-25" xMax="1408" yMax="1920">
      <component glyphName="E" x="0" y="0" flags="0x204"/>
      <component glyphName="Circumflex" x="268" y="0" flags="0x4"/>
    </TTGlyph>
    <TTGlyph name="Edieresis" xMin="66" yMin="-25" xMax="1408" yMax="1834">
      <component glyphName="E" x="0" y="0" flags="0x204"/>
      <component glyphName="Dieresis" x="292" y="0" flags="0x4"/>
    </TTGlyph>
    <TTGlyph name="Edotaccent" xMin="66" yMin="-25" xMax="1408" yMax="1885">
      <component glyphName="E" x="0" y="0" flags="0x204"/>
      <component glyphName="Dotaccent" x="365" y="0" flags="0x4"/>
    </TTGlyph>
    <TTGlyph name="Egrave" xMin="66" yMin="-25" xMax="1408" yMax="1920">
      <component glyphName="E" x="0" y="0" flags="0x204"/>
      <component glyphName="Grave" x="222" y="0" flags="0x4"/>
    </TTGlyph>
    <TTGlyph name="Emacron" xMin="66" yMin="-25" xMax="1408" yMax="1763">
      <component glyphName="E" x="0" y="0" flags="0x204"/>
      <component glyphName="Macron" x="294" y="0" flags="0x4"/>
    </TTGlyph>
    <TTGlyph name="Eogonek" xMin="66" yMin="-482" xMax="1408" yMax="1498">
      <contour>
        <pt x="110" y="17" on="1"/>
        <pt x="110" y="25" on="1"/>
        <pt x="122" y="46" on="0"/>
        <pt x="161" y="61" on="0"/>
        <pt x="205" y="64" on="0"/>
        <pt x="251" y="63" on="0"/>
        <pt x="287" y="75" on="0"/>
        <pt x="310" y="108" on="0"/>
        <pt x="310" y="143" on="1"/>
        <pt x="310" y="499" on="1"/>
        <pt x="310" y="502" on="0"/>
        <pt x="308" y="523" on="0"/>
        <pt x="305" y="549" on="0"/>
        <pt x="303" y="570" on="0"/>
        <pt x="303" y="573" on="1"/>
        <pt x="303" y="591" on="1"/>
        <pt x="303" y="605" on="0"/>
        <pt x="304" y="628" on="0"/>
        <pt x="305" y="650" on="0"/>
        <pt x="308" y="675" on="0"/>
        <pt x="310" y="692" on="1"/>
        <pt x="310" y="695" on="0"/>
        <pt x="316" y="704" on="0"/>
        <pt x="316" y="706" on="1"/>
        <pt x="316" y="712" on="1"/>
        <pt x="316" y="715" on="0"/>
        <pt x="310" y="739" on="0"/>
        <pt x="310" y="743" on="1"/>
        <pt x="310" y="961" on="1"/>
        <pt x="310" y="964" on="0"/>
        <pt x="308" y="991" on="0"/>
        <pt x="305" y="1023" on="0"/>
        <pt x="303" y="1050" on="0"/>
        <pt x="303" y="1053" on="1"/>
        <pt x="303" y="1117" on="1"/>
        <pt x="303" y="1121" on="0"/>
        <pt x="305" y="1142" on="0"/>
        <pt x="307" y="1166" on="0"/>
        <pt x="309" y="1188" on="0"/>
        <pt x="310" y="1193" on="1"/>
        <pt x="310" y="1194" on="0"/>
        <pt x="316" y="1214" on="0"/>
        <pt x="316" y="1216" on="1"/>
        <pt x="316" y="1228" on="1"/>
        <pt x="314" y="1243" on="0"/>
        <pt x="309" y="1280" on="0"/>
        <pt x="304" y="1318" on="0"/>
        <pt x="299" y="1354" on="0"/>
        <pt x="296" y="1368" on="1"/>
        <pt x="292" y="1386" on="0"/>
        <pt x="265" y="1401" on="0"/>
        <pt x="231" y="1407" on="0"/>
        <pt x="196" y="1408" on="0"/>
        <pt x="184" y="1411" on="1"/>
        <pt x="183" y="1411" on="0"/>
        <pt x="161" y="1417" on="0"/>
        <pt x="131" y="1424" on="0"/>
        <pt x="100" y="1433" on="0"/>
        <pt x="91" y="1436" on="1"/>
        <pt x="74" y="1441" on="0"/>
        <pt x="66" y="1454" on="0"/>
        <pt x="66" y="1472" on="1"/>
        <pt x="66" y="1485" on="1"/>
        <pt x="68" y="1489" on="0"/>
        <pt x="93" y="1498" on="0"/>
        <pt x="98" y="1497" on="1"/>
        <pt x="143" y="1497" on="1"/>
        <pt x="200" y="1497" on="0"/>
        <pt x="321" y="1489" on="0"/>
        <pt x="378" y="1485" on="1"/>
        <pt x="380" y="1485" on="0"/>
        <pt x="401" y="1480" on="0"/>
        <pt x="404" y="1478" on="1"/>
        <pt x="409" y="1478" on="1"/>
        <pt x="411" y="1480" on="0"/>
        <pt x="432" y="1485" on="0"/>
        <pt x="434" y="1485" on="1"/>
        <pt x="435" y="1485" on="0"/>
        <pt x="441" y="1481" on="1"/>
        <pt x="444" y="1479" on="0"/>
        <pt x="446" y="1478" on="1"/>
        <pt x="459" y="1478" on="1"/>
        <pt x="460" y="1479" on="0"/>
        <pt x="471" y="1483" on="0"/>
        <pt x="484" y="1487" on="0"/>
        <pt x="495" y="1490" on="0"/>
        <pt x="496" y="1490" on="1"/>
        <pt x="499" y="1490" on="0"/>
        <pt x="510" y="1487" on="0"/>
        <pt x="522" y="1484" on="0"/>
        <pt x="533" y="1479" on="0"/>
        <pt x="535" y="1478" on="1"/>
        <pt x="629" y="1478" on="1"/>
        <pt x="685" y="1478" on="0"/>
        <pt x="793" y="1485" on="0"/>
        <pt x="849" y="1485" on="1"/>
        <pt x="864" y="1485" on="1"/>
        <pt x="870" y="1485" on="0"/>
        <pt x="896" y="1483" on="0"/>
        <pt x="926" y="1481" on="0"/>
        <pt x="952" y="1479" on="0"/>
        <pt x="958" y="1478" on="1"/>
        <pt x="960" y="1480" on="0"/>
        <pt x="975" y="1485" on="0"/>
        <pt x="977" y="1485" on="1"/>
        <pt x="980" y="1485" on="1"/>
        <pt x="994" y="1485" on="0"/>
        <pt x="1015" y="1478" on="0"/>
        <pt x="1035" y="1478" on="1"/>
        <pt x="1059" y="1478" on="0"/>
        <pt x="1109" y="1485" on="0"/>
        <pt x="1133" y="1485" on="1"/>
        <pt x="1158" y="1485" on="1"/>
        <pt x="1177" y="1485" on="0"/>
        <pt x="1222" y="1480" on="0"/>
        <pt x="1234" y="1472" on="1"/>
        <pt x="1235" y="1472" on="0"/>
        <pt x="1240" y="1462" on="0"/>
        <pt x="1240" y="1460" on="1"/>
        <pt x="1240" y="1426" on="1"/>
        <pt x="1240" y="1383" on="0"/>
        <pt x="1227" y="1300" on="0"/>
        <pt x="1227" y="1258" on="1"/>
        <pt x="1227" y="1235" on="0"/>
        <pt x="1234" y="1192" on="0"/>
        <pt x="1234" y="1168" on="1"/>
        <pt x="1234" y="1154" on="1"/>
        <pt x="1234" y="1144" on="0"/>
        <pt x="1228" y="1127" on="0"/>
        <pt x="1215" y="1127" on="1"/>
        <pt x="1199" y="1127" on="0"/>
        <pt x="1176" y="1155" on="0"/>
        <pt x="1158" y="1192" on="0"/>
        <pt x="1145" y="1231" on="0"/>
        <pt x="1140" y="1242" on="1"/>
        <pt x="1138" y="1243" on="0"/>
        <pt x="1131" y="1254" on="0"/>
        <pt x="1122" y="1266" on="0"/>
        <pt x="1115" y="1277" on="0"/>
        <pt x="1114" y="1278" on="1"/>
        <pt x="1102" y="1300" on="0"/>
        <pt x="1076" y="1345" on="0"/>
        <pt x="1043" y="1383" on="0"/>
        <pt x="1001" y="1408" on="0"/>
        <pt x="972" y="1411" on="1"/>
        <pt x="959" y="1410" on="0"/>
        <pt x="898" y="1410" on="0"/>
        <pt x="864" y="1410" on="1"/>
        <pt x="830" y="1410" on="0"/>
        <pt x="769" y="1410" on="0"/>
        <pt x="758" y="1411" on="1"/>
        <pt x="755" y="1411" on="0"/>
        <pt x="733" y="1413" on="0"/>
        <pt x="708" y="1416" on="0"/>
        <pt x="686" y="1418" on="0"/>
        <pt x="683" y="1418" on="1"/>
        <pt x="681" y="1418" on="0"/>
        <pt x="669" y="1416" on="0"/>
        <pt x="655" y="1413" on="0"/>
        <pt x="642" y="1411" on="0"/>
        <pt x="639" y="1411" on="1"/>
        <pt x="620" y="1411" on="1"/>
        <pt x="612" y="1411" on="0"/>
        <pt x="595" y="1413" on="0"/>
        <pt x="587" y="1413" on="1"/>
        <pt x="568" y="1413" on="0"/>
        <pt x="538" y="1399" on="0"/>
        <pt x="528" y="1373" on="1"/>
        <pt x="528" y="1272" on="1"/>
        <pt x="528" y="1271" on="0"/>
        <pt x="526" y="1263" on="0"/>
        <pt x="523" y="1252" on="0"/>
        <pt x="521" y="1243" on="0"/>
        <pt x="521" y="1242" on="1"/>
        <pt x="521" y="1228" on="1"/>
        <pt x="521" y="1226" on="0"/>
        <pt x="526" y="1207" on="0"/>
        <pt x="528" y="1205" on="1"/>
        <pt x="528" y="855" on="1"/>
        <pt x="528" y="852" on="0"/>
        <pt x="529" y="836" on="0"/>
        <pt x="531" y="816" on="0"/>
        <pt x="533" y="796" on="0"/>
        <pt x="535" y="791" on="1"/>
        <pt x="536" y="777" on="0"/>
        <pt x="545" y="766" on="0"/>
        <pt x="560" y="766" on="1"/>
        <pt x="578" y="766" on="1"/>
        <pt x="587" y="766" on="0"/>
        <pt x="625" y="768" on="0"/>
        <pt x="672" y="769" on="0"/>
        <pt x="725" y="771" on="0"/>
        <pt x="774" y="772" on="0"/>
        <pt x="812" y="773" on="0"/>
        <pt x="822" y="773" on="1"/>
        <pt x="835" y="776" on="0"/>
        <pt x="862" y="780" on="0"/>
        <pt x="889" y="787" on="0"/>
        <pt x="912" y="799" on="0"/>
        <pt x="921" y="810" on="1"/>
        <pt x="922" y="813" on="0"/>
        <pt x="923" y="829" on="0"/>
        <pt x="925" y="847" on="0"/>
        <pt x="926" y="864" on="0"/>
        <pt x="926" y="867" on="1"/>
        <pt x="926" y="1003" on="1"/>
        <pt x="926" y="1026" on="0"/>
        <pt x="964" y="1053" on="0"/>
        <pt x="983" y="1053" on="1"/>
        <pt x="1002" y="1053" on="0"/>
        <pt x="1021" y="1020" on="0"/>
        <pt x="1027" y="1003" on="1"/>
        <pt x="1025" y="992" on="0"/>
        <pt x="1025" y="935" on="0"/>
        <pt x="1025" y="902" on="1"/>
        <pt x="1025" y="869" on="0"/>
        <pt x="1025" y="809" on="0"/>
        <pt x="1027" y="798" on="1"/>
        <pt x="1027" y="792" on="0"/>
        <pt x="1029" y="758" on="0"/>
        <pt x="1031" y="720" on="0"/>
        <pt x="1033" y="686" on="0"/>
        <pt x="1034" y="680" on="1"/>
        <pt x="1035" y="655" on="0"/>
        <pt x="1047" y="606" on="0"/>
        <pt x="1047" y="580" on="1"/>
        <pt x="1047" y="573" on="1"/>
        <pt x="1046" y="564" on="0"/>
        <pt x="1043" y="534" on="0"/>
        <pt x="1041" y="505" on="0"/>
        <pt x="1040" y="482" on="0"/>
        <pt x="1040" y="480" on="1"/>
        <pt x="1036" y="463" on="0"/>
        <pt x="1019" y="444" on="0"/>
        <pt x="1002" y="444" on="1"/>
        <pt x="976" y="444" on="0"/>
        <pt x="948" y="462" on="0"/>
        <pt x="940" y="487" on="1"/>
        <pt x="940" y="591" on="1"/>
        <pt x="940" y="594" on="0"/>
        <pt x="933" y="615" on="0"/>
        <pt x="933" y="617" on="1"/>
        <pt x="933" y="620" on="0"/>
        <pt x="931" y="636" on="0"/>
        <pt x="928" y="654" on="0"/>
        <pt x="926" y="671" on="0"/>
        <pt x="926" y="674" on="1"/>
        <pt x="925" y="676" on="0"/>
        <pt x="917" y="683" on="0"/>
        <pt x="907" y="691" on="0"/>
        <pt x="898" y="698" on="0"/>
        <pt x="896" y="699" on="1"/>
        <pt x="889" y="699" on="1"/>
        <pt x="832" y="692" on="0"/>
        <pt x="717" y="685" on="0"/>
        <pt x="659" y="685" on="1"/>
        <pt x="639" y="685" on="0"/>
        <pt x="598" y="685" on="0"/>
        <pt x="578" y="687" on="1"/>
        <pt x="557" y="682" on="0"/>
        <pt x="537" y="675" on="0"/>
        <pt x="530" y="663" on="0"/>
        <pt x="529" y="641" on="0"/>
        <pt x="528" y="623" on="1"/>
        <pt x="528" y="622" on="0"/>
        <pt x="521" y="606" on="0"/>
        <pt x="521" y="605" on="1"/>
        <pt x="521" y="598" on="1"/>
        <pt x="521" y="597" on="0"/>
        <pt x="523" y="586" on="0"/>
        <pt x="526" y="573" on="0"/>
        <pt x="528" y="562" on="0"/>
        <pt x="528" y="561" on="1"/>
        <pt x="528" y="548" on="1"/>
        <pt x="528" y="546" on="0"/>
        <pt x="521" y="521" on="0"/>
        <pt x="521" y="519" on="1"/>
        <pt x="521" y="512" on="1"/>
        <pt x="521" y="509" on="0"/>
        <pt x="523" y="487" on="0"/>
        <pt x="526" y="461" on="0"/>
        <pt x="528" y="440" on="0"/>
        <pt x="528" y="437" on="1"/>
        <pt x="528" y="250" on="1"/>
        <pt x="528" y="248" on="0"/>
        <pt x="530" y="227" on="0"/>
        <pt x="533" y="203" on="0"/>
        <pt x="535" y="182" on="0"/>
        <pt x="535" y="180" on="1"/>
        <pt x="535" y="92" on="1"/>
        <pt x="540" y="70" on="0"/>
        <pt x="560" y="57" on="1"/>
        <pt x="566" y="56" on="0"/>
        <pt x="598" y="52" on="0"/>
        <pt x="633" y="47" on="0"/>
        <pt x="665" y="44" on="0"/>
        <pt x="671" y="44" on="1"/>
        <pt x="689" y="44" on="1"/>
        <pt x="731" y="44" on="0"/>
        <pt x="812" y="50" on="0"/>
        <pt x="856" y="50" on="1"/>
        <pt x="901" y="50" on="1"/>
        <pt x="903" y="49" on="0"/>
        <pt x="919" y="44" on="0"/>
        <pt x="921" y="44" on="1"/>
        <pt x="922" y="44" on="0"/>
        <pt x="935" y="46" on="0"/>
        <pt x="950" y="48" on="0"/>
        <pt x="963" y="50" on="0"/>
        <pt x="965" y="50" on="1"/>
        <pt x="1082" y="50" on="1"/>
        <pt x="1089" y="45" on="0"/>
        <pt x="1096" y="44" on="0"/>
        <pt x="1101" y="44" on="1"/>
        <pt x="1108" y="44" on="1"/>
        <pt x="1116" y="44" on="0"/>
        <pt x="1143" y="49" on="0"/>
        <pt x="1145" y="50" on="1"/>
        <pt x="1166" y="57" on="0"/>
        <pt x="1179" y="84" on="0"/>
        <pt x="1190" y="99" on="1"/>
        <pt x="1191" y="100" on="0"/>
        <pt x="1198" y="107" on="0"/>
        <pt x="1206" y="116" on="0"/>
        <pt x="1214" y="123" on="0"/>
        <pt x="1215" y="124" on="1"/>
        <pt x="1228" y="139" on="0"/>
        <pt x="1246" y="176" on="0"/>
        <pt x="1259" y="193" on="1"/>
        <pt x="1259" y="195" on="0"/>
        <pt x="1276" y="210" on="0"/>
        <pt x="1277" y="212" on="1"/>
        <pt x="1282" y="218" on="0"/>
        <pt x="1298" y="250" on="0"/>
        <pt x="1317" y="291" on="0"/>
        <pt x="1338" y="335" on="0"/>
        <pt x="1360" y="371" on="0"/>
        <pt x="1382" y="395" on="0"/>
        <pt x="1393" y="395" on="1"/>
        <pt x="1404" y="395" on="0"/>
        <pt x="1408" y="375" on="0"/>
        <pt x="1408" y="365" on="1"/>
        <pt x="1408" y="341" on="1"/>
        <pt x="1408" y="333" on="0"/>
        <pt x="1407" y="320" on="0"/>
        <pt x="1402" y="312" on="1"/>
        <pt x="1370" y="87" on="1"/>
        <pt x="1370" y="76" on="1"/>
        <pt x="1370" y="72" on="0"/>
        <pt x="1376" y="45" on="0"/>
        <pt x="1376" y="44" on="1"/>
        <pt x="1376" y="30" on="0"/>
        <pt x="1364" y="6" on="0"/>
        <pt x="1351" y="0" on="1"/>
        <pt x="1176" y="0" on="1"/>
        <pt x="1174" y="0" on="0"/>
        <pt x="1168" y="0" on="0"/>
        <pt x="1163" y="-1" on="1"/>
        <pt x="1146" y="-41" on="0"/>
        <pt x="1115" y="-128" on="0"/>
        <pt x="1115" y="-171" on="1"/>
        <pt x="1115" y="-179" on="0"/>
        <pt x="1118" y="-200" on="0"/>
        <pt x="1122" y="-223" on="0"/>
        <pt x="1126" y="-245" on="0"/>
        <pt x="1127" y="-252" on="1"/>
        <pt x="1129" y="-267" on="0"/>
        <pt x="1136" y="-287" on="0"/>
        <pt x="1148" y="-298" on="1"/>
        <pt x="1161" y="-308" on="0"/>
        <pt x="1184" y="-325" on="0"/>
        <pt x="1195" y="-336" on="1"/>
        <pt x="1196" y="-337" on="0"/>
        <pt x="1198" y="-337" on="0"/>
        <pt x="1199" y="-338" on="1"/>
        <pt x="1211" y="-345" on="0"/>
        <pt x="1235" y="-357" on="0"/>
        <pt x="1249" y="-357" on="1"/>
        <pt x="1265" y="-357" on="0"/>
        <pt x="1281" y="-366" on="0"/>
        <pt x="1291" y="-366" on="1"/>
        <pt x="1299" y="-366" on="0"/>
        <pt x="1317" y="-361" on="0"/>
        <pt x="1328" y="-360" on="1"/>
        <pt x="1357" y="-357" on="0"/>
        <pt x="1382" y="-343" on="1"/>
        <pt x="1387" y="-343" on="1"/>
        <pt x="1396" y="-343" on="0"/>
        <pt x="1408" y="-352" on="0"/>
        <pt x="1408" y="-363" on="1"/>
        <pt x="1408" y="-374" on="0"/>
        <pt x="1400" y="-382" on="1"/>
        <pt x="1376" y="-414" on="0"/>
        <pt x="1310" y="-454" on="0"/>
        <pt x="1273" y="-465" on="1"/>
        <pt x="1245" y="-478" on="1"/>
        <pt x="1234" y="-480" on="0"/>
        <pt x="1204" y="-482" on="0"/>
        <pt x="1191" y="-482" on="1"/>
        <pt x="1177" y="-482" on="0"/>
        <pt x="1134" y="-476" on="0"/>
        <pt x="1118" y="-472" on="1"/>
        <pt x="1103" y="-462" on="0"/>
        <pt x="1077" y="-446" on="0"/>
        <pt x="1055" y="-444" on="1"/>
        <pt x="1036" y="-434" on="1"/>
        <pt x="1022" y="-415" on="1"/>
        <pt x="1018" y="-402" on="0"/>
        <pt x="1004" y="-379" on="0"/>
        <pt x="990" y="-355" on="0"/>
        <pt x="980" y="-331" on="0"/>
        <pt x="980" y="-316" on="1"/>
        <pt x="980" y="-290" on="0"/>
        <pt x="992" y="-232" on="0"/>
        <pt x="991" y="-203" on="1"/>
        <pt x="1001" y="-183" on="1"/>
        <pt x="1011" y="-152" on="1"/>
        <pt x="1014" y="-135" on="1"/>
        <pt x="1032" y="-106" on="0"/>
        <pt x="1073" y="-38" on="0"/>
        <pt x="1096" y="-9" on="1"/>
        <pt x="1082" y="-11" on="0"/>
        <pt x="1061" y="-13" on="0"/>
        <pt x="1059" y="-13" on="1"/>
        <pt x="1040" y="-13" on="1"/>
        <pt x="1036" y="-13" on="0"/>
        <pt x="1018" y="-17" on="0"/>
        <pt x="1015" y="-18" on="1"/>
        <pt x="683" y="-18" on="1"/>
        <pt x="617" y="-17" on="0"/>
        <pt x="482" y="0" on="0"/>
        <pt x="414" y="0" on="1"/>
        <pt x="385" y="0" on="0"/>
        <pt x="328" y="-8" on="0"/>
        <pt x="271" y="-17" on="0"/>
        <pt x="214" y="-25" on="0"/>
        <pt x="184" y="-25" on="1"/>
        <pt x="135" y="-25" on="1"/>
        <pt x="124" y="-16" on="0"/>
        <pt x="110" y="3" on="0"/>
      </contour>
    </TTGlyph>
    <TTGlyph name="Eth" xMin="70" yMin="-13" xMax="1564" yMax="1505">
      <contour>
        <pt x="151" y="761" on="1"/>
        <pt x="162" y="774" on="0"/>
        <pt x="187" y="781" on="0"/>
        <pt x="213" y="781" on="1"/>
        <pt x="233" y="781" on="0"/>
        <pt x="274" y="780" on="0"/>
        <pt x="295" y="780" on="1"/>
        <pt x="295" y="813" on="1"/>
        <pt x="295" y="816" on="0"/>
        <pt x="297" y="844" on="0"/>
        <pt x="299" y="875" on="0"/>
        <pt x="301" y="903" on="0"/>
        <pt x="301" y="906" on="1"/>
        <pt x="301" y="1082" on="1"/>
        <pt x="301" y="1084" on="0"/>
        <pt x="303" y="1095" on="0"/>
        <pt x="305" y="1109" on="0"/>
        <pt x="307" y="1121" on="0"/>
        <pt x="307" y="1124" on="1"/>
        <pt x="307" y="1373" on="1"/>
        <pt x="307" y="1378" on="0"/>
        <pt x="298" y="1399" on="0"/>
        <pt x="295" y="1404" on="1"/>
        <pt x="293" y="1409" on="0"/>
        <pt x="284" y="1421" on="0"/>
        <pt x="282" y="1423" on="1"/>
        <pt x="277" y="1430" on="0"/>
        <pt x="245" y="1440" on="0"/>
        <pt x="202" y="1446" on="0"/>
        <pt x="154" y="1452" on="0"/>
        <pt x="115" y="1459" on="0"/>
        <pt x="89" y="1471" on="0"/>
        <pt x="89" y="1480" on="1"/>
        <pt x="89" y="1494" on="0"/>
        <pt x="116" y="1505" on="0"/>
        <pt x="127" y="1505" on="1"/>
        <pt x="220" y="1505" on="1"/>
        <pt x="228" y="1500" on="0"/>
        <pt x="252" y="1497" on="0"/>
        <pt x="264" y="1497" on="1"/>
        <pt x="274" y="1497" on="0"/>
        <pt x="290" y="1499" on="0"/>
        <pt x="295" y="1499" on="1"/>
        <pt x="355" y="1496" on="0"/>
        <pt x="472" y="1487" on="0"/>
        <pt x="532" y="1487" on="1"/>
        <pt x="544" y="1487" on="1"/>
        <pt x="546" y="1487" on="0"/>
        <pt x="562" y="1494" on="0"/>
        <pt x="564" y="1494" on="1"/>
        <pt x="623" y="1498" on="0"/>
        <pt x="740" y="1499" on="0"/>
        <pt x="799" y="1499" on="1"/>
        <pt x="845" y="1499" on="1"/>
        <pt x="873" y="1497" on="0"/>
        <pt x="925" y="1486" on="0"/>
        <pt x="976" y="1472" on="0"/>
        <pt x="1028" y="1459" on="0"/>
        <pt x="1057" y="1455" on="1"/>
        <pt x="1072" y="1442" on="0"/>
        <pt x="1110" y="1432" on="0"/>
        <pt x="1127" y="1423" on="1"/>
        <pt x="1168" y="1404" on="0"/>
        <pt x="1256" y="1366" on="0"/>
        <pt x="1288" y="1337" on="1"/>
        <pt x="1358" y="1275" on="0"/>
        <pt x="1462" y="1149" on="0"/>
        <pt x="1530" y="1012" on="0"/>
        <pt x="1564" y="856" on="0"/>
        <pt x="1564" y="764" on="1"/>
        <pt x="1564" y="669" on="0"/>
        <pt x="1530" y="509" on="0"/>
        <pt x="1460" y="368" on="0"/>
        <pt x="1354" y="239" on="0"/>
        <pt x="1282" y="175" on="1"/>
        <pt x="1266" y="164" on="0"/>
        <pt x="1225" y="154" on="0"/>
        <pt x="1206" y="143" on="1"/>
        <pt x="1186" y="130" on="0"/>
        <pt x="1144" y="96" on="0"/>
        <pt x="1120" y="87" on="1"/>
        <pt x="1060" y="67" on="0"/>
        <pt x="935" y="31" on="0"/>
        <pt x="863" y="18" on="1"/>
        <pt x="823" y="16" on="0"/>
        <pt x="741" y="0" on="0"/>
        <pt x="702" y="0" on="1"/>
        <pt x="682" y="0" on="0"/>
        <pt x="657" y="2" on="0"/>
        <pt x="633" y="7" on="1"/>
        <pt x="631" y="7" on="0"/>
        <pt x="616" y="5" on="0"/>
        <pt x="615" y="5" on="1"/>
        <pt x="602" y="3" on="0"/>
        <pt x="573" y="2" on="0"/>
        <pt x="569" y="0" on="1"/>
        <pt x="358" y="0" on="1"/>
        <pt x="306" y="-2" on="0"/>
        <pt x="200" y="-13" on="0"/>
        <pt x="148" y="-13" on="1"/>
        <pt x="138" y="-13" on="0"/>
        <pt x="111" y="-13" on="0"/>
        <pt x="87" y="-7" on="0"/>
        <pt x="70" y="7" on="0"/>
        <pt x="70" y="20" on="1"/>
        <pt x="70" y="29" on="0"/>
        <pt x="82" y="44" on="0"/>
        <pt x="100" y="54" on="0"/>
        <pt x="119" y="61" on="0"/>
        <pt x="127" y="62" on="1"/>
        <pt x="147" y="65" on="0"/>
        <pt x="197" y="64" on="0"/>
        <pt x="247" y="67" on="0"/>
        <pt x="289" y="82" on="0"/>
        <pt x="301" y="101" on="1"/>
        <pt x="301" y="134" on="1"/>
        <pt x="301" y="152" on="0"/>
        <pt x="295" y="181" on="0"/>
        <pt x="295" y="197" on="1"/>
        <pt x="295" y="200" on="0"/>
        <pt x="297" y="216" on="0"/>
        <pt x="299" y="233" on="0"/>
        <pt x="301" y="248" on="0"/>
        <pt x="301" y="250" on="1"/>
        <pt x="301" y="278" on="0"/>
        <pt x="295" y="324" on="0"/>
        <pt x="295" y="356" on="1"/>
        <pt x="295" y="357" on="0"/>
        <pt x="297" y="369" on="0"/>
        <pt x="299" y="381" on="0"/>
        <pt x="301" y="392" on="0"/>
        <pt x="301" y="393" on="1"/>
        <pt x="301" y="482" on="1"/>
        <pt x="301" y="536" on="0"/>
        <pt x="295" y="639" on="0"/>
        <pt x="295" y="690" on="1"/>
        <pt x="247" y="690" on="1"/>
        <pt x="244" y="690" on="0"/>
        <pt x="231" y="691" on="0"/>
        <pt x="216" y="693" on="0"/>
        <pt x="203" y="694" on="0"/>
        <pt x="201" y="694" on="1"/>
        <pt x="178" y="694" on="1"/>
        <pt x="160" y="699" on="0"/>
        <pt x="151" y="717" on="0"/>
        <pt x="151" y="726" on="1"/>
        <pt x="151" y="738" on="1"/>
      </contour>
      <contour>
        <pt x="526" y="108" on="1"/>
        <pt x="526" y="100" on="0"/>
        <pt x="547" y="85" on="0"/>
        <pt x="575" y="74" on="0"/>
        <pt x="601" y="67" on="0"/>
        <pt x="606" y="67" on="1"/>
        <pt x="635" y="67" on="0"/>
        <pt x="697" y="78" on="0"/>
        <pt x="726" y="82" on="1"/>
        <pt x="727" y="82" on="0"/>
        <pt x="749" y="81" on="0"/>
        <pt x="757" y="81" on="1"/>
        <pt x="768" y="81" on="0"/>
        <pt x="769" y="82" on="1"/>
        <pt x="772" y="82" on="0"/>
        <pt x="785" y="83" on="0"/>
        <pt x="799" y="85" on="0"/>
        <pt x="811" y="87" on="0"/>
        <pt x="813" y="87" on="1"/>
        <pt x="836" y="91" on="0"/>
        <pt x="875" y="116" on="0"/>
        <pt x="895" y="124" on="1"/>
        <pt x="911" y="130" on="0"/>
        <pt x="947" y="141" on="0"/>
        <pt x="984" y="154" on="0"/>
        <pt x="1018" y="169" on="0"/>
        <pt x="1031" y="180" on="1"/>
        <pt x="1035" y="183" on="0"/>
        <pt x="1055" y="202" on="0"/>
        <pt x="1077" y="224" on="0"/>
        <pt x="1097" y="245" on="0"/>
        <pt x="1102" y="250" on="1"/>
        <pt x="1103" y="251" on="0"/>
        <pt x="1108" y="259" on="0"/>
        <pt x="1114" y="270" on="0"/>
        <pt x="1120" y="279" on="0"/>
        <pt x="1120" y="281" on="1"/>
        <pt x="1140" y="309" on="0"/>
        <pt x="1183" y="356" on="0"/>
        <pt x="1194" y="386" on="1"/>
        <pt x="1196" y="390" on="0"/>
        <pt x="1197" y="393" on="1"/>
        <pt x="1198" y="395" on="0"/>
        <pt x="1199" y="398" on="1"/>
        <pt x="1231" y="446" on="0"/>
        <pt x="1282" y="556" on="0"/>
        <pt x="1288" y="612" on="1"/>
        <pt x="1289" y="624" on="0"/>
        <pt x="1295" y="679" on="0"/>
        <pt x="1301" y="742" on="0"/>
        <pt x="1306" y="800" on="0"/>
        <pt x="1307" y="815" on="1"/>
        <pt x="1307" y="839" on="0"/>
        <pt x="1295" y="876" on="0"/>
        <pt x="1288" y="899" on="1"/>
        <pt x="1282" y="923" on="0"/>
        <pt x="1272" y="973" on="0"/>
        <pt x="1259" y="1021" on="0"/>
        <pt x="1240" y="1067" on="0"/>
        <pt x="1225" y="1087" on="1"/>
        <pt x="1224" y="1089" on="0"/>
        <pt x="1223" y="1092" on="1"/>
        <pt x="1222" y="1094" on="0"/>
        <pt x="1220" y="1098" on="0"/>
        <pt x="1219" y="1100" on="1"/>
        <pt x="1219" y="1101" on="0"/>
        <pt x="1215" y="1114" on="0"/>
        <pt x="1211" y="1128" on="0"/>
        <pt x="1207" y="1140" on="0"/>
        <pt x="1206" y="1142" on="1"/>
        <pt x="1206" y="1143" on="0"/>
        <pt x="1201" y="1151" on="0"/>
        <pt x="1194" y="1160" on="0"/>
        <pt x="1189" y="1167" on="0"/>
        <pt x="1189" y="1168" on="1"/>
        <pt x="1163" y="1204" on="0"/>
        <pt x="1121" y="1259" on="0"/>
        <pt x="1088" y="1287" on="1"/>
        <pt x="1067" y="1304" on="0"/>
        <pt x="1021" y="1350" on="0"/>
        <pt x="994" y="1361" on="1"/>
        <pt x="993" y="1362" on="0"/>
        <pt x="966" y="1368" on="0"/>
        <pt x="962" y="1368" on="1"/>
        <pt x="961" y="1369" on="0"/>
        <pt x="946" y="1386" on="0"/>
        <pt x="944" y="1386" on="1"/>
        <pt x="944" y="1388" on="0"/>
        <pt x="936" y="1393" on="0"/>
        <pt x="934" y="1393" on="1"/>
        <pt x="932" y="1393" on="0"/>
        <pt x="927" y="1395" on="0"/>
        <pt x="923" y="1396" on="1"/>
        <pt x="919" y="1397" on="0"/>
        <pt x="914" y="1398" on="1"/>
        <pt x="901" y="1404" on="0"/>
        <pt x="884" y="1412" on="0"/>
        <pt x="868" y="1418" on="0"/>
        <pt x="851" y="1422" on="0"/>
        <pt x="838" y="1423" on="1"/>
        <pt x="837" y="1423" on="0"/>
        <pt x="827" y="1425" on="0"/>
        <pt x="815" y="1428" on="0"/>
        <pt x="804" y="1430" on="0"/>
        <pt x="801" y="1430" on="1"/>
        <pt x="775" y="1436" on="0"/>
        <pt x="720" y="1448" on="0"/>
        <pt x="692" y="1448" on="1"/>
        <pt x="670" y="1448" on="1"/>
        <pt x="663" y="1447" on="0"/>
        <pt x="629" y="1443" on="0"/>
        <pt x="591" y="1437" on="0"/>
        <pt x="557" y="1432" on="0"/>
        <pt x="551" y="1430" on="1"/>
        <pt x="543" y="1425" on="0"/>
        <pt x="532" y="1395" on="0"/>
        <pt x="532" y="1386" on="1"/>
        <pt x="532" y="1057" on="1"/>
        <pt x="535" y="1044" on="0"/>
        <pt x="537" y="1025" on="0"/>
        <pt x="539" y="1009" on="0"/>
        <pt x="539" y="992" on="0"/>
        <pt x="539" y="981" on="1"/>
        <pt x="539" y="956" on="1"/>
        <pt x="539" y="954" on="0"/>
        <pt x="537" y="939" on="0"/>
        <pt x="534" y="923" on="0"/>
        <pt x="532" y="908" on="0"/>
        <pt x="532" y="906" on="1"/>
        <pt x="532" y="899" on="0"/>
        <pt x="530" y="870" on="0"/>
        <pt x="528" y="833" on="0"/>
        <pt x="526" y="794" on="0"/>
        <pt x="526" y="776" on="1"/>
        <pt x="609" y="776" on="1"/>
        <pt x="633" y="774" on="0"/>
        <pt x="672" y="783" on="0"/>
        <pt x="695" y="784" on="1"/>
        <pt x="727" y="785" on="0"/>
        <pt x="787" y="780" on="0"/>
        <pt x="819" y="776" on="1"/>
        <pt x="905" y="776" on="1"/>
        <pt x="919" y="776" on="0"/>
        <pt x="930" y="760" on="0"/>
        <pt x="930" y="756" on="1"/>
        <pt x="930" y="706" on="1"/>
        <pt x="928" y="698" on="0"/>
        <pt x="907" y="687" on="0"/>
        <pt x="890" y="687" on="1"/>
        <pt x="873" y="687" on="1"/>
        <pt x="862" y="687" on="1"/>
        <pt x="836" y="685" on="0"/>
        <pt x="809" y="683" on="0"/>
        <pt x="788" y="681" on="0"/>
        <pt x="761" y="680" on="0"/>
        <pt x="735" y="680" on="1"/>
        <pt x="725" y="680" on="0"/>
        <pt x="683" y="682" on="0"/>
        <pt x="637" y="685" on="0"/>
        <pt x="594" y="688" on="0"/>
        <pt x="584" y="688" on="1"/>
        <pt x="561" y="688" on="0"/>
        <pt x="527" y="689" on="0"/>
        <pt x="519" y="689" on="1"/>
        <pt x="519" y="664" on="1"/>
        <pt x="519" y="637" on="0"/>
        <pt x="521" y="596" on="0"/>
        <pt x="526" y="570" on="1"/>
      </contour>
    </TTGlyph>
    <TTGlyph name="Euro" xMin="87" yMin="-3" xMax="1085" yMax="1410">
      <contour>
        <pt x="384" y="759" on="1"/>
        <pt x="383" y="745" on="0"/>
        <pt x="376" y="720" on="0"/>
        <pt x="376" y="709" on="1"/>
        <pt x="376" y="699" on="0"/>
        <pt x="383" y="682" on="0"/>
        <pt x="383" y="675" on="1"/>
        <pt x="479" y="664" on="1"/>
        <pt x="541" y="675" on="1"/>
        <pt x="573" y="670" on="1"/>
        <pt x="670" y="675" on="1"/>
        <pt x="727" y="670" on="1"/>
        <pt x="843" y="675" on="1"/>
        <pt x="854" y="678" on="0"/>
        <pt x="871" y="680" on="0"/>
        <pt x="880" y="680" on="1"/>
        <pt x="891" y="680" on="0"/>
        <pt x="911" y="678" on="0"/>
        <pt x="924" y="675" on="1"/>
        <pt x="928" y="667" on="0"/>
        <pt x="930" y="655" on="0"/>
        <pt x="930" y="648" on="1"/>
        <pt x="930" y="636" on="0"/>
        <pt x="917" y="612" on="0"/>
        <pt x="900" y="598" on="1"/>
        <pt x="883" y="593" on="0"/>
        <pt x="863" y="593" on="1"/>
        <pt x="848" y="593" on="0"/>
        <pt x="815" y="597" on="0"/>
        <pt x="798" y="600" on="1"/>
        <pt x="786" y="605" on="1"/>
        <pt x="623" y="598" on="1"/>
        <pt x="566" y="605" on="1"/>
        <pt x="480" y="598" on="1"/>
        <pt x="384" y="598" on="1"/>
        <pt x="379" y="564" on="1"/>
        <pt x="382" y="551" on="0"/>
        <pt x="386" y="534" on="0"/>
        <pt x="390" y="520" on="0"/>
        <pt x="393" y="505" on="0"/>
        <pt x="395" y="494" on="1"/>
        <pt x="395" y="489" on="0"/>
        <pt x="396" y="481" on="0"/>
        <pt x="396" y="472" on="0"/>
        <pt x="397" y="458" on="0"/>
        <pt x="398" y="447" on="1"/>
        <pt x="402" y="430" on="0"/>
        <pt x="418" y="387" on="0"/>
        <pt x="423" y="373" on="1"/>
        <pt x="426" y="367" on="0"/>
        <pt x="435" y="340" on="0"/>
        <pt x="445" y="309" on="0"/>
        <pt x="454" y="280" on="0"/>
        <pt x="457" y="274" on="1"/>
        <pt x="468" y="252" on="0"/>
        <pt x="486" y="205" on="0"/>
        <pt x="499" y="188" on="1"/>
        <pt x="518" y="167" on="0"/>
        <pt x="558" y="126" on="0"/>
        <pt x="579" y="116" on="1"/>
        <pt x="588" y="112" on="0"/>
        <pt x="601" y="110" on="0"/>
        <pt x="615" y="109" on="0"/>
        <pt x="630" y="109" on="0"/>
        <pt x="642" y="108" on="1"/>
        <pt x="648" y="107" on="0"/>
        <pt x="665" y="102" on="0"/>
        <pt x="682" y="96" on="0"/>
        <pt x="697" y="92" on="0"/>
        <pt x="700" y="92" on="1"/>
        <pt x="720" y="92" on="0"/>
        <pt x="757" y="98" on="0"/>
        <pt x="774" y="101" on="1"/>
        <pt x="783" y="105" on="0"/>
        <pt x="816" y="124" on="0"/>
        <pt x="833" y="129" on="1"/>
        <pt x="857" y="140" on="0"/>
        <pt x="894" y="152" on="0"/>
        <pt x="907" y="158" on="1"/>
        <pt x="920" y="166" on="0"/>
        <pt x="925" y="167" on="0"/>
        <pt x="929" y="171" on="1"/>
        <pt x="930" y="173" on="0"/>
        <pt x="935" y="176" on="0"/>
        <pt x="937" y="178" on="1"/>
        <pt x="940" y="180" on="0"/>
        <pt x="941" y="187" on="0"/>
        <pt x="941" y="190" on="1"/>
        <pt x="941" y="195" on="0"/>
        <pt x="942" y="201" on="0"/>
        <pt x="946" y="203" on="1"/>
        <pt x="958" y="214" on="0"/>
        <pt x="980" y="230" on="0"/>
        <pt x="994" y="244" on="1"/>
        <pt x="1035" y="307" on="1"/>
        <pt x="1037" y="312" on="0"/>
        <pt x="1050" y="318" on="0"/>
        <pt x="1056" y="318" on="1"/>
        <pt x="1065" y="318" on="0"/>
        <pt x="1081" y="305" on="0"/>
        <pt x="1085" y="294" on="1"/>
        <pt x="1076" y="277" on="0"/>
        <pt x="1057" y="253" on="0"/>
        <pt x="1048" y="239" on="1"/>
        <pt x="1038" y="223" on="0"/>
        <pt x="1020" y="184" on="0"/>
        <pt x="1011" y="173" on="1"/>
        <pt x="992" y="147" on="0"/>
        <pt x="971" y="111" on="0"/>
        <pt x="954" y="96" on="1"/>
        <pt x="941" y="85" on="0"/>
        <pt x="909" y="64" on="0"/>
        <pt x="899" y="59" on="1"/>
        <pt x="876" y="44" on="0"/>
        <pt x="814" y="27" on="0"/>
        <pt x="788" y="22" on="1"/>
        <pt x="766" y="14" on="0"/>
        <pt x="723" y="-3" on="0"/>
        <pt x="697" y="-3" on="1"/>
        <pt x="683" y="-3" on="0"/>
        <pt x="667" y="0" on="1"/>
        <pt x="644" y="5" on="0"/>
        <pt x="592" y="10" on="0"/>
        <pt x="566" y="24" on="1"/>
        <pt x="495" y="42" on="1"/>
        <pt x="479" y="51" on="0"/>
        <pt x="448" y="66" on="0"/>
        <pt x="433" y="77" on="1"/>
        <pt x="392" y="114" on="0"/>
        <pt x="333" y="190" on="0"/>
        <pt x="299" y="228" on="1"/>
        <pt x="291" y="235" on="0"/>
        <pt x="283" y="253" on="0"/>
        <pt x="270" y="279" on="1"/>
        <pt x="262" y="284" on="0"/>
        <pt x="263" y="288" on="0"/>
        <pt x="258" y="294" on="1"/>
        <pt x="251" y="305" on="0"/>
        <pt x="248" y="315" on="0"/>
        <pt x="247" y="324" on="0"/>
        <pt x="245" y="335" on="0"/>
        <pt x="240" y="348" on="1"/>
        <pt x="235" y="357" on="0"/>
        <pt x="233" y="374" on="0"/>
        <pt x="233" y="391" on="0"/>
        <pt x="231" y="409" on="0"/>
        <pt x="228" y="420" on="1"/>
        <pt x="225" y="433" on="0"/>
        <pt x="221" y="445" on="0"/>
        <pt x="218" y="456" on="0"/>
        <pt x="215" y="469" on="0"/>
        <pt x="213" y="484" on="1"/>
        <pt x="211" y="504" on="0"/>
        <pt x="203" y="548" on="0"/>
        <pt x="203" y="570" on="1"/>
        <pt x="198" y="598" on="1"/>
        <pt x="190" y="602" on="0"/>
        <pt x="159" y="612" on="0"/>
        <pt x="144" y="612" on="1"/>
        <pt x="134" y="612" on="0"/>
        <pt x="111" y="603" on="0"/>
        <pt x="97" y="598" on="1"/>
        <pt x="95" y="609" on="0"/>
        <pt x="89" y="624" on="0"/>
        <pt x="89" y="632" on="1"/>
        <pt x="89" y="642" on="0"/>
        <pt x="101" y="663" on="0"/>
        <pt x="117" y="675" on="1"/>
        <pt x="122" y="677" on="0"/>
        <pt x="126" y="677" on="1"/>
        <pt x="131" y="677" on="0"/>
        <pt x="136" y="672" on="0"/>
        <pt x="144" y="670" on="1"/>
        <pt x="190" y="675" on="1"/>
        <pt x="190" y="690" on="1"/>
        <pt x="190" y="706" on="0"/>
        <pt x="190" y="740" on="0"/>
        <pt x="191" y="759" on="1"/>
        <pt x="97" y="759" on="1"/>
        <pt x="93" y="764" on="0"/>
        <pt x="87" y="776" on="0"/>
        <pt x="87" y="783" on="1"/>
        <pt x="87" y="797" on="0"/>
        <pt x="102" y="818" on="0"/>
        <pt x="117" y="833" on="1"/>
        <pt x="178" y="823" on="1"/>
        <pt x="184" y="825" on="0"/>
        <pt x="191" y="833" on="0"/>
        <pt x="196" y="833" on="1"/>
        <pt x="199" y="847" on="0"/>
        <pt x="213" y="864" on="0"/>
        <pt x="213" y="877" on="1"/>
        <pt x="213" y="885" on="0"/>
        <pt x="213" y="902" on="0"/>
        <pt x="215" y="909" on="1"/>
        <pt x="219" y="920" on="0"/>
        <pt x="222" y="935" on="0"/>
        <pt x="225" y="948" on="0"/>
        <pt x="229" y="962" on="0"/>
        <pt x="233" y="973" on="1"/>
        <pt x="242" y="998" on="0"/>
        <pt x="254" y="1053" on="0"/>
        <pt x="265" y="1077" on="1"/>
        <pt x="272" y="1090" on="0"/>
        <pt x="292" y="1119" on="0"/>
        <pt x="300" y="1134" on="1"/>
        <pt x="303" y="1142" on="0"/>
        <pt x="316" y="1155" on="0"/>
        <pt x="317" y="1163" on="1"/>
        <pt x="359" y="1223" on="1"/>
        <pt x="363" y="1229" on="0"/>
        <pt x="367" y="1234" on="0"/>
        <pt x="372" y="1239" on="0"/>
        <pt x="378" y="1244" on="0"/>
        <pt x="383" y="1250" on="1"/>
        <pt x="387" y="1257" on="0"/>
        <pt x="400" y="1268" on="0"/>
        <pt x="414" y="1279" on="0"/>
        <pt x="428" y="1289" on="0"/>
        <pt x="432" y="1294" on="1"/>
        <pt x="452" y="1308" on="0"/>
        <pt x="479" y="1333" on="0"/>
        <pt x="502" y="1346" on="1"/>
        <pt x="515" y="1351" on="0"/>
        <pt x="522" y="1351" on="1"/>
        <pt x="529" y="1351" on="0"/>
        <pt x="555" y="1369" on="0"/>
        <pt x="566" y="1369" on="1"/>
        <pt x="573" y="1369" on="0"/>
        <pt x="578" y="1371" on="1"/>
        <pt x="590" y="1373" on="0"/>
        <pt x="597" y="1376" on="0"/>
        <pt x="600" y="1379" on="0"/>
        <pt x="606" y="1383" on="0"/>
        <pt x="616" y="1386" on="1"/>
        <pt x="636" y="1391" on="0"/>
        <pt x="695" y="1408" on="0"/>
        <pt x="727" y="1408" on="1"/>
        <pt x="762" y="1410" on="0"/>
        <pt x="810" y="1397" on="0"/>
        <pt x="838" y="1393" on="1"/>
        <pt x="851" y="1391" on="0"/>
        <pt x="869" y="1384" on="0"/>
        <pt x="887" y="1376" on="0"/>
        <pt x="907" y="1367" on="0"/>
        <pt x="922" y="1364" on="1"/>
        <pt x="940" y="1358" on="0"/>
        <pt x="978" y="1344" on="0"/>
        <pt x="998" y="1336" on="1"/>
        <pt x="1006" y="1333" on="0"/>
        <pt x="1022" y="1320" on="0"/>
        <pt x="1037" y="1305" on="0"/>
        <pt x="1051" y="1292" on="0"/>
        <pt x="1058" y="1289" on="1"/>
        <pt x="1065" y="1260" on="0"/>
        <pt x="1079" y="1217" on="0"/>
        <pt x="1085" y="1188" on="1"/>
        <pt x="1085" y="1165" on="0"/>
        <pt x="1074" y="1128" on="0"/>
        <pt x="1065" y="1110" on="1"/>
        <pt x="1067" y="1104" on="0"/>
        <pt x="1067" y="1093" on="0"/>
        <pt x="1067" y="1087" on="1"/>
        <pt x="1067" y="1069" on="0"/>
        <pt x="1061" y="1032" on="0"/>
        <pt x="1056" y="1015" on="1"/>
        <pt x="1051" y="1006" on="0"/>
        <pt x="1041" y="1006" on="1"/>
        <pt x="1035" y="1006" on="0"/>
        <pt x="1023" y="1011" on="1"/>
        <pt x="1021" y="1028" on="0"/>
        <pt x="1017" y="1051" on="0"/>
        <pt x="1013" y="1065" on="1"/>
        <pt x="1005" y="1088" on="0"/>
        <pt x="991" y="1131" on="0"/>
        <pt x="983" y="1151" on="1"/>
        <pt x="974" y="1165" on="0"/>
        <pt x="964" y="1205" on="0"/>
        <pt x="956" y="1218" on="1"/>
        <pt x="955" y="1220" on="0"/>
        <pt x="947" y="1228" on="0"/>
        <pt x="936" y="1237" on="0"/>
        <pt x="928" y="1245" on="0"/>
        <pt x="927" y="1247" on="1"/>
        <pt x="910" y="1261" on="0"/>
        <pt x="888" y="1286" on="0"/>
        <pt x="868" y="1299" on="1"/>
        <pt x="851" y="1305" on="0"/>
        <pt x="815" y="1315" on="0"/>
        <pt x="789" y="1319" on="1"/>
        <pt x="775" y="1319" on="0"/>
        <pt x="752" y="1324" on="0"/>
        <pt x="736" y="1324" on="1"/>
        <pt x="719" y="1322" on="0"/>
        <pt x="689" y="1319" on="0"/>
        <pt x="672" y="1317" on="1"/>
        <pt x="667" y="1317" on="0"/>
        <pt x="656" y="1315" on="0"/>
        <pt x="650" y="1314" on="1"/>
        <pt x="633" y="1310" on="0"/>
        <pt x="599" y="1283" on="0"/>
        <pt x="586" y="1275" on="1"/>
        <pt x="569" y="1266" on="0"/>
        <pt x="546" y="1252" on="0"/>
        <pt x="532" y="1238" on="1"/>
        <pt x="520" y="1221" on="0"/>
        <pt x="494" y="1199" on="0"/>
        <pt x="484" y="1178" on="1"/>
        <pt x="479" y="1169" on="0"/>
        <pt x="466" y="1154" on="0"/>
        <pt x="463" y="1139" on="1"/>
        <pt x="462" y="1132" on="0"/>
        <pt x="454" y="1114" on="0"/>
        <pt x="444" y="1096" on="0"/>
        <pt x="435" y="1079" on="0"/>
        <pt x="433" y="1075" on="1"/>
        <pt x="428" y="1066" on="0"/>
        <pt x="424" y="1054" on="0"/>
        <pt x="421" y="1041" on="0"/>
        <pt x="416" y="1025" on="0"/>
        <pt x="411" y="1011" on="1"/>
        <pt x="409" y="1005" on="0"/>
        <pt x="401" y="988" on="0"/>
        <pt x="400" y="981" on="1"/>
        <pt x="398" y="979" on="0"/>
        <pt x="398" y="972" on="0"/>
        <pt x="398" y="969" on="1"/>
        <pt x="403" y="926" on="1"/>
        <pt x="401" y="914" on="1"/>
        <pt x="400" y="905" on="0"/>
        <pt x="400" y="894" on="0"/>
        <pt x="400" y="890" on="1"/>
        <pt x="400" y="852" on="1"/>
        <pt x="455" y="823" on="1"/>
        <pt x="465" y="826" on="0"/>
        <pt x="482" y="827" on="0"/>
        <pt x="490" y="827" on="1"/>
        <pt x="546" y="827" on="1"/>
        <pt x="563" y="827" on="0"/>
        <pt x="597" y="815" on="0"/>
        <pt x="615" y="815" on="1"/>
        <pt x="618" y="815" on="0"/>
        <pt x="627" y="815" on="0"/>
        <pt x="651" y="817" on="0"/>
        <pt x="697" y="818" on="0"/>
        <pt x="736" y="820" on="1"/>
        <pt x="757" y="826" on="0"/>
        <pt x="790" y="827" on="0"/>
        <pt x="816" y="828" on="1"/>
        <pt x="820" y="827" on="0"/>
        <pt x="830" y="827" on="0"/>
        <pt x="835" y="827" on="1"/>
        <pt x="852" y="827" on="0"/>
        <pt x="878" y="828" on="0"/>
        <pt x="894" y="830" on="1"/>
        <pt x="969" y="833" on="1"/>
        <pt x="978" y="823" on="0"/>
        <pt x="978" y="806" on="1"/>
        <pt x="978" y="798" on="0"/>
        <pt x="965" y="773" on="0"/>
        <pt x="947" y="759" on="1"/>
        <pt x="943" y="755" on="0"/>
        <pt x="938" y="754" on="0"/>
        <pt x="934" y="754" on="1"/>
        <pt x="926" y="754" on="0"/>
        <pt x="905" y="757" on="0"/>
        <pt x="897" y="759" on="1"/>
        <pt x="870" y="759" on="1"/>
        <pt x="856" y="759" on="0"/>
        <pt x="835" y="755" on="0"/>
        <pt x="820" y="751" on="1"/>
        <pt x="817" y="749" on="0"/>
        <pt x="809" y="749" on="0"/>
        <pt x="804" y="749" on="1"/>
        <pt x="796" y="749" on="0"/>
        <pt x="786" y="749" on="0"/>
        <pt x="781" y="751" on="1"/>
        <pt x="757" y="754" on="1"/>
        <pt x="709" y="746" on="1"/>
        <pt x="606" y="743" on="1"/>
        <pt x="595" y="743" on="0"/>
        <pt x="580" y="745" on="0"/>
        <pt x="567" y="748" on="0"/>
        <pt x="552" y="752" on="0"/>
        <pt x="541" y="754" on="1"/>
        <pt x="529" y="749" on="0"/>
        <pt x="510" y="749" on="1"/>
        <pt x="494" y="749" on="0"/>
        <pt x="460" y="755" on="0"/>
        <pt x="452" y="759" on="1"/>
      </contour>
    </TTGlyph>
</ttFont>
